{"glyphs":{"0":{"ha":659,"x_min":56,"x_max":603,"o":"m 330 0 q 219 31 266 0 q 141 114 173 62 q 91 229 110 166 q 64 356 73 291 q 56 475 56 420 l 56 485 q 64 606 57 541 q 87 735 71 671 q 134 852 104 799 q 212 937 164 905 q 328 970 259 970 l 330 970 q 469 919 415 968 q 552 796 523 871 q 592 638 581 721 q 603 485 603 555 l 603 479 q 595 358 603 423 q 569 231 587 294 q 518 115 550 168 q 440 32 487 63 q 330 0 394 0 m 178 834 q 186 839 182 834 q 308 923 231 903 q 314 927 312 924 q 315 932 315 930 q 313 940 315 937 q 306 943 311 943 l 303 943 q 170 850 218 920 q 168 844 168 847 q 172 836 168 840 q 178 834 175 834 m 139 754 q 144 756 142 754 q 148 761 147 758 q 160 789 153 774 q 166 804 163 796 l 168 808 q 164 815 168 812 q 157 818 161 818 q 149 812 151 818 q 130 768 138 789 l 129 764 q 135 755 129 758 l 139 754 m 330 199 q 364 226 350 199 q 387 297 378 254 q 400 390 396 340 q 404 485 404 439 q 401 580 404 530 q 390 673 398 630 q 368 744 382 716 q 330 771 353 771 l 330 771 q 292 743 307 771 q 269 671 277 715 q 258 577 261 627 q 255 485 255 528 q 259 392 255 442 q 272 299 263 342 q 295 227 281 255 q 330 199 309 199 m 370 159 q 376 161 374 159 q 438 325 431 216 l 438 326 q 435 333 438 330 q 429 336 433 336 q 421 333 425 336 q 418 326 418 330 q 362 176 411 222 q 359 169 359 172 q 362 161 359 165 q 370 159 366 159 z "},"1":{"ha":486,"x_min":55,"x_max":430,"o":"m 330 0 l 155 0 q 87 27 115 0 q 55 95 58 54 l 55 99 q 81 166 55 138 q 146 199 106 194 l 146 687 q 67 754 88 699 q 62 785 62 769 q 92 855 62 823 l 174 941 q 243 971 202 970 l 246 971 q 316 942 287 971 q 345 872 345 913 l 345 198 q 406 164 382 191 q 430 100 430 136 l 429 92 q 397 26 425 52 q 330 0 369 0 m 119 819 q 126 822 123 819 l 202 908 q 205 915 205 911 q 202 922 205 919 q 195 925 199 925 q 188 922 191 925 l 111 836 q 109 829 109 832 q 112 821 109 825 q 119 819 115 819 m 180 448 q 186 451 184 448 q 189 458 189 454 l 189 678 q 186 685 189 682 q 180 688 184 688 q 172 685 175 688 q 170 678 170 682 l 170 458 q 173 451 170 454 q 180 448 176 448 m 178 356 q 185 359 182 356 q 188 366 188 362 l 189 414 q 186 420 189 418 q 179 423 183 423 q 172 420 175 423 q 169 414 169 418 q 168 389 168 399 q 168 367 168 380 l 168 366 q 171 359 168 361 q 178 356 174 357 z "},"2":{"ha":623,"x_min":56,"x_max":566,"o":"m 467 0 l 156 0 q 84 31 112 0 q 56 100 56 61 q 75 157 56 129 q 119 222 75 157 q 220 385 163 288 q 317 588 276 485 q 357 735 357 691 q 345 767 357 757 q 313 778 332 778 q 279 767 294 778 q 264 729 264 755 l 264 728 q 235 658 264 687 q 165 629 206 629 q 95 658 124 629 q 66 728 66 687 l 66 729 q 149 916 66 840 q 232 962 186 948 q 323 977 277 977 q 430 950 382 977 q 505 886 477 924 q 544 811 532 850 q 556 735 556 773 q 531 581 556 659 q 470 430 507 504 q 393 287 433 355 q 360 232 376 258 q 340 199 350 215 l 467 199 q 537 170 508 199 q 566 100 566 141 q 537 29 566 58 q 467 0 508 0 m 140 840 q 149 844 145 840 q 221 909 176 884 q 314 933 267 933 q 357 927 336 933 l 360 927 q 367 929 363 927 q 370 934 370 930 l 371 937 q 363 947 371 943 q 316 954 340 954 l 298 954 q 132 855 193 941 q 130 850 130 852 q 135 841 130 844 q 140 840 138 840 m 102 760 q 107 761 104 760 q 111 766 110 763 q 123 795 116 780 q 129 809 126 802 l 130 814 q 127 821 130 818 q 121 823 125 823 q 111 817 114 823 q 92 773 101 795 l 92 770 q 93 764 92 767 q 98 760 95 762 l 102 760 m 224 317 q 232 321 229 317 q 300 437 268 373 q 366 603 332 501 l 366 606 q 363 613 366 610 q 356 616 360 616 q 351 614 353 616 q 347 609 348 612 q 282 446 313 509 q 216 332 252 383 q 214 327 214 330 q 218 319 214 322 q 224 317 221 317 m 520 130 l 524 130 q 530 140 530 134 l 530 144 q 510 166 522 159 q 486 178 498 174 l 482 178 q 475 175 477 178 q 473 168 473 172 q 480 158 473 161 q 511 135 501 154 q 520 130 515 130 z "},"3":{"ha":642,"x_min":56,"x_max":585,"o":"m 322 0 q 231 17 272 0 q 159 59 189 34 q 109 111 128 85 q 70 183 81 151 q 59 215 59 215 q 56 241 56 228 q 76 301 56 274 q 130 337 96 328 q 155 340 142 340 q 215 319 189 340 q 252 264 242 298 q 274 217 259 236 q 318 199 290 199 q 357 218 342 199 q 379 266 372 237 q 386 324 386 294 q 363 377 386 361 q 314 393 341 393 q 244 423 272 395 q 216 492 216 452 q 244 562 216 533 q 314 592 272 591 q 338 596 326 592 q 358 608 350 601 q 373 629 367 615 q 380 678 380 644 q 367 745 380 716 q 328 774 355 774 q 270 717 287 773 q 234 663 260 683 q 174 643 207 643 q 148 646 161 643 q 94 683 114 656 q 75 743 75 709 q 78 770 75 756 q 90 800 78 770 q 127 867 101 829 q 175 916 146 892 q 244 956 204 940 q 332 972 283 972 q 437 946 388 972 q 517 878 486 920 q 578 683 578 792 l 578 673 q 523 496 578 569 q 585 339 580 434 l 585 331 q 571 217 585 272 q 526 116 557 163 q 441 33 494 66 q 322 0 387 0 m 157 840 q 166 844 163 840 q 238 909 193 884 q 332 933 283 933 q 375 927 354 933 l 378 926 q 388 934 385 926 l 388 937 q 380 947 388 943 q 334 954 357 954 l 315 954 q 149 855 211 941 q 148 850 148 852 q 153 841 148 844 q 157 840 155 840 m 119 760 q 128 766 125 760 q 146 809 136 787 l 148 814 q 145 820 148 817 q 138 823 142 823 q 128 817 132 823 q 126 812 127 815 q 110 773 117 793 l 109 769 q 115 760 109 764 l 119 760 m 251 493 q 257 495 254 493 q 260 500 259 497 q 280 534 263 523 q 286 543 286 537 q 283 550 286 547 q 275 553 280 553 q 271 551 273 553 q 250 530 257 543 q 240 505 243 517 l 240 503 q 242 497 240 500 q 248 493 244 494 l 251 493 m 387 182 q 394 186 391 182 q 424 240 414 209 q 433 297 433 272 l 433 302 q 430 309 433 306 q 424 311 427 311 l 422 311 q 416 308 418 311 q 413 301 413 305 l 413 297 q 404 247 413 276 q 379 199 395 218 q 376 192 376 195 q 380 184 376 188 q 387 182 382 182 m 81 233 q 88 236 85 233 q 91 243 91 239 q 94 263 91 254 q 105 279 97 273 q 109 287 109 283 q 106 294 109 291 q 99 297 104 297 l 98 297 q 92 295 96 297 q 76 271 80 285 q 71 243 71 257 l 71 242 q 74 236 71 239 q 81 233 77 233 z "},"4":{"ha":713,"x_min":55,"x_max":656,"o":"m 557 -2 q 486 27 515 -2 q 457 98 457 56 l 457 232 l 154 227 q 83 256 112 227 q 55 326 55 286 q 59 354 55 340 l 220 895 q 313 968 243 962 l 316 968 q 387 938 358 968 q 415 869 415 909 q 410 839 415 854 l 288 427 l 457 431 l 457 874 q 485 944 457 915 q 555 974 513 972 l 556 974 q 627 945 597 974 q 656 874 656 916 l 656 98 q 627 27 656 56 q 557 -2 597 -2 m 205 726 q 211 728 209 726 q 214 734 214 730 q 262 886 244 850 q 282 914 271 905 q 309 929 292 923 q 315 938 315 932 q 313 945 315 942 q 306 948 311 948 q 304 948 305 948 q 302 947 303 948 q 244 895 266 937 q 195 739 224 855 l 195 736 q 197 730 195 733 q 202 727 199 728 l 205 726 m 498 532 q 505 535 502 532 q 508 542 508 538 l 505 762 q 502 769 505 766 q 495 772 499 772 q 488 769 491 772 q 486 763 486 766 l 488 542 q 491 535 488 538 q 498 532 494 532 m 182 637 q 188 640 184 637 q 191 645 191 642 l 203 694 q 200 701 203 698 q 193 703 197 703 q 184 696 186 702 l 172 650 l 172 648 q 174 642 172 644 q 179 638 176 639 l 182 637 m 497 440 q 504 443 501 440 q 507 450 507 446 q 507 473 507 463 q 508 497 507 482 q 505 504 508 501 q 498 507 502 507 q 491 504 494 507 q 488 497 488 501 l 488 449 q 490 443 488 446 q 497 440 493 440 m 289 390 l 363 391 q 370 394 368 391 q 373 400 373 397 l 373 401 q 371 408 373 406 q 364 411 368 411 l 363 411 q 337 411 349 411 q 314 410 326 410 q 289 410 303 410 q 282 407 285 410 q 279 399 279 404 q 282 393 279 395 q 289 390 285 390 z "},"5":{"ha":664,"x_min":56,"x_max":609,"o":"m 312 -1 q 219 17 261 -1 q 146 60 177 34 q 98 114 115 86 q 72 166 81 142 q 60 207 63 191 q 56 223 56 223 q 56 237 56 230 q 80 302 56 274 q 142 336 104 330 l 155 337 q 220 313 192 337 q 254 250 248 288 q 275 212 258 224 q 316 199 291 199 q 382 245 355 199 q 409 367 409 292 q 398 426 409 397 q 368 475 388 455 q 321 494 348 494 l 317 494 q 286 487 302 494 q 258 466 270 480 q 177 425 223 425 q 142 432 159 425 q 96 469 113 444 q 79 525 79 494 l 79 536 l 118 886 q 152 949 123 924 q 217 974 180 974 l 482 974 q 553 945 524 974 q 582 874 582 916 q 553 804 582 833 q 482 775 524 775 l 306 775 l 296 690 q 305 692 301 691 q 332 694 317 694 q 447 666 393 694 q 537 591 501 637 q 590 487 573 545 q 608 366 608 430 q 541 128 609 238 q 446 37 506 74 q 312 -1 387 -1 m 145 756 q 153 759 149 756 q 156 766 156 761 q 182 890 164 857 q 250 926 200 924 q 257 928 254 926 q 260 935 260 931 q 257 942 260 939 q 250 945 254 945 l 249 945 q 165 901 190 943 q 136 767 144 859 l 136 766 q 139 760 136 762 q 145 756 142 757 m 136 659 q 143 662 140 659 q 146 668 146 664 l 151 716 q 148 723 151 720 q 140 726 145 726 q 134 723 137 726 q 131 717 131 720 l 126 669 q 129 663 126 665 q 135 659 132 660 l 136 659 m 390 185 q 397 189 395 185 q 449 298 439 235 l 450 300 q 447 307 450 304 q 439 310 444 310 q 433 307 435 309 q 429 302 430 305 q 384 202 418 242 q 381 195 381 199 q 383 188 381 191 q 390 185 387 185 m 86 234 q 93 237 90 234 q 96 244 96 240 q 100 264 96 255 q 111 280 103 273 q 115 288 115 283 q 112 295 115 292 q 104 298 109 298 l 104 298 q 98 296 101 298 q 81 272 85 286 q 77 244 77 258 l 77 243 q 80 237 77 239 q 86 234 83 234 z "},"6":{"ha":642,"x_min":56,"x_max":586,"o":"m 322 -1 q 170 51 229 -1 q 83 193 111 102 q 56 404 56 285 q 79 582 56 499 q 137 732 103 665 q 206 847 172 799 q 264 921 240 895 q 288 947 288 947 q 357 975 318 975 q 429 942 402 972 q 456 874 456 912 q 448 836 456 854 q 423 802 440 817 q 403 780 423 802 q 356 717 383 758 q 302 623 328 677 q 317 624 309 624 q 436 595 382 624 q 524 522 490 567 q 571 426 557 477 q 586 323 586 375 q 573 218 586 271 q 530 117 560 165 q 445 34 499 68 q 322 -1 390 -1 m 195 746 q 205 751 201 746 q 287 873 238 814 q 332 916 310 900 q 363 929 352 929 l 366 929 q 373 931 370 929 q 376 938 376 934 l 376 939 q 373 946 376 943 q 367 949 371 949 q 366 949 366 949 q 364 949 365 949 q 319 932 342 949 q 271 886 296 914 q 187 761 222 825 l 186 756 q 191 747 186 750 q 195 746 193 746 m 157 662 q 167 669 164 662 q 184 713 174 690 l 184 716 q 181 724 184 721 q 174 727 178 727 q 165 720 168 726 q 159 705 162 713 q 149 675 153 690 l 148 672 q 155 663 148 666 l 157 662 m 417 560 q 426 565 422 560 q 427 570 427 568 q 423 578 427 575 q 330 607 385 604 l 329 607 q 322 604 324 606 q 319 597 319 601 q 322 591 319 593 q 329 587 324 588 q 375 579 353 586 q 412 562 398 572 q 417 560 414 560 m 322 199 q 360 218 346 199 q 381 263 374 237 q 387 312 387 290 q 381 360 387 334 q 361 406 375 387 q 324 425 348 425 q 287 406 300 425 q 267 360 273 387 q 261 312 261 333 q 267 264 261 290 q 285 218 272 237 q 322 199 298 199 m 374 170 q 382 174 378 170 q 429 285 421 220 l 429 287 q 427 294 429 291 q 420 296 424 296 q 410 288 413 296 q 367 187 401 229 q 364 180 364 184 q 368 173 364 176 q 374 170 371 170 z "},"7":{"ha":607,"x_min":56,"x_max":551,"o":"m 218 -1 q 190 3 204 -1 q 138 40 157 14 q 119 98 119 66 q 124 129 119 114 l 210 414 q 149 448 172 420 q 125 512 125 475 l 125 519 q 156 584 129 558 q 223 612 184 610 l 270 612 l 318 772 l 156 773 q 86 802 115 773 q 56 872 56 831 l 56 873 q 86 944 58 916 q 155 972 115 972 l 452 970 q 524 939 496 968 q 551 870 551 910 q 547 842 551 856 l 475 606 q 515 569 501 592 q 530 518 530 545 q 527 494 530 507 q 431 418 506 423 l 418 417 l 314 71 q 277 19 304 38 q 218 -1 251 -1 m 172 937 l 187 937 q 201 938 195 938 q 210 938 208 938 l 212 938 q 218 940 216 938 q 222 946 221 942 l 222 947 q 219 954 222 951 q 213 958 217 957 l 203 958 q 186 957 195 958 l 163 957 q 157 955 159 957 q 153 948 154 952 l 153 947 q 156 940 153 943 q 162 937 158 937 q 172 937 166 937 m 100 824 l 103 825 q 108 828 106 825 q 110 834 110 831 l 109 837 q 105 864 105 850 q 107 882 105 873 q 134 924 112 907 q 138 932 138 928 q 135 939 138 936 q 128 942 133 942 q 125 942 127 942 q 122 940 123 941 q 87 887 94 918 q 85 865 85 876 q 90 831 85 847 q 94 826 91 828 q 100 824 97 824 m 159 528 q 165 530 162 528 q 168 535 168 532 q 189 568 172 557 q 194 577 194 572 q 191 584 194 581 q 184 587 189 587 q 182 587 183 587 q 179 586 180 587 q 158 565 165 578 q 149 539 151 552 l 149 536 q 151 531 149 533 q 156 528 153 528 l 159 528 m 188 195 q 194 196 191 195 q 197 201 197 198 l 245 382 q 242 389 245 387 q 235 393 239 392 l 234 393 q 229 391 231 393 q 225 385 226 389 l 178 207 l 178 204 q 180 198 178 201 q 185 195 182 195 l 188 195 z "},"8":{"ha":642,"x_min":56,"x_max":586,"o":"m 312 0 l 305 0 q 179 41 235 3 q 89 141 123 79 q 56 279 56 204 q 75 388 56 337 q 123 476 94 438 q 172 528 147 505 l 151 552 q 102 631 122 586 q 82 730 82 676 l 82 734 q 98 821 82 778 q 146 900 113 865 q 230 954 181 936 q 333 972 279 972 q 454 938 401 972 q 536 853 507 905 q 567 745 566 802 q 566 741 567 743 q 543 634 564 682 q 492 549 522 586 q 475 531 484 540 q 470 525 473 528 q 517 472 494 501 q 566 387 546 435 q 586 282 586 338 q 560 167 586 219 q 494 78 534 115 q 411 21 457 42 q 312 0 366 0 m 155 836 q 163 840 159 836 q 286 924 208 904 q 291 928 290 926 q 293 935 293 931 q 291 941 293 938 q 283 944 288 944 q 282 944 283 944 q 281 943 281 944 q 146 851 196 922 q 145 846 145 848 q 149 837 145 840 q 155 836 152 836 m 116 755 q 121 757 119 755 q 125 762 124 759 q 144 805 133 783 l 144 809 q 142 816 144 813 q 135 819 140 819 q 125 813 129 819 q 106 769 115 791 l 106 766 q 107 760 106 763 q 113 756 109 758 l 116 755 m 393 692 q 401 698 398 692 q 412 739 412 717 q 404 772 412 755 q 395 779 401 779 l 394 779 q 387 775 390 778 q 385 768 385 772 l 386 764 q 391 739 391 752 q 384 707 391 722 q 382 703 382 705 q 388 694 382 697 l 393 692 m 322 660 q 354 693 340 674 q 368 741 368 712 q 356 764 368 754 q 324 773 345 773 q 293 764 304 773 q 281 741 281 754 q 292 695 281 713 q 322 660 304 676 m 109 345 q 117 353 115 345 q 201 475 136 429 q 205 484 205 479 q 202 491 205 488 q 195 494 200 494 l 195 494 q 189 492 192 494 q 98 357 118 441 l 98 355 q 106 345 98 348 l 109 345 m 321 199 q 366 223 345 200 q 387 282 387 245 q 371 335 387 309 q 319 394 355 360 q 270 340 286 366 q 254 279 254 314 q 276 219 254 239 q 321 199 297 199 m 405 224 q 415 231 411 224 q 425 279 425 254 q 417 323 425 302 q 414 327 416 326 q 408 329 412 329 l 408 329 q 401 326 404 329 q 398 319 398 323 l 399 316 q 404 280 404 298 q 397 238 404 257 l 395 234 q 397 229 395 231 q 401 225 399 227 l 405 224 z "},"9":{"ha":643,"x_min":56,"x_max":587,"o":"m 295 -5 l 294 -5 q 222 26 250 -5 q 195 96 195 58 q 202 133 195 115 q 226 168 210 152 q 245 190 226 168 q 292 253 265 212 q 344 348 319 293 q 329 347 337 347 l 325 347 q 208 374 262 347 q 121 446 155 401 q 72 540 87 490 q 56 643 56 591 l 56 652 q 68 752 56 702 q 108 850 80 803 q 192 933 138 899 q 314 970 245 968 l 319 970 q 470 920 412 970 q 557 780 528 869 q 587 571 586 690 l 587 562 q 565 386 587 468 q 509 238 542 304 q 443 124 476 172 q 387 50 410 76 q 364 24 364 24 q 295 -5 335 -3 m 221 672 q 227 675 224 672 q 231 681 230 677 q 272 783 239 741 q 275 789 275 785 q 271 797 275 793 q 264 800 269 800 q 257 795 260 800 q 211 684 219 748 l 211 682 q 214 675 211 678 q 221 672 217 672 m 317 363 q 324 367 321 363 q 326 373 326 370 q 324 380 326 377 q 317 383 321 382 q 270 390 293 384 q 233 407 248 397 q 228 408 231 408 q 220 404 223 408 q 218 399 218 401 q 222 390 218 393 q 316 363 261 366 l 317 363 m 319 545 q 355 565 342 547 q 374 609 369 583 q 380 657 380 635 l 380 660 q 374 708 380 682 q 355 753 368 734 q 318 772 342 772 l 317 772 q 280 752 294 770 q 260 709 267 734 q 254 661 254 683 l 254 658 q 261 609 254 635 q 281 564 267 583 q 318 545 295 545 l 319 545 m 288 20 q 332 39 310 20 q 379 85 355 57 q 461 212 428 147 l 463 217 q 457 226 463 222 l 453 227 q 444 221 447 227 q 363 98 411 158 q 319 55 341 71 q 288 41 299 41 l 286 41 q 279 38 282 41 q 275 31 276 35 q 278 24 275 27 q 285 21 280 21 q 286 20 286 20 q 288 20 287 20 m 474 246 q 483 253 480 246 q 499 298 492 275 l 500 300 q 492 311 500 307 l 490 311 q 480 304 483 311 q 464 260 473 282 l 463 256 q 466 249 463 252 q 473 246 469 246 l 474 246 z "},"\u0000":{"ha":0,"x_min":0,"x_max":0,"o":""},"\u001d":{"ha":0,"x_min":0,"x_max":0,"o":""}," ":{"ha":271,"x_min":0,"x_max":0,"o":""}," ":{"ha":271,"x_min":0,"x_max":0,"o":""},"!":{"ha":311,"x_min":56,"x_max":254,"o":"m 155 263 q 85 292 113 263 q 56 363 56 321 l 56 877 q 84 947 56 919 q 153 977 111 976 q 225 948 197 977 q 254 877 254 920 l 254 363 q 225 292 254 321 q 155 263 197 263 m 91 636 q 100 646 100 636 l 100 866 q 90 876 100 876 q 81 866 81 876 l 81 646 q 91 636 81 636 m 89 545 q 96 548 93 545 q 99 564 99 551 l 100 602 q 90 612 100 612 q 83 609 86 612 q 79 555 80 606 q 89 545 79 545 m 155 0 q 85 32 114 0 q 56 111 56 64 q 85 188 56 156 q 155 220 114 220 q 225 188 196 220 q 254 111 254 156 q 225 32 254 64 q 155 0 196 0 m 81 113 q 91 120 88 113 q 110 162 100 149 q 112 168 112 165 q 102 178 112 178 q 81 151 92 176 q 71 123 71 127 q 73 119 71 121 q 81 113 76 113 z "},"\"":{"ha":507,"x_min":56,"x_max":452,"o":"m 139 659 q 80 683 104 659 q 56 741 56 707 l 56 936 q 80 994 56 970 q 138 1019 103 1017 l 139 1019 q 198 994 174 1019 q 222 936 222 970 l 222 741 q 198 683 222 707 q 139 659 174 659 m 369 659 q 310 683 334 659 q 286 741 286 707 l 286 936 q 310 994 286 970 q 368 1019 333 1017 l 369 1019 q 428 994 404 1019 q 452 936 452 970 l 452 741 q 428 683 452 707 q 369 659 404 659 z "},"#":{"ha":1136,"x_min":56,"x_max":1080,"o":"m 550 -6 q 511 2 530 -6 q 466 40 482 15 q 450 94 450 65 q 459 134 450 114 l 510 250 l 412 250 l 327 55 q 290 10 315 26 q 235 -6 264 -6 q 196 2 216 -6 q 152 40 168 15 q 136 94 136 65 q 144 134 136 114 l 195 250 l 155 250 q 85 279 114 250 q 56 349 56 309 q 85 420 56 391 q 155 449 114 449 l 281 449 l 320 539 l 268 539 q 197 568 227 539 q 168 638 168 597 q 197 709 168 680 q 268 738 227 738 l 406 738 l 484 918 q 521 962 496 945 q 576 979 546 979 l 576 979 q 648 949 620 979 q 675 880 675 919 q 667 838 675 859 l 623 738 l 721 738 l 799 918 q 836 962 811 945 q 890 979 861 979 l 891 979 q 962 949 934 979 q 990 880 990 919 q 981 838 990 859 l 938 738 l 981 738 q 1051 709 1022 738 q 1080 638 1080 680 q 1051 568 1080 597 q 981 539 1022 539 l 852 539 l 812 449 l 873 449 q 943 420 914 449 q 972 349 972 391 q 943 279 972 309 q 873 250 914 250 l 726 250 l 642 55 q 604 10 629 26 q 550 -6 579 -6 m 206 670 q 214 675 211 670 q 245 698 226 694 q 252 701 250 698 q 255 708 255 704 q 252 714 254 711 q 245 718 249 717 l 243 718 q 216 706 227 715 q 198 686 205 696 q 196 680 196 683 q 201 671 196 675 q 206 670 203 670 m 103 382 q 111 387 108 382 q 143 410 123 406 q 149 413 146 410 q 152 420 152 416 q 149 427 152 424 q 142 430 146 430 l 140 430 q 113 418 124 427 q 95 398 102 409 q 93 393 93 395 q 98 384 93 387 q 103 382 100 382 m 516 911 q 524 916 521 911 q 556 939 536 935 q 562 942 559 939 q 565 949 565 945 q 562 956 564 953 q 555 959 559 958 l 553 959 q 526 947 537 956 q 508 926 515 938 q 506 921 506 924 q 511 913 506 916 q 516 911 513 911 m 452 760 q 458 761 455 760 q 462 766 460 763 l 511 884 l 511 888 q 509 896 511 892 q 501 899 506 899 q 492 892 495 899 l 444 773 l 443 769 q 449 760 443 764 l 452 760 m 596 449 l 635 539 l 537 539 l 498 449 l 596 449 m 832 911 q 841 916 837 911 q 872 939 852 935 q 879 942 876 939 q 881 947 881 945 l 881 949 q 878 956 881 953 q 871 959 876 958 l 870 959 q 842 947 853 956 q 824 926 831 938 q 823 922 823 924 q 827 913 823 916 q 832 911 829 911 z "},"$":{"ha":659,"x_min":56,"x_max":603,"o":"m 330 -140 q 259 -112 288 -140 q 230 -43 230 -83 l 231 15 q 106 106 144 50 q 76 158 86 133 q 61 199 65 182 q 58 215 58 215 q 56 233 56 224 q 79 296 56 269 q 139 332 102 324 q 155 333 147 333 q 219 310 191 333 q 254 248 247 286 q 280 209 259 221 q 330 197 302 197 q 384 216 363 197 q 404 262 404 235 q 378 330 404 304 q 288 400 349 361 q 272 410 280 405 q 159 498 216 442 q 103 581 125 532 q 81 688 81 630 q 104 810 81 755 q 165 903 127 865 q 231 951 196 933 l 230 1021 q 258 1089 230 1061 q 328 1119 286 1118 l 330 1119 q 400 1090 372 1119 q 429 1020 429 1061 l 429 958 q 516 901 482 935 q 567 839 551 867 q 584 811 584 811 q 591 772 591 792 q 575 718 591 743 q 530 680 559 692 q 492 673 511 673 q 437 689 463 673 q 400 735 412 706 q 397 742 400 735 q 386 756 393 748 q 368 771 379 765 q 340 778 356 778 q 296 758 313 778 q 279 699 279 737 q 284 665 279 680 q 302 635 289 650 q 396 567 332 607 q 400 564 398 566 q 463 521 430 545 q 528 462 496 496 q 581 375 559 426 q 603 264 603 325 q 577 150 603 203 q 511 64 551 98 q 429 16 472 33 l 429 -41 q 400 -111 429 -82 q 330 -140 371 -140 m 113 659 q 120 662 117 659 q 123 668 123 664 q 127 697 125 682 q 131 714 129 706 l 131 716 q 128 723 131 720 q 121 726 125 726 l 121 726 q 115 723 117 726 q 111 718 112 721 q 108 702 109 709 q 103 671 105 686 l 102 669 q 105 663 102 665 q 112 659 108 660 l 113 659 m 130 748 q 137 750 134 748 q 140 756 140 752 q 199 877 156 829 q 300 931 241 925 q 307 935 304 932 q 310 942 310 938 q 307 949 309 946 q 300 951 304 951 l 299 951 q 184 890 232 943 q 121 760 137 838 l 121 758 q 123 751 121 754 q 129 748 125 749 l 130 748 m 98 182 l 102 182 q 109 191 109 185 l 108 195 q 101 229 101 211 l 102 240 q 125 283 104 265 q 128 291 128 287 q 125 298 128 295 q 119 301 123 301 q 112 298 115 301 q 83 243 85 274 q 81 229 81 235 q 90 188 81 206 q 98 182 93 182 m 407 187 q 413 189 410 187 q 448 242 441 212 q 450 267 450 255 q 446 298 450 283 q 436 305 443 305 q 429 302 431 305 q 426 295 426 299 l 427 292 q 430 265 430 280 q 429 247 430 256 q 402 205 424 222 q 397 197 397 202 q 399 191 397 194 q 407 187 402 187 z "},"%":{"ha":882,"x_min":55,"x_max":825,"o":"m 677 242 q 674 241 676 242 q 668 235 672 239 q 648 188 654 222 l 647 176 q 655 138 647 152 q 660 130 658 132 q 662 128 661 128 q 665 130 663 128 q 671 135 667 131 q 691 182 684 149 l 692 195 q 684 233 692 219 q 679 240 681 238 q 677 242 677 242 m 202 726 q 204 726 203 726 q 207 728 205 726 q 211 732 208 730 q 231 780 225 747 q 232 793 232 787 q 224 830 232 817 q 220 837 222 835 q 218 840 218 839 q 215 838 217 840 q 208 832 213 837 q 196 814 202 826 q 189 785 191 802 q 188 772 188 779 q 195 734 188 749 q 199 729 197 731 q 201 726 200 727 l 201 726 l 202 726 m 155 -4 q 96 15 124 -4 q 65 51 76 30 q 55 95 55 72 q 75 155 55 126 l 644 930 q 725 972 676 972 l 727 972 q 814 916 787 968 q 825 873 825 895 q 804 812 825 841 l 235 37 q 199 6 220 17 q 155 -4 178 -4 m 661 -5 l 644 -3 q 580 24 607 3 q 537 76 553 46 q 515 173 515 121 q 517 205 515 189 q 571 326 527 277 q 619 361 591 347 q 679 374 646 374 q 695 374 687 374 q 759 346 732 368 q 802 294 786 324 q 825 198 825 250 q 822 164 825 181 q 768 45 812 94 q 721 9 748 23 q 661 -5 693 -5 m 201 593 l 184 594 q 120 622 147 600 q 78 673 94 644 q 55 770 55 718 q 57 803 55 787 q 112 923 66 874 q 159 958 132 945 q 219 972 187 972 q 235 971 227 972 q 299 943 272 965 q 342 892 326 922 q 365 794 365 846 q 363 762 365 778 q 308 642 353 691 q 261 607 288 621 q 201 593 233 593 z "},"&":{"ha":850,"x_min":56,"x_max":793,"o":"m 334 -18 q 194 17 257 -18 q 93 113 131 53 q 56 246 56 174 q 81 357 56 307 q 142 443 106 406 q 198 496 168 472 q 149 595 168 545 q 129 704 129 646 q 165 838 129 779 q 261 933 201 898 q 391 968 321 968 q 510 937 454 968 q 603 850 567 905 q 638 723 638 795 q 612 613 638 663 q 551 528 586 564 q 471 456 513 488 q 534 383 502 419 q 534 383 534 383 q 534 382 534 382 q 534 382 534 382 q 534 382 534 382 q 534 382 534 382 q 550 417 545 404 q 555 431 555 431 q 592 481 566 463 q 650 499 618 499 q 682 494 666 499 q 731 456 713 482 q 749 400 749 431 q 743 366 749 383 q 727 328 743 366 q 681 233 711 289 q 736 182 715 201 q 758 163 758 163 q 793 87 793 129 q 769 22 793 52 q 694 -13 735 -13 q 627 13 659 -13 q 608 30 627 13 q 559 75 589 47 q 460 8 515 35 q 334 -18 404 -18 m 174 743 q 180 745 177 743 q 184 750 182 747 q 202 793 191 771 l 203 797 q 200 804 203 801 q 193 807 197 807 q 188 806 191 807 q 184 802 185 804 q 165 757 174 779 l 164 753 q 166 748 164 751 q 171 744 168 745 l 174 743 m 109 304 q 119 311 116 304 q 210 429 142 386 q 214 437 214 432 q 212 444 214 441 q 205 447 210 447 q 201 446 202 447 q 199 446 200 446 q 100 317 125 399 l 99 313 q 101 308 99 311 q 106 304 103 305 l 109 304 m 213 823 q 221 828 218 823 q 343 912 266 892 q 349 916 347 913 q 351 922 351 919 q 349 929 351 926 q 341 932 346 932 l 338 932 q 205 839 254 909 q 203 833 203 836 q 208 825 203 829 q 213 823 210 823 m 334 180 q 418 217 376 180 q 315 333 367 271 q 306 325 311 329 q 288 309 296 316 q 261 272 269 287 q 254 246 254 258 q 264 218 254 233 q 292 192 274 203 q 334 180 309 180 m 357 620 q 406 664 387 644 q 432 699 425 685 q 439 723 439 713 q 424 759 439 749 q 391 769 408 769 q 348 751 368 769 q 328 704 328 734 q 335 672 328 695 q 357 620 342 650 m 450 681 q 460 686 456 681 q 469 726 469 705 q 462 760 469 743 q 458 765 460 764 q 452 766 456 766 q 446 763 448 766 q 443 756 443 760 l 444 752 q 450 726 450 740 q 442 695 450 709 q 441 690 441 692 q 446 682 441 685 q 450 681 448 681 m 594 436 q 602 440 599 436 q 641 461 620 461 q 648 464 645 461 q 651 471 651 467 q 648 478 651 475 q 642 481 646 481 l 640 481 q 587 452 608 479 q 585 446 585 449 q 588 438 585 441 q 594 436 591 436 z "},"'":{"ha":278,"x_min":56,"x_max":222,"o":"m 139 659 q 80 683 104 659 q 56 741 56 707 l 56 936 q 80 994 56 970 q 138 1019 103 1017 l 139 1019 q 198 994 174 1019 q 222 936 222 970 l 222 741 q 198 683 222 707 q 139 659 174 659 z "},"(":{"ha":469,"x_min":56,"x_max":414,"o":"m 314 -132 q 285 -128 300 -132 q 209 -87 241 -115 q 157 -24 178 -59 q 95 125 116 42 q 65 294 75 204 q 56 477 56 384 l 56 497 q 102 866 58 699 q 162 1013 123 947 q 211 1074 182 1046 q 285 1115 241 1101 q 311 1119 298 1119 l 314 1119 q 378 1095 351 1119 q 412 1034 406 1072 q 413 1020 413 1027 q 395 962 413 988 q 345 925 376 936 l 341 922 q 331 908 337 918 q 294 813 313 878 q 254 495 257 679 l 254 477 q 288 176 254 311 q 325 82 305 112 q 335 68 331 72 q 341 63 340 64 l 340 63 q 394 27 374 54 q 414 -33 414 1 q 410 -60 414 -46 q 373 -113 399 -94 q 314 -132 346 -132 z "},")":{"ha":469,"x_min":56,"x_max":414,"o":"m 155 -132 q 97 -113 123 -132 q 60 -60 71 -94 q 56 -33 56 -46 q 76 27 56 1 q 130 63 96 54 l 129 63 q 135 68 130 64 q 145 82 139 73 q 182 176 164 112 q 215 477 215 310 l 215 495 q 176 813 212 679 q 139 908 158 878 q 130 922 133 918 q 127 924 127 923 l 125 925 q 75 962 94 936 q 56 1020 56 988 l 57 1033 q 91 1095 63 1070 q 155 1119 118 1119 q 184 1115 171 1119 q 258 1074 229 1101 q 308 1013 288 1046 q 368 866 347 947 q 414 497 412 699 l 414 477 q 405 294 414 384 q 374 125 395 204 q 313 -24 354 42 q 260 -87 292 -59 q 184 -128 229 -115 q 155 -132 170 -132 z "},"*":{"ha":358,"x_min":56,"x_max":303,"o":"m 173 749 l 172 749 q 144 762 155 751 q 133 790 133 774 l 133 806 q 128 802 130 804 q 115 793 121 796 q 98 790 109 790 q 64 807 78 790 q 56 831 56 819 q 73 865 56 851 l 108 890 l 73 915 q 56 949 56 929 q 58 962 56 956 q 97 990 71 990 l 98 990 q 121 983 112 990 l 142 968 l 143 991 q 156 1020 144 1008 q 184 1031 168 1031 l 186 1031 q 215 1018 203 1029 q 226 989 226 1006 l 225 974 q 232 979 229 977 q 243 987 238 985 q 260 990 249 990 l 262 990 q 301 961 289 990 q 303 949 303 955 q 285 915 303 929 l 250 890 l 285 865 q 302 831 302 851 q 294 807 302 819 q 261 790 280 790 q 237 798 248 790 l 216 812 l 215 789 q 202 761 214 772 q 173 749 190 749 z "},"+":{"ha":733,"x_min":56,"x_max":677,"o":"m 366 170 q 296 198 326 170 q 267 268 267 227 l 267 381 l 155 381 q 85 410 114 381 q 56 481 56 439 q 84 551 56 522 q 154 580 113 580 l 267 580 l 267 692 q 295 761 267 732 q 365 791 323 790 l 366 791 q 437 762 408 791 q 466 692 466 733 l 466 580 l 579 580 q 649 551 620 580 q 677 481 677 522 q 648 410 677 439 q 578 381 619 381 l 466 381 l 466 269 q 437 199 466 228 q 366 170 408 170 m 96 507 q 101 509 98 507 q 105 513 104 511 q 132 542 113 535 q 139 551 139 545 q 136 558 139 555 q 129 562 134 562 q 127 561 128 561 q 126 561 127 561 q 101 545 111 555 q 87 522 92 534 l 86 517 q 92 508 86 511 l 96 507 m 303 715 q 312 722 309 715 q 338 749 319 742 q 346 759 346 753 q 343 766 346 763 q 336 769 341 769 l 336 769 q 334 769 335 769 q 333 768 334 769 q 308 753 317 764 q 294 729 298 742 l 293 725 q 299 716 293 720 l 303 715 z "},",":{"ha":313,"x_min":56,"x_max":256,"o":"m 132 -112 l 130 -112 q 85 -96 104 -112 q 58 -54 65 -80 q 56 -37 56 -45 q 98 30 56 5 q 106 60 103 41 l 106 77 q 72 140 72 102 q 75 161 72 151 q 102 200 83 185 q 146 214 121 214 l 147 214 q 218 185 186 214 q 248 134 242 160 q 256 77 256 105 q 254 43 256 60 q 230 -43 250 -2 q 199 -85 220 -64 q 170 -104 188 -96 q 132 -112 153 -112 z "},"-":{"ha":699,"x_min":56,"x_max":642,"o":"m 543 387 l 155 387 q 85 416 114 387 q 56 486 56 445 q 84 556 56 527 q 154 585 113 585 l 544 585 q 613 556 585 585 q 642 486 642 527 q 613 416 642 445 q 543 387 584 387 m 102 509 q 112 515 109 509 q 138 543 119 536 q 146 553 146 547 q 143 559 146 556 q 136 562 141 562 l 133 562 q 108 546 117 557 q 94 523 98 535 l 92 518 q 98 509 92 513 l 102 509 z "},"­":{"ha":699,"x_min":56,"x_max":642,"o":"m 543 387 l 155 387 q 85 416 114 387 q 56 486 56 445 q 84 556 56 527 q 154 585 113 585 l 544 585 q 613 556 585 585 q 642 486 642 527 q 613 416 642 445 q 543 387 584 387 m 102 509 q 112 515 109 509 q 138 543 119 536 q 146 553 146 547 q 143 559 146 556 q 136 562 141 562 l 133 562 q 108 546 117 557 q 94 523 98 535 l 92 518 q 98 509 92 513 l 102 509 z "},".":{"ha":311,"x_min":56,"x_max":254,"o":"m 155 221 q 225 189 196 221 q 254 111 254 156 q 225 32 254 64 q 155 0 196 0 q 85 32 114 0 q 56 111 56 64 q 85 189 56 156 q 155 221 114 221 z "},"/":{"ha":847,"x_min":56,"x_max":791,"o":"m 155 -62 q 103 -47 128 -62 q 68 -11 80 -33 q 56 37 56 12 q 71 90 56 64 l 606 959 q 691 1007 639 1007 l 695 1007 q 779 954 751 1003 q 791 908 791 932 q 775 854 791 880 l 240 -14 q 203 -50 226 -37 q 155 -62 180 -62 z "},":":{"ha":311,"x_min":56,"x_max":254,"o":"m 155 481 q 85 513 114 481 q 56 591 56 546 q 85 670 56 637 q 155 702 114 702 q 225 670 196 702 q 254 591 254 637 q 225 513 254 546 q 155 481 196 481 m 155 292 q 225 260 196 292 q 254 182 254 227 q 225 103 254 136 q 155 71 196 71 q 85 103 114 71 q 56 182 56 136 q 85 260 56 227 q 155 292 114 292 z "},";":{"ha":313,"x_min":56,"x_max":257,"o":"m 157 485 q 87 517 116 485 q 58 595 58 549 q 87 673 58 641 q 157 705 116 705 q 228 673 199 705 q 257 595 257 641 q 228 517 257 549 q 157 485 199 485 m 132 -34 l 130 -34 q 85 -18 104 -34 q 58 24 65 -2 q 56 41 56 33 q 98 108 56 83 q 106 138 103 119 l 107 145 l 106 155 q 72 218 72 180 q 75 239 72 229 q 102 278 83 263 q 146 292 122 292 l 148 292 q 218 263 186 292 q 248 212 242 238 q 257 155 257 182 q 254 121 257 138 q 230 35 250 76 q 199 -7 220 14 q 170 -26 188 -18 q 132 -34 153 -34 z "},";":{"ha":313,"x_min":56,"x_max":257,"o":"m 157 485 q 87 517 116 485 q 58 595 58 549 q 87 673 58 641 q 157 705 116 705 q 228 673 199 705 q 257 595 257 641 q 228 517 257 549 q 157 485 199 485 m 132 -34 l 130 -34 q 85 -18 104 -34 q 58 24 65 -2 q 56 41 56 33 q 98 108 56 83 q 106 138 103 119 l 107 145 l 106 155 q 72 218 72 180 q 75 239 72 229 q 102 278 83 263 q 146 292 122 292 l 148 292 q 218 263 186 292 q 248 212 242 238 q 257 155 257 182 q 254 121 257 138 q 230 35 250 76 q 199 -7 220 14 q 170 -26 188 -18 q 132 -34 153 -34 z "},"<":{"ha":722,"x_min":56,"x_max":667,"o":"m 566 166 q 521 178 543 166 l 110 387 q 56 476 56 419 q 110 564 56 532 l 521 774 q 566 785 542 784 q 628 764 600 785 q 664 709 655 743 q 667 686 667 697 q 652 633 667 657 q 611 596 637 609 l 374 476 l 611 355 q 652 318 637 342 q 667 266 667 294 q 655 221 667 243 q 618 180 642 195 q 566 166 594 166 z "},"=":{"ha":851,"x_min":56,"x_max":795,"o":"m 696 511 l 155 511 q 85 540 114 511 q 56 610 56 569 q 84 680 56 651 q 154 709 113 709 l 697 709 q 766 680 737 709 q 795 610 795 651 q 766 540 795 569 q 696 511 736 511 m 109 633 q 119 639 115 633 q 145 667 126 661 q 153 677 153 671 q 150 683 153 680 q 143 686 148 686 l 140 686 q 115 670 124 681 q 100 647 105 659 l 99 642 q 105 633 99 637 l 109 633 m 696 170 l 155 170 q 85 199 114 170 q 56 270 56 229 q 84 340 56 311 q 154 369 113 369 l 697 369 q 766 340 737 369 q 795 270 795 311 q 766 199 795 229 q 696 170 736 170 m 109 292 q 119 298 115 292 q 145 327 126 320 q 153 336 153 330 q 150 343 153 340 q 143 346 148 346 l 140 346 q 115 330 124 340 q 100 307 105 319 l 99 302 q 105 293 99 296 l 109 292 z "},">":{"ha":722,"x_min":56,"x_max":667,"o":"m 156 166 q 104 180 129 166 q 66 221 80 195 q 56 265 56 243 q 70 317 56 293 q 111 355 85 342 l 348 476 l 111 596 q 70 633 85 609 q 56 686 56 658 q 58 707 56 696 q 93 763 66 741 q 153 785 119 784 q 201 774 179 785 l 612 564 q 667 476 667 532 q 612 387 667 419 l 201 178 q 156 166 179 166 z "},"?":{"ha":604,"x_min":56,"x_max":547,"o":"m 249 264 q 178 294 207 264 q 149 366 150 323 q 170 481 149 430 q 219 573 190 533 q 275 643 248 614 q 331 711 313 686 q 349 752 349 736 q 337 772 349 764 q 305 780 325 780 q 264 773 278 780 l 254 766 q 262 728 262 747 q 254 690 262 709 q 199 636 238 653 q 162 629 180 629 q 121 638 141 629 q 69 694 85 654 q 56 766 56 731 q 68 831 56 800 q 159 935 95 895 q 305 975 223 975 q 431 941 376 975 q 516 855 486 907 q 547 747 547 803 q 488 585 547 659 q 422 510 468 559 q 367 440 387 472 q 348 366 348 409 q 319 294 347 323 q 249 264 290 264 m 108 827 q 117 832 115 827 q 251 933 162 911 q 259 943 259 935 q 250 953 259 951 l 247 952 q 100 842 149 928 q 98 836 98 839 l 98 834 q 108 827 101 827 m 86 740 q 96 750 96 740 l 96 762 q 100 796 96 780 l 102 800 q 92 809 102 809 q 82 802 85 809 q 76 760 76 780 q 79 743 76 745 q 86 740 82 740 m 229 507 q 235 512 233 509 q 352 662 277 584 q 372 686 372 683 q 361 696 372 696 q 354 694 357 696 q 337 675 346 684 q 218 522 260 593 q 216 517 216 519 q 227 507 216 507 l 229 507 m 246 0 q 176 32 205 0 q 146 111 146 64 q 176 188 146 156 q 246 220 205 220 q 316 188 288 220 q 345 111 345 156 q 316 32 345 64 q 246 0 288 0 m 170 113 q 180 120 178 113 q 199 162 189 149 q 201 169 201 165 q 191 178 201 177 q 169 150 180 177 q 160 123 160 126 q 161 118 160 121 q 166 114 163 115 q 170 113 169 113 z "},"@":{"ha":957,"x_min":56,"x_max":901,"o":"m 450 -5 q 275 39 352 -5 q 149 154 198 83 q 78 310 100 224 q 56 487 56 396 q 91 683 56 593 q 185 839 125 772 q 323 941 245 905 q 486 978 400 978 q 696 926 604 978 q 843 787 789 874 q 901 593 897 701 l 901 575 q 858 371 901 461 q 802 291 838 325 q 761 262 785 274 q 709 251 737 251 q 625 283 661 251 q 590 326 604 302 q 587 318 589 321 q 585 313 586 315 q 540 247 569 277 q 502 221 524 232 q 454 211 480 211 q 372 237 409 211 q 314 300 336 262 q 271 479 271 376 q 321 682 271 599 q 388 750 347 724 q 477 776 429 776 q 524 768 503 776 q 563 747 546 760 q 595 755 579 755 q 641 736 621 755 q 661 689 661 718 l 661 663 q 663 597 661 638 q 670 512 665 557 q 698 404 680 444 q 709 386 705 389 l 711 387 q 738 427 723 398 q 768 576 768 490 l 768 589 q 732 722 766 664 q 636 812 699 779 q 486 846 574 846 q 378 821 431 846 q 282 749 325 796 q 214 636 239 703 q 188 487 188 570 q 258 229 188 338 q 337 155 291 181 q 450 128 382 128 q 542 137 504 128 q 607 158 581 145 q 650 183 633 170 q 691 197 669 197 q 743 172 721 197 q 757 131 757 153 q 730 79 757 101 q 662 38 703 57 q 569 7 622 19 q 450 -5 516 -5 m 450 345 q 465 370 455 351 q 496 467 484 410 q 517 582 509 524 q 503 618 515 593 q 489 638 495 633 q 477 644 484 644 q 456 637 466 644 q 434 612 446 631 q 413 559 422 593 q 404 479 404 525 q 413 405 404 433 q 432 361 422 376 q 450 345 443 347 z "},"A":{"ha":737,"x_min":56,"x_max":681,"o":"m 582 0 q 518 24 546 0 q 483 86 490 47 l 452 264 l 292 261 q 282 217 287 239 q 252 81 267 151 q 218 23 245 45 q 155 1 190 1 q 134 3 145 1 q 77 38 99 11 q 56 98 56 64 l 58 121 q 281 899 153 587 q 307 943 289 924 l 313 947 q 379 973 342 973 q 420 965 400 973 q 461 940 446 954 q 497 893 486 916 q 537 791 520 847 q 606 515 574 670 q 659 238 638 360 q 679 117 679 117 l 681 99 q 658 36 681 63 q 597 1 635 9 l 582 0 m 250 736 q 256 738 253 736 q 260 743 258 740 q 267 770 263 756 q 297 861 280 818 q 358 936 321 919 q 366 946 366 940 q 363 952 366 949 q 357 956 361 956 l 351 956 q 309 922 326 945 q 279 869 292 899 q 248 774 260 822 q 240 749 243 761 l 240 746 q 247 736 240 741 l 250 736 m 225 648 q 235 655 232 648 l 247 700 l 248 703 q 245 710 248 707 q 237 713 242 713 q 231 711 234 713 q 228 705 229 709 l 215 661 l 215 658 q 222 648 215 651 l 225 648 m 343 461 l 414 463 q 384 597 399 532 l 343 461 m 443 488 q 450 497 450 490 l 431 589 q 420 597 427 597 q 411 587 412 597 l 431 496 q 434 489 431 492 q 441 487 437 487 l 443 488 z "},"B":{"ha":627,"x_min":56,"x_max":570,"o":"m 174 0 q 103 29 134 0 q 73 100 73 58 l 73 104 q 60 282 64 179 q 56 494 56 385 q 59 698 56 603 q 73 859 62 793 q 96 921 75 895 q 150 955 118 947 q 275 974 208 974 q 397 952 336 974 q 478 900 441 935 q 536 815 514 865 q 559 708 559 766 q 540 598 559 648 q 490 512 521 549 q 570 315 570 429 q 551 203 570 255 q 498 115 532 152 q 427 57 465 78 q 352 24 389 35 q 264 5 305 9 q 197 1 223 1 l 174 0 m 96 736 q 102 739 100 736 q 105 745 105 741 q 106 766 106 756 q 120 877 105 833 q 202 932 136 921 q 209 936 206 932 q 211 942 211 939 q 208 949 210 946 q 201 951 205 951 l 199 951 q 104 886 122 938 q 86 758 85 835 q 85 746 85 752 q 88 739 85 742 q 95 736 91 736 l 96 736 m 256 590 q 307 608 283 596 q 346 644 331 621 q 360 707 360 667 q 338 759 360 744 q 282 774 317 774 l 264 774 q 256 590 258 699 m 90 646 q 97 649 94 646 q 101 656 100 652 l 104 704 q 101 711 104 708 q 94 713 98 713 q 87 711 90 713 q 84 704 84 708 l 81 657 q 83 650 81 653 q 90 646 86 647 m 331 576 l 334 576 q 382 617 363 587 q 400 677 400 648 q 397 684 400 681 q 390 687 394 687 q 383 684 386 687 q 380 677 380 681 q 365 628 380 653 q 328 595 350 603 q 323 591 325 594 q 321 585 321 589 q 331 576 321 576 m 263 205 q 349 247 320 216 q 365 271 359 256 q 371 315 371 286 q 349 368 371 352 q 294 383 328 383 l 292 383 q 256 380 275 383 q 263 205 258 283 m 337 200 q 388 239 372 208 q 406 302 405 271 q 404 308 406 306 q 397 311 401 311 q 390 308 393 311 q 387 301 387 305 q 371 252 387 277 q 334 220 356 227 q 329 216 331 218 q 327 210 327 213 q 337 200 328 200 z "},"C":{"ha":644,"x_min":56,"x_max":589,"o":"m 355 0 q 219 33 280 0 q 121 127 159 66 q 72 267 86 189 q 56 447 58 345 l 56 499 q 66 662 56 587 q 103 800 77 736 q 202 921 135 873 q 351 969 269 969 q 440 949 400 969 q 509 902 481 930 q 552 845 537 873 q 579 770 573 802 q 586 738 586 738 l 587 726 q 562 660 587 688 q 498 627 536 632 l 488 626 q 421 651 449 626 q 388 717 393 677 q 369 759 384 747 q 341 770 355 770 q 312 760 325 770 q 286 722 298 750 q 255 451 255 644 q 268 305 255 361 q 293 229 280 250 q 314 200 303 210 q 340 191 325 191 q 366 203 355 191 q 382 228 377 214 q 388 262 387 245 q 389 287 389 279 l 389 302 q 413 368 389 340 q 481 400 437 396 l 489 400 q 557 373 530 400 q 588 307 585 347 q 589 284 588 307 q 586 235 589 265 q 572 171 583 205 q 549 115 564 144 q 507 59 534 85 q 355 0 444 0 m 119 733 q 125 735 123 733 q 129 741 128 737 q 199 862 149 817 q 309 913 250 907 q 315 917 313 914 q 318 922 318 919 l 318 924 q 315 930 318 928 q 308 933 312 933 l 307 933 q 186 877 240 926 q 110 745 132 827 l 109 743 q 117 733 109 736 l 119 733 m 100 644 q 107 647 104 644 q 110 652 110 649 q 116 686 113 669 q 118 699 117 692 l 118 701 q 115 708 118 705 q 109 711 113 711 q 102 708 105 711 q 99 703 100 706 q 90 655 94 679 l 90 654 q 93 648 90 650 q 99 644 95 645 l 100 644 m 416 314 q 422 316 419 314 q 425 321 425 318 q 448 353 430 342 q 454 362 454 357 q 451 369 454 366 q 444 372 449 372 q 442 372 443 372 q 439 371 441 372 q 417 351 425 363 q 406 326 410 339 l 406 323 q 413 314 406 317 l 416 314 z "},"D":{"ha":643,"x_min":56,"x_max":586,"o":"m 174 0 q 103 30 134 0 q 73 101 73 59 l 73 105 q 60 282 64 180 q 56 494 56 385 q 59 699 56 604 q 74 861 62 794 q 105 927 76 903 q 179 962 134 951 q 272 972 224 972 q 281 972 277 972 q 434 921 358 970 q 547 766 509 868 q 586 510 586 663 q 557 303 586 391 q 483 154 528 214 q 383 61 437 94 q 274 15 326 26 q 193 2 223 3 q 174 0 183 0 m 102 736 q 109 739 106 736 q 111 745 111 741 q 112 766 112 756 q 126 877 111 833 q 208 932 142 921 q 215 936 212 932 q 217 942 217 939 q 214 949 216 946 q 207 951 211 951 l 205 951 q 110 886 128 938 q 92 758 92 835 q 92 746 92 752 q 94 739 92 742 q 101 736 97 736 l 102 736 m 262 221 q 319 264 291 234 q 368 352 348 294 q 387 510 387 410 q 376 647 387 596 q 348 724 364 698 q 319 759 332 750 q 264 773 296 773 q 254 494 254 651 q 262 221 254 351 m 98 647 q 104 649 101 647 q 107 656 106 652 l 110 704 q 107 711 110 708 q 100 713 104 713 q 93 711 96 713 q 90 704 90 708 l 87 657 q 90 650 87 653 q 96 647 92 647 l 98 647 m 329 220 q 336 223 332 220 q 385 290 365 248 q 416 378 405 332 l 416 381 q 405 391 416 391 q 400 389 402 391 q 397 383 397 387 q 323 238 373 287 q 319 231 319 235 q 322 223 319 227 q 329 220 325 220 z "},"E":{"ha":606,"x_min":56,"x_max":550,"o":"m 259 -1 q 178 4 215 -1 q 174 5 176 5 q 129 20 156 7 q 93 51 113 28 q 69 106 74 73 l 70 105 q 56 448 56 250 q 61 681 56 568 q 73 860 65 793 l 73 858 q 84 898 75 878 q 109 932 94 918 q 161 960 140 957 q 201 967 183 966 q 238 968 218 968 q 258 969 247 969 q 330 968 291 969 q 446 966 380 966 l 448 966 q 518 938 489 966 q 547 867 547 909 q 518 797 547 826 q 448 768 489 768 l 446 768 q 326 769 374 768 q 266 770 292 770 q 259 557 261 684 l 420 559 q 489 532 460 559 q 519 462 517 504 l 519 460 q 490 390 519 420 q 420 361 461 361 l 258 358 q 262 198 258 270 q 341 199 296 198 q 449 201 394 201 l 450 201 q 521 172 492 201 q 550 102 550 143 q 521 32 550 61 q 450 3 492 3 l 449 3 q 351 1 401 3 q 259 -1 302 -1 m 117 732 q 124 735 121 732 q 127 742 127 738 q 127 762 127 752 q 142 874 127 830 q 224 928 157 918 q 230 932 228 929 q 233 939 233 935 q 229 946 232 943 q 222 948 227 948 l 220 948 q 125 883 143 935 q 107 752 106 830 q 107 743 107 747 q 110 736 107 739 q 117 732 113 733 m 113 644 q 119 646 117 644 q 122 653 122 649 l 125 701 q 122 707 125 704 q 116 710 119 710 l 115 710 q 109 707 111 710 q 106 701 106 705 q 104 672 104 684 q 102 654 103 664 q 105 647 102 650 q 112 644 108 644 l 113 644 m 345 526 l 420 528 q 427 530 424 528 q 429 536 429 533 l 429 538 q 427 545 429 542 q 420 547 424 547 l 345 546 q 338 543 341 546 q 335 536 335 541 q 338 529 335 532 q 345 526 341 526 m 522 110 l 524 111 q 530 114 528 111 q 532 120 532 117 l 532 123 q 496 169 522 151 q 441 186 469 186 q 434 183 437 186 q 431 176 431 180 q 442 165 433 165 l 444 165 q 485 152 463 165 q 512 117 506 138 q 516 112 513 114 q 522 110 519 110 z "},"F":{"ha":602,"x_min":56,"x_max":547,"o":"m 112 735 q 119 738 116 735 q 123 769 123 741 l 123 774 q 138 878 123 836 q 219 932 153 920 q 225 935 222 932 q 227 942 227 937 q 218 951 227 951 l 216 951 q 119 884 138 937 q 102 762 102 834 q 102 747 102 757 q 112 735 102 736 m 493 476 q 503 487 503 476 q 484 524 500 508 q 448 544 468 539 q 437 534 437 544 q 445 524 437 526 q 470 509 458 522 q 482 486 482 497 q 493 476 484 476 m 108 646 q 115 649 112 646 q 121 703 117 652 q 111 713 121 713 q 100 704 102 713 l 98 656 q 108 646 98 646 m 169 0 q 102 25 130 0 q 69 90 75 50 q 56 435 56 235 q 73 861 56 712 q 108 933 77 902 q 161 962 138 959 q 229 972 197 972 q 317 970 278 972 q 448 969 362 969 q 518 940 489 969 q 547 870 547 911 q 517 800 547 829 q 448 770 488 770 l 266 772 q 259 559 262 687 l 420 562 q 489 534 460 562 q 519 464 518 506 q 490 393 519 422 q 420 363 461 363 l 258 361 q 267 111 258 197 l 268 99 q 243 34 268 62 q 169 0 216 3 z "},"G":{"ha":673,"x_min":56,"x_max":616,"o":"m 328 -1 q 237 17 280 -1 q 164 65 195 35 q 87 196 106 125 q 61 333 66 266 q 56 449 56 399 q 64 621 56 538 q 98 780 72 705 q 188 913 124 857 q 352 970 260 970 q 440 956 400 970 q 509 919 479 941 q 557 871 539 896 q 586 823 576 846 q 599 785 595 800 q 603 770 603 770 q 605 750 605 760 q 583 688 605 715 q 524 653 560 661 q 506 651 515 651 q 443 674 470 651 q 408 734 415 697 q 388 767 403 758 q 357 777 372 777 q 311 757 327 777 q 285 711 294 738 q 254 449 254 612 q 259 351 254 405 q 276 258 264 298 q 303 208 291 218 q 315 198 308 202 q 332 194 321 194 q 350 199 342 194 q 365 212 358 204 q 395 269 380 227 q 414 374 409 316 q 389 370 401 370 q 328 391 355 370 q 292 448 301 412 q 290 471 290 459 q 311 532 290 505 q 369 567 333 559 q 391 572 369 567 q 441 581 412 576 q 484 585 460 585 l 505 583 q 527 581 515 583 q 557 570 539 578 q 596 532 576 559 q 616 473 616 505 q 612 355 616 426 q 585 210 608 285 q 554 136 574 172 q 503 68 535 100 q 424 18 470 37 q 328 -1 378 -1 m 127 734 q 133 736 130 734 q 136 743 135 739 q 194 863 151 814 q 296 918 237 911 q 302 921 300 918 q 305 928 305 924 q 302 935 304 932 q 295 937 299 937 l 294 937 q 180 877 227 930 q 116 746 133 823 l 116 744 q 118 738 116 741 q 124 734 121 735 l 127 734 m 108 646 q 114 648 111 646 q 118 654 117 650 q 126 700 121 677 l 126 702 q 123 709 126 706 q 116 712 120 712 q 110 710 113 712 q 106 704 107 707 q 98 656 102 680 l 98 654 q 101 649 98 651 q 106 646 103 646 l 108 646 m 313 483 q 322 490 319 483 q 336 516 325 504 q 361 528 349 528 q 368 532 365 529 q 370 538 370 534 q 367 546 370 543 q 360 549 364 549 l 359 549 q 322 530 338 547 q 302 494 307 514 l 302 492 q 305 486 302 489 q 311 483 307 484 l 313 483 m 418 251 q 423 253 420 251 q 427 257 426 254 q 440 303 436 279 q 444 342 444 327 q 441 350 444 347 q 434 353 438 353 q 427 350 430 353 q 424 342 424 347 q 420 307 424 330 q 409 265 416 284 l 408 261 q 414 252 408 255 l 418 251 z "},"H":{"ha":665,"x_min":56,"x_max":609,"o":"m 166 0 l 163 0 q 93 27 122 0 q 62 97 64 55 q 56 494 56 267 q 64 881 56 731 q 95 947 68 921 q 163 974 122 972 q 234 945 205 974 q 262 876 262 916 q 256 562 258 802 l 409 564 q 407 761 409 686 q 403 875 405 836 q 432 944 403 915 q 502 974 460 974 q 570 948 543 973 q 602 881 598 922 q 609 561 609 760 q 606 304 609 432 q 598 95 604 177 q 567 27 595 54 q 499 1 538 1 q 427 31 455 3 q 399 100 399 58 l 399 108 q 408 366 406 201 l 256 363 q 261 100 258 186 q 234 31 261 60 q 166 0 207 3 m 86 711 q 93 714 90 711 q 96 722 96 718 q 99 847 96 806 q 111 905 102 887 q 138 935 119 922 q 142 943 142 938 q 140 949 142 946 q 132 953 137 952 q 126 951 130 953 q 94 914 104 936 q 79 849 83 892 q 76 722 76 806 q 79 714 76 718 q 86 711 82 711 m 445 686 q 452 689 449 686 q 454 696 454 692 l 449 876 q 446 883 449 880 q 439 886 443 886 q 432 883 435 886 q 429 878 429 881 q 431 826 430 865 q 433 749 433 788 q 435 696 435 708 q 438 689 435 692 q 445 686 441 686 m 87 620 q 94 623 91 620 q 96 629 96 625 l 97 677 q 94 684 97 681 q 87 687 91 687 q 80 684 83 687 q 77 677 77 681 l 77 630 q 80 623 77 626 q 87 620 83 620 m 267 537 l 340 538 q 348 542 345 538 q 351 549 351 545 q 348 556 351 553 q 340 559 345 559 l 266 557 q 259 554 262 557 q 256 547 256 551 q 259 540 256 543 q 267 537 262 537 m 420 127 q 427 130 425 127 q 430 137 430 133 l 432 185 q 429 191 432 189 q 422 194 427 194 q 415 191 418 194 q 412 184 412 189 q 412 159 412 169 q 410 136 411 149 q 413 130 410 133 q 419 127 416 127 l 420 127 z "},"I":{"ha":323,"x_min":55,"x_max":265,"o":"m 167 -1 l 161 -1 q 92 26 121 -1 q 61 94 64 53 q 55 375 55 212 q 66 875 55 629 q 98 943 69 916 q 166 970 126 970 l 170 970 q 238 939 211 968 q 265 871 265 911 l 265 865 q 254 376 254 623 q 260 106 254 214 l 260 98 q 234 31 260 60 q 167 -1 208 3 m 98 707 q 105 710 102 707 q 109 718 109 713 q 115 878 109 842 q 127 910 119 899 q 150 930 136 921 q 154 939 154 934 q 152 946 154 943 q 144 949 149 949 q 138 947 141 949 q 96 882 106 928 q 88 718 88 842 q 91 710 88 713 q 98 707 94 707 m 99 616 q 106 618 103 616 q 109 625 109 621 l 109 674 q 106 680 109 677 q 100 683 104 683 l 99 683 q 92 680 95 683 q 89 673 89 677 l 89 627 q 92 619 89 622 q 99 616 94 616 z "},"J":{"ha":591,"x_min":56,"x_max":535,"o":"m 289 0 q 138 54 201 0 q 94 108 110 79 q 70 164 78 137 q 59 217 62 192 q 56 260 56 242 q 58 297 56 294 q 92 361 64 336 q 158 386 120 386 l 169 385 q 232 352 208 380 q 256 286 256 323 l 256 267 q 257 245 256 258 q 260 221 258 233 q 267 207 262 214 q 279 200 272 200 q 305 238 294 200 q 322 328 316 276 q 332 426 329 380 q 334 490 334 473 l 334 563 q 330 772 334 686 l 233 772 q 163 801 192 772 q 134 871 134 830 q 163 941 134 912 q 233 970 192 970 l 424 970 q 490 945 462 970 q 522 880 518 920 q 529 793 522 880 q 535 587 535 707 q 533 481 535 535 q 492 191 530 326 q 430 68 475 125 q 369 20 406 40 q 289 0 332 0 m 161 890 q 168 892 165 890 q 172 898 171 895 q 186 923 174 911 q 210 936 198 935 q 217 939 214 936 q 220 946 220 942 q 217 953 220 950 q 210 956 214 956 l 209 956 q 172 937 187 953 q 152 902 156 921 l 152 899 q 154 893 152 896 q 159 890 156 890 l 161 890 m 231 783 l 305 785 q 312 788 309 785 q 315 795 315 791 q 312 802 315 799 q 305 804 309 804 q 280 804 291 804 q 257 804 269 804 q 231 803 245 803 q 224 800 227 803 q 221 794 221 798 l 221 793 q 231 783 221 785 m 80 302 q 89 310 86 302 q 103 336 92 323 q 127 348 117 348 q 134 351 132 349 q 137 358 137 354 q 134 365 137 362 q 127 368 131 368 l 126 368 q 89 349 104 366 q 69 314 74 334 l 69 313 q 77 302 69 305 l 80 302 m 83 214 q 89 217 87 214 q 92 223 92 220 l 88 271 q 85 277 87 275 q 79 281 83 280 q 72 278 75 281 q 68 271 68 275 l 72 223 q 75 216 72 219 q 81 214 77 214 l 83 214 z "},"K":{"ha":659,"x_min":56,"x_max":603,"o":"m 503 0 q 451 15 475 0 q 413 58 426 31 l 281 336 l 256 296 q 260 106 256 182 l 260 99 q 234 32 260 60 q 167 0 208 3 l 161 0 q 93 27 121 0 q 62 95 65 54 q 56 379 56 214 q 67 875 56 631 q 98 944 69 916 q 167 971 127 971 l 170 971 q 238 941 211 969 q 266 871 266 912 l 266 865 q 259 677 262 782 l 412 922 q 448 958 425 945 q 497 970 471 970 l 500 970 q 585 917 557 966 q 596 871 596 895 q 580 817 596 843 l 406 537 l 593 143 q 603 100 603 121 q 588 47 603 71 q 546 9 573 23 q 503 0 525 0 m 94 709 q 104 719 102 709 q 111 878 104 843 q 123 910 115 899 q 146 931 132 922 q 150 939 150 935 q 148 946 150 943 q 140 949 145 949 q 137 949 139 949 q 134 948 136 949 q 92 882 102 928 q 84 719 84 843 q 94 709 84 710 m 397 829 q 405 834 401 829 q 454 907 434 887 q 505 929 473 926 q 512 932 509 929 q 515 939 515 935 q 511 946 514 943 q 505 949 509 949 l 503 949 q 439 921 465 945 q 390 849 417 897 q 387 844 389 847 q 386 840 386 842 q 391 831 386 834 q 397 829 394 829 m 94 617 q 101 620 98 617 q 104 627 104 623 l 104 674 q 102 681 104 678 q 96 684 99 684 l 94 684 q 87 681 90 684 q 85 674 85 678 l 85 627 q 87 620 85 623 q 94 617 90 617 m 327 290 l 331 290 q 336 300 336 294 l 336 304 l 315 346 q 312 351 314 349 q 306 352 309 352 q 299 349 302 352 q 296 342 296 346 l 298 338 q 306 319 302 327 q 313 304 310 312 q 317 296 315 300 q 327 290 321 290 z "},"L":{"ha":610,"x_min":56,"x_max":553,"o":"m 453 0 l 159 1 q 91 30 119 3 q 60 97 63 56 q 56 363 56 216 q 62 641 56 501 q 86 885 69 780 q 185 969 104 963 q 256 940 227 969 q 285 870 285 910 q 283 852 285 861 q 262 623 268 762 q 256 344 256 484 l 257 200 l 454 199 q 524 170 495 199 q 553 99 553 140 q 523 29 553 58 q 453 0 494 0 m 109 711 q 115 714 113 711 q 118 721 118 717 q 130 843 124 802 q 146 902 136 884 q 175 930 156 920 q 180 939 180 934 q 178 945 180 942 q 170 949 175 948 q 168 948 169 949 q 165 947 166 948 q 119 886 133 930 q 98 721 105 841 q 101 715 98 718 q 107 711 104 712 l 109 711 m 102 621 q 109 623 106 621 q 112 629 111 625 q 113 642 113 636 q 114 658 114 650 q 115 677 115 666 q 113 684 115 682 q 105 687 110 687 q 98 684 101 687 q 96 677 96 682 l 92 631 q 94 624 92 627 q 101 621 97 621 l 102 621 m 376 166 l 450 168 q 457 171 454 168 q 460 177 460 173 l 460 178 q 457 185 460 182 q 450 188 454 188 l 376 186 q 369 183 372 186 q 366 176 366 180 q 369 169 366 172 q 376 166 372 166 z "},"M":{"ha":825,"x_min":55,"x_max":767,"o":"m 667 0 q 597 29 627 0 q 568 100 568 58 l 568 101 q 566 428 568 258 q 508 254 533 327 q 471 206 497 224 q 414 188 446 188 q 355 208 380 189 q 319 258 329 227 q 263 442 295 337 q 254 101 254 262 l 254 100 q 224 29 254 58 q 155 0 195 0 q 84 29 113 0 q 55 100 55 58 q 66 503 55 296 q 113 888 77 711 q 210 966 130 960 q 259 953 236 966 q 296 916 283 939 q 420 616 368 781 q 481 781 449 702 q 550 922 513 860 q 635 968 583 968 q 698 945 671 968 q 732 886 726 922 q 761 586 755 747 q 767 267 767 425 l 767 100 q 738 29 767 58 q 667 0 709 0 m 119 705 q 126 708 123 705 q 129 715 129 711 q 142 836 135 795 q 161 896 149 878 q 193 924 173 913 q 197 932 197 927 q 195 939 197 936 q 188 942 193 942 q 185 942 186 942 q 182 941 184 941 q 147 909 161 930 q 124 844 133 888 q 109 715 115 799 q 112 709 109 711 q 118 705 114 706 l 119 705 m 567 873 q 576 879 572 873 q 599 909 585 897 q 626 922 613 921 q 633 925 631 922 q 636 932 636 928 q 625 942 634 942 q 558 888 582 936 l 557 883 q 562 874 557 878 l 567 873 m 481 671 q 488 673 485 671 q 491 679 490 675 q 501 709 492 684 q 524 768 510 734 q 553 835 538 803 q 557 841 555 838 q 559 844 559 843 q 562 850 562 847 q 559 858 562 854 q 552 861 557 861 q 544 857 547 861 q 538 848 541 853 q 536 844 537 846 q 525 822 528 829 q 519 810 521 814 q 515 801 517 806 q 503 770 513 793 l 482 715 q 477 703 479 709 q 471 681 472 690 q 474 674 471 677 q 480 671 476 671 l 481 671 m 111 614 q 118 616 115 614 q 121 623 121 619 l 125 670 q 122 677 125 674 q 115 681 119 681 q 109 677 111 680 q 105 671 106 675 l 102 623 q 104 617 102 620 q 111 614 107 614 m 387 216 q 397 226 396 216 q 394 232 397 229 q 389 235 392 235 q 365 250 376 239 q 351 274 353 262 q 348 281 351 278 q 341 283 345 283 q 334 281 337 283 q 331 274 331 278 q 349 236 333 252 q 385 216 365 220 l 387 216 z "},"N":{"ha":704,"x_min":56,"x_max":648,"o":"m 537 0 q 484 16 509 0 q 446 58 459 31 q 255 477 351 274 l 255 450 q 269 111 255 269 l 270 100 q 245 34 270 62 q 180 1 220 5 l 170 1 q 103 26 132 1 q 71 91 75 52 q 56 458 56 266 q 73 877 56 686 q 153 964 84 947 q 172 966 163 966 q 223 953 199 966 q 260 914 246 939 q 449 534 355 737 q 440 863 449 741 l 439 874 q 468 943 439 914 q 538 972 497 972 l 540 972 q 606 947 578 972 q 638 881 634 921 q 648 545 648 747 q 636 93 648 313 q 611 33 633 58 q 555 1 589 8 q 537 0 546 0 m 98 696 q 104 699 102 696 q 108 705 107 702 q 123 864 113 825 q 136 896 127 886 q 159 916 144 907 q 164 924 164 920 q 162 931 164 928 q 155 934 159 934 l 154 934 l 149 932 q 103 869 115 914 q 87 706 92 825 q 90 699 87 702 q 97 696 93 696 l 98 696 m 497 682 q 504 685 501 682 q 507 692 507 688 l 507 692 q 505 742 507 701 q 503 821 504 782 q 501 873 502 861 q 498 880 501 877 q 491 882 495 882 q 484 879 487 882 q 481 872 481 876 l 487 692 q 490 685 487 688 q 497 682 493 682 m 93 604 q 100 607 97 604 q 103 614 103 610 q 104 638 104 627 q 106 661 105 647 q 103 668 106 665 q 96 671 100 671 l 96 671 q 89 668 92 671 q 86 661 86 665 q 85 653 86 657 q 84 634 85 643 q 83 614 84 625 q 86 607 83 610 q 93 604 89 604 z "},"O":{"ha":692,"x_min":56,"x_max":635,"o":"m 341 0 l 330 0 q 185 59 245 7 q 96 184 124 112 q 64 310 73 243 q 56 449 56 377 l 56 496 q 68 657 58 580 q 107 803 79 734 q 201 924 136 874 q 345 968 264 967 q 361 967 353 968 q 510 908 448 961 q 600 782 573 854 q 628 659 621 723 q 635 527 635 595 l 635 471 q 620 309 633 387 q 578 163 608 231 q 523 82 557 119 q 441 23 488 45 q 341 0 395 0 m 125 734 q 132 736 129 734 q 135 742 134 739 q 194 863 151 814 q 295 917 237 911 q 302 920 299 918 q 304 927 304 923 q 301 934 304 931 q 294 937 298 937 l 294 937 q 179 876 227 929 q 116 746 132 823 l 116 744 q 118 738 116 741 q 123 734 120 735 l 125 734 m 340 199 q 371 210 357 199 q 397 245 385 220 q 436 477 431 321 l 437 515 q 413 713 437 642 q 386 761 401 749 q 351 772 371 772 q 315 761 330 772 q 290 724 301 749 q 255 491 260 650 l 254 460 q 281 256 254 331 q 310 209 296 220 q 340 199 323 199 m 108 645 q 114 648 111 645 q 117 654 117 650 q 125 700 121 676 l 125 703 q 123 709 125 706 q 115 712 120 712 q 110 710 112 712 q 106 704 107 707 q 98 656 101 680 l 98 655 q 100 649 98 652 q 106 645 102 646 l 108 645 m 410 195 q 417 198 414 195 q 454 273 441 229 q 469 365 466 317 l 469 366 q 466 373 469 370 q 460 376 463 376 l 458 376 q 452 373 454 376 q 449 366 449 370 q 434 278 446 320 q 402 211 422 237 q 399 204 399 208 q 403 197 399 200 q 410 195 406 195 z "},"P":{"ha":663,"x_min":56,"x_max":608,"o":"m 171 0 l 168 0 q 98 28 127 0 q 68 97 70 56 q 64 198 66 147 q 58 345 60 269 q 56 507 56 420 q 67 848 56 654 l 67 855 q 81 907 67 883 l 83 909 l 83 911 q 163 957 111 954 l 166 957 q 273 967 201 964 l 281 967 q 349 964 314 967 q 432 946 389 960 q 516 902 475 932 q 582 818 557 870 q 608 705 608 766 q 587 590 608 644 q 532 498 566 537 q 459 436 498 460 q 381 398 420 412 q 256 365 311 372 q 263 194 259 277 q 267 104 264 150 l 267 100 q 239 31 267 60 q 171 0 212 3 m 104 712 q 111 715 108 712 q 114 722 114 718 q 115 753 115 739 q 125 854 115 814 q 152 892 133 878 q 210 909 171 907 q 216 911 214 909 q 219 918 219 914 q 216 925 219 922 q 210 928 214 928 l 209 928 q 140 908 165 926 q 106 861 115 890 q 95 751 93 812 q 94 723 95 737 l 94 722 q 97 715 94 718 q 104 712 100 713 m 255 568 q 328 591 293 575 q 386 634 363 606 q 409 705 409 661 q 393 743 409 730 q 352 762 378 756 q 298 767 327 767 q 261 766 279 767 q 255 568 256 657 m 99 623 q 106 626 103 623 q 109 633 109 629 l 113 680 q 110 687 113 684 q 102 690 106 690 q 96 687 98 690 q 92 681 93 684 l 90 633 q 92 627 90 629 q 99 623 95 624 m 340 553 l 342 553 q 398 583 371 562 q 439 642 426 605 l 440 646 q 437 652 440 650 q 431 655 435 655 q 425 653 427 655 q 421 648 422 652 q 386 598 410 617 q 336 572 361 580 q 330 563 330 570 l 330 560 q 340 553 333 553 z "},"Q":{"ha":692,"x_min":56,"x_max":635,"o":"m 536 -42 q 487 -29 510 -42 q 449 9 463 -16 l 441 24 q 339 1 393 1 l 330 1 q 185 60 245 7 q 96 184 124 113 q 64 312 73 245 q 56 450 56 378 l 56 497 q 68 658 58 581 q 107 804 79 735 q 201 925 136 876 q 345 968 267 968 l 361 968 q 510 909 448 962 q 600 783 573 856 q 628 660 621 724 q 635 527 635 595 l 635 472 q 622 316 633 391 q 583 176 610 241 l 621 109 q 635 58 635 84 q 623 9 635 32 q 586 -28 610 -14 q 536 -42 562 -42 m 135 702 q 144 709 142 702 q 203 830 160 782 q 304 884 246 878 q 311 888 309 885 q 313 894 313 890 l 313 895 q 310 902 313 899 q 304 905 307 905 l 302 905 q 189 844 235 897 q 125 713 142 791 l 125 711 q 127 705 125 707 q 132 702 129 703 l 135 702 m 340 199 l 304 260 q 290 311 290 285 q 317 378 290 349 q 386 410 343 407 q 431 401 410 410 q 436 477 435 437 l 437 515 q 413 715 437 643 q 386 758 401 747 q 351 770 370 770 q 314 758 328 770 q 290 725 299 746 q 255 492 260 650 l 254 460 q 281 256 254 332 q 340 199 306 200 m 117 613 q 123 615 121 613 q 127 621 126 618 q 132 656 129 637 q 134 667 134 661 l 134 669 q 132 676 134 673 q 125 680 129 680 q 119 677 121 680 q 115 671 116 675 q 107 624 110 648 l 107 622 q 110 616 107 618 q 115 613 112 614 l 117 613 m 336 267 l 340 268 q 345 277 345 272 q 344 282 345 279 q 338 307 338 293 l 338 311 q 347 336 339 327 q 351 343 351 339 q 348 350 351 347 q 341 353 345 353 l 340 353 q 334 350 336 353 q 318 311 319 334 l 318 307 q 327 272 318 288 q 336 267 330 267 z "},"R":{"ha":614,"x_min":56,"x_max":591,"o":"m 171 0 l 168 0 q 98 28 127 0 q 68 97 70 56 q 64 198 66 147 q 58 344 60 269 q 56 506 56 419 q 67 846 56 652 l 66 857 q 84 913 66 888 q 131 950 101 939 q 155 956 142 955 q 259 967 184 964 l 267 967 q 328 964 296 967 q 404 948 365 960 q 481 907 443 935 q 542 829 519 877 q 566 724 566 781 q 547 618 566 667 q 496 534 528 569 q 366 444 435 469 l 569 187 q 591 125 591 157 q 553 46 591 81 q 492 25 524 25 q 449 35 470 25 q 413 64 428 45 l 260 256 l 267 100 q 239 31 267 60 q 171 0 212 3 m 103 713 q 109 715 106 713 q 112 722 112 718 q 113 753 113 739 q 123 854 113 814 q 150 892 131 878 q 208 909 169 907 q 214 911 212 909 q 217 918 217 914 q 214 925 217 922 q 208 928 212 928 l 207 928 q 138 908 163 926 q 104 861 113 890 q 93 751 91 812 q 92 723 93 737 l 92 722 q 95 715 92 718 q 102 713 98 713 l 103 713 m 256 617 q 347 665 315 632 q 362 688 357 675 q 367 724 367 701 q 342 760 367 751 q 283 768 317 769 l 262 768 q 256 617 257 687 m 97 623 q 104 626 101 623 q 107 633 107 629 l 111 680 q 107 687 111 684 q 100 690 104 690 q 94 687 96 690 q 90 681 91 684 l 87 633 q 90 627 87 629 q 97 623 93 624 m 302 585 l 304 585 q 361 615 333 593 q 402 673 389 637 l 403 677 q 400 684 403 681 q 393 687 397 687 q 387 685 390 687 q 383 680 385 684 q 348 630 372 649 q 299 604 324 611 q 294 601 296 604 q 292 595 292 597 l 292 592 q 296 587 293 589 q 302 585 299 585 m 334 233 q 340 235 336 233 q 344 242 344 238 q 342 248 344 245 l 277 337 q 274 340 276 339 q 269 341 271 341 q 262 338 264 340 q 259 331 259 335 q 261 325 259 328 q 268 316 263 322 q 289 287 276 304 q 312 255 301 270 q 326 237 323 241 q 334 233 329 233 z "},"S":{"ha":632,"x_min":28,"x_max":576,"o":"m 301 -2 q 205 14 249 -2 q 130 55 162 31 q 79 106 98 79 q 48 158 59 134 q 34 199 38 183 q 31 216 31 216 q 28 234 28 225 q 52 297 28 269 q 112 332 75 324 q 129 333 120 333 q 192 310 165 333 q 227 249 220 286 q 253 209 232 221 q 303 197 275 197 q 357 216 336 197 q 377 262 377 235 q 351 331 377 305 q 260 401 322 362 q 243 412 252 406 q 132 499 188 444 q 76 582 98 532 q 54 688 54 631 q 77 811 54 756 q 138 903 100 866 q 307 977 214 977 q 400 960 359 977 q 470 919 440 943 q 519 870 500 895 q 547 829 538 846 q 557 812 557 812 q 564 773 564 793 q 548 719 564 744 q 503 681 532 693 q 465 673 484 673 q 410 690 435 673 q 373 736 385 707 q 370 742 373 736 q 359 757 366 749 q 340 771 352 765 q 313 778 329 778 q 269 758 286 778 q 252 700 252 738 q 257 666 252 681 q 275 636 262 650 q 369 568 304 608 q 380 560 374 564 q 440 518 409 541 q 500 463 471 495 q 554 376 532 427 q 576 265 576 326 q 550 151 576 203 q 484 64 524 98 q 396 15 443 31 q 301 -2 349 -2 m 103 749 q 110 751 106 749 q 113 757 113 753 q 172 877 129 829 q 273 932 214 925 q 280 935 277 932 q 283 942 283 938 q 273 951 281 951 l 272 951 q 157 891 205 944 q 94 761 110 838 l 94 758 q 96 752 94 755 q 102 749 98 749 l 103 749 m 86 660 q 96 669 93 660 q 104 714 98 691 l 104 716 q 101 724 104 721 q 94 726 98 726 q 87 724 90 726 q 84 718 85 722 q 81 703 83 711 q 76 671 78 687 l 75 669 q 78 663 75 666 q 85 660 81 661 l 86 660 m 380 188 q 386 190 383 188 q 420 243 414 212 q 423 268 423 256 q 419 298 423 284 q 415 304 418 302 q 409 306 412 306 q 401 303 404 306 q 399 296 399 300 l 399 293 q 403 266 403 280 q 401 248 403 257 q 374 206 396 223 q 370 198 370 203 q 372 192 370 195 q 380 188 376 188 m 71 182 l 75 182 q 81 191 81 186 l 81 195 q 74 230 74 211 l 75 241 q 98 284 77 266 q 101 292 101 288 q 98 298 101 295 q 92 302 96 301 q 85 299 87 302 q 56 243 58 275 q 54 229 54 236 q 62 188 54 206 q 66 183 63 185 q 71 182 68 182 z "},"T":{"ha":787,"x_min":56,"x_max":732,"o":"m 392 0 q 322 30 351 0 q 293 100 293 59 l 295 777 q 174 771 202 775 q 156 769 165 769 q 92 792 120 769 q 57 852 64 814 q 56 869 56 861 q 79 932 56 905 q 140 967 102 960 q 394 983 251 983 q 647 967 538 983 q 708 933 685 961 q 732 869 732 905 q 730 852 732 861 q 696 792 724 815 q 633 769 668 769 q 614 771 624 769 q 494 777 585 775 l 492 99 q 463 29 492 58 q 392 0 433 0 m 159 939 l 248 939 q 254 942 251 939 q 257 948 256 944 q 254 956 257 952 q 248 959 252 959 q 227 960 239 960 l 202 959 l 159 958 q 153 956 155 958 q 150 949 150 953 l 150 947 q 153 941 150 944 q 159 939 155 939 m 94 825 l 97 826 q 102 829 100 827 q 104 836 104 832 l 103 839 q 99 865 99 851 q 101 884 99 875 q 127 926 106 909 q 132 934 132 929 q 129 940 132 937 q 122 943 127 943 q 119 943 121 943 q 116 942 117 943 q 82 888 87 920 q 79 865 79 877 q 84 833 79 848 q 88 827 85 829 q 94 825 91 825 m 318 109 q 325 111 322 109 q 328 117 328 113 l 329 240 q 326 247 329 244 q 319 250 323 250 q 312 247 315 250 q 309 240 309 244 q 309 176 309 201 q 308 119 309 151 q 311 112 308 115 q 318 109 314 109 z "},"U":{"ha":694,"x_min":56,"x_max":638,"o":"m 347 0 q 225 30 286 0 q 126 115 165 59 q 72 245 88 172 q 56 412 56 319 q 62 762 56 642 q 68 882 68 882 q 98 947 71 921 q 163 975 124 972 l 169 975 q 239 944 211 973 q 267 875 267 916 l 267 867 q 260 752 267 867 q 254 412 254 637 q 266 291 254 336 q 291 227 277 245 q 347 199 310 199 q 404 226 385 199 q 428 289 416 244 q 439 412 439 334 q 434 756 439 652 q 428 861 428 861 l 427 871 q 453 937 427 909 q 517 969 478 965 l 527 970 q 594 944 566 970 q 626 878 622 918 q 632 767 626 878 q 638 412 638 656 q 622 243 638 317 q 568 114 606 170 q 468 29 528 58 q 347 0 408 0 m 95 716 q 101 719 98 716 q 104 726 104 722 q 118 884 109 846 q 132 916 123 905 q 155 936 140 927 q 160 945 160 939 q 157 951 160 948 q 150 955 155 955 q 144 953 147 955 q 99 890 111 935 q 84 726 88 846 q 87 719 84 722 q 94 716 90 716 l 95 716 m 469 671 q 476 673 473 671 q 479 680 479 676 l 473 861 q 470 868 473 865 q 463 871 467 871 q 456 868 459 871 q 454 862 454 865 l 454 861 q 455 810 454 850 q 457 730 456 769 q 459 680 458 691 q 462 673 459 676 q 469 671 465 671 m 91 625 q 97 627 94 625 q 100 634 100 630 q 101 658 100 647 q 102 681 102 667 q 100 688 102 685 q 93 691 97 691 l 92 691 q 85 688 87 691 q 82 682 83 686 l 80 635 q 83 628 80 631 q 90 625 85 625 l 91 625 m 359 158 q 414 178 391 158 q 447 222 437 198 l 448 227 q 445 234 448 231 q 437 237 442 237 q 429 230 431 237 q 401 193 420 210 q 359 178 385 178 l 353 178 q 347 176 350 178 q 344 169 345 173 q 347 162 344 165 q 354 158 349 159 l 359 158 z "},"V":{"ha":741,"x_min":55,"x_max":684,"o":"m 345 0 q 288 19 314 0 q 252 69 262 37 q 114 474 172 239 q 55 873 55 709 l 55 874 q 83 944 55 915 q 153 974 111 972 l 154 974 q 224 945 195 974 q 254 874 254 916 l 254 873 q 282 654 254 797 q 353 370 311 511 q 446 646 406 508 q 485 873 485 785 l 485 874 q 513 944 485 915 q 583 974 541 972 l 584 974 q 654 945 625 974 q 684 874 684 916 l 684 873 q 660 667 684 776 q 598 449 635 557 q 519 242 561 340 q 441 68 477 144 q 382 6 426 24 q 381 6 381 6 q 380 5 380 6 q 374 4 377 4 q 345 0 359 0 m 109 691 q 116 695 113 692 q 118 701 118 698 l 118 703 q 103 848 103 803 l 104 862 q 112 895 106 883 q 132 919 119 907 q 135 926 135 922 q 132 933 135 930 q 125 937 130 936 q 118 934 121 937 q 84 863 88 910 l 83 848 q 98 700 83 800 q 101 693 98 696 q 108 691 104 691 l 109 691 m 486 646 q 492 647 489 646 q 496 652 494 649 q 519 745 508 680 q 533 865 533 815 q 523 875 533 874 q 516 872 519 875 q 513 865 513 869 q 500 749 513 818 q 488 694 494 718 q 477 660 481 669 l 477 656 q 483 646 477 650 l 486 646 m 127 601 q 133 604 131 602 q 136 610 136 607 l 136 612 q 133 628 134 621 q 127 659 130 640 q 123 664 126 662 q 117 667 120 667 q 110 664 113 667 q 107 656 107 661 l 107 654 l 116 609 q 119 603 117 606 q 125 601 122 601 l 127 601 z "},"W":{"ha":939,"x_min":55,"x_max":882,"o":"m 642 -7 l 629 -7 q 548 59 570 4 q 496 258 520 146 q 476 340 486 299 l 472 356 l 469 345 q 451 280 460 313 q 378 50 421 153 q 297 -7 353 0 l 288 -7 q 207 35 239 -7 q 114 243 143 128 q 72 477 84 358 q 57 703 60 597 q 55 875 55 808 l 55 876 q 83 945 55 917 q 153 976 111 974 l 154 976 q 224 946 195 976 q 254 876 254 917 l 254 875 q 256 708 254 808 q 270 499 258 608 q 282 416 275 456 q 330 569 302 494 q 400 709 357 645 q 482 753 433 753 l 490 753 q 572 696 545 747 q 657 433 626 575 q 668 503 664 469 q 681 679 678 593 q 683 831 683 764 l 683 875 q 712 945 683 916 q 783 974 741 974 q 853 945 824 974 q 882 875 882 916 l 882 836 q 880 676 882 768 q 865 481 877 583 q 822 248 853 363 q 724 35 790 132 q 642 -7 690 -7 m 111 692 q 118 694 115 692 q 121 701 121 697 l 121 702 q 117 814 117 772 q 119 862 117 844 q 130 895 123 883 q 151 917 137 907 q 155 924 155 920 q 153 931 155 928 q 145 935 150 935 q 139 932 142 935 q 100 865 108 911 q 97 812 97 844 q 101 701 97 770 q 104 694 101 697 q 110 692 106 692 l 111 692 m 726 644 q 732 647 730 644 q 735 654 735 650 l 735 667 q 738 771 735 713 q 744 865 741 829 l 744 867 q 742 873 744 871 q 736 876 739 876 l 734 876 q 728 873 730 876 q 724 867 725 871 q 718 778 721 832 q 715 677 715 724 l 715 654 q 718 647 715 650 q 726 644 721 644 m 414 641 q 422 648 420 641 q 442 690 427 670 q 485 714 458 709 q 491 717 488 714 q 494 724 494 720 q 490 731 493 728 q 484 734 488 734 l 482 733 q 427 703 447 728 q 403 652 408 678 l 403 651 q 405 645 403 648 q 411 641 407 642 l 414 641 m 123 600 q 129 604 127 601 q 132 610 132 606 l 126 657 q 123 664 125 661 q 116 667 120 667 q 109 664 112 667 q 106 656 106 661 l 106 655 q 109 637 108 645 q 110 623 109 630 q 112 609 111 616 q 115 603 113 605 q 121 600 118 600 l 123 600 z "},"X":{"ha":831,"x_min":56,"x_max":774,"o":"m 155 -4 q 110 7 132 -4 q 70 45 84 21 q 56 96 56 68 q 67 142 56 119 q 299 532 161 326 q 98 809 203 678 q 75 872 75 838 q 85 915 75 894 q 121 957 97 941 q 173 972 144 972 l 175 972 q 253 934 220 972 q 419 710 340 825 q 573 930 492 816 q 655 972 606 972 q 707 958 683 972 q 744 918 731 943 q 754 873 754 897 q 735 814 754 842 q 537 531 629 665 q 762 144 665 326 q 774 96 774 120 q 760 45 774 69 q 721 8 746 22 q 674 -3 698 -3 q 623 11 647 -3 q 586 50 600 24 q 416 348 512 191 q 244 52 315 189 q 207 11 231 25 q 155 -4 182 -4 m 233 696 q 238 698 235 696 q 243 707 243 702 q 241 712 243 709 q 193 775 215 747 q 153 829 169 806 q 128 888 128 863 q 130 900 128 894 l 130 903 q 127 909 130 907 q 120 912 124 912 q 114 910 117 912 q 111 905 111 908 q 109 888 109 897 q 116 854 109 871 q 137 818 123 837 q 176 765 153 794 q 224 701 198 737 q 233 696 228 696 m 474 709 q 484 714 479 709 q 544 806 509 755 q 603 888 578 856 q 605 894 605 890 q 603 900 605 897 q 595 903 600 903 l 595 903 q 587 900 589 903 q 527 818 562 868 q 466 724 492 767 q 465 719 465 722 q 469 710 465 714 l 474 709 m 290 626 q 296 628 294 626 q 300 635 300 631 q 298 642 300 639 q 289 654 293 649 q 280 666 285 660 q 271 679 276 671 q 263 683 267 683 l 262 683 q 255 680 258 683 q 252 673 252 677 q 254 667 252 670 l 283 630 q 290 626 286 626 z "},"Y":{"ha":765,"x_min":56,"x_max":709,"o":"m 379 -1 l 378 -1 q 308 27 336 -1 q 279 97 279 56 l 280 401 q 155 604 206 489 q 60 848 87 746 q 56 876 56 862 q 84 944 56 915 q 155 974 113 974 l 157 974 q 252 899 230 968 q 282 809 260 866 q 334 690 304 752 q 382 602 357 644 q 513 899 468 733 q 550 953 523 932 q 610 974 576 974 l 614 974 q 683 942 656 971 q 709 874 709 913 q 706 848 709 861 q 479 398 632 587 l 477 97 q 449 27 477 56 q 379 -1 420 -1 m 158 693 l 162 694 q 168 703 168 697 l 167 707 q 111 857 119 817 q 108 880 108 869 q 121 919 108 902 q 122 924 122 922 q 119 931 122 928 q 113 935 117 934 q 104 930 107 935 q 88 878 88 907 q 91 852 88 866 q 149 699 100 809 q 158 693 152 693 m 463 651 q 471 656 468 651 q 512 743 488 682 q 548 858 536 804 l 548 860 q 545 867 548 864 q 538 869 543 869 l 538 869 q 531 867 534 869 q 528 861 529 865 q 494 750 518 811 q 471 698 482 721 q 455 667 460 675 q 453 661 453 664 q 458 653 453 657 q 463 651 460 651 m 199 611 l 204 612 q 210 621 210 615 l 209 626 q 198 646 203 637 q 188 667 194 654 q 179 673 184 673 q 171 670 174 673 q 168 663 168 667 l 170 659 l 191 616 q 199 611 194 611 z "},"Z":{"ha":684,"x_min":55,"x_max":627,"o":"m 155 -1 q 105 12 128 -1 q 68 49 81 25 q 55 98 55 73 q 69 150 55 125 q 370 772 245 439 l 174 772 q 103 801 132 772 q 74 871 74 830 q 103 941 74 912 q 174 970 132 970 l 509 970 q 581 941 552 970 q 609 871 609 911 q 604 842 609 857 q 327 199 497 507 q 390 200 369 200 q 421 201 410 201 q 441 201 431 201 q 471 201 452 201 q 528 201 490 201 q 597 173 569 201 q 627 104 625 145 l 627 102 q 597 32 627 61 q 527 3 568 3 l 155 -1 m 184 939 l 272 939 q 278 942 275 939 q 281 948 281 944 l 281 949 q 279 956 281 953 q 272 959 276 959 q 252 960 262 960 l 227 959 l 184 958 q 177 956 180 958 q 174 949 174 953 l 174 947 q 177 941 174 944 q 184 939 180 939 m 119 825 l 121 826 q 126 830 125 827 q 128 836 128 833 l 128 839 q 124 867 124 852 q 125 884 124 876 q 152 926 130 909 q 156 934 156 929 q 153 940 156 937 q 146 943 151 943 q 140 942 143 943 q 106 888 112 920 q 104 865 104 876 q 109 833 104 848 q 119 825 112 825 m 292 484 q 300 487 296 484 q 345 572 318 512 q 388 684 374 632 l 389 687 q 386 694 389 691 q 378 697 382 696 q 372 695 375 697 q 369 689 370 692 q 328 580 355 640 q 302 530 315 551 q 284 499 290 508 q 282 493 282 496 q 286 486 282 489 q 292 484 289 484 m 587 86 q 594 89 591 86 q 597 96 597 92 q 570 154 593 132 q 523 182 548 176 l 520 183 q 512 180 515 183 q 510 173 510 177 q 512 167 510 170 q 517 163 513 164 q 556 140 538 157 q 576 96 574 123 q 580 89 577 92 q 587 86 583 86 z "},"[":{"ha":497,"x_min":56,"x_max":440,"o":"m 341 -132 l 155 -132 q 85 -103 114 -132 q 56 -33 56 -74 l 56 1019 q 85 1090 56 1061 q 155 1119 114 1119 l 291 1119 q 361 1090 332 1119 q 391 1019 391 1061 q 362 949 391 978 q 292 920 333 920 l 254 920 l 254 67 l 341 67 q 411 38 382 67 q 440 -33 440 9 q 411 -103 440 -74 q 341 -132 382 -132 z "},"\\":{"ha":847,"x_min":56,"x_max":791,"o":"m 692 -62 q 643 -50 666 -62 q 606 -14 621 -37 l 71 854 q 56 908 56 880 q 67 954 56 932 q 151 1007 95 1003 l 155 1007 q 240 959 208 1007 l 775 90 q 791 37 791 64 q 779 -11 791 12 q 743 -47 766 -33 q 692 -62 718 -62 z "},"]":{"ha":497,"x_min":56,"x_max":440,"o":"m 341 -132 l 155 -132 q 85 -103 114 -132 q 56 -33 56 -74 q 85 38 56 9 q 155 67 114 67 l 241 67 l 241 920 l 203 920 q 134 949 163 920 q 105 1019 105 978 q 134 1090 105 1061 q 205 1119 163 1119 l 341 1119 q 411 1090 382 1119 q 440 1019 440 1061 l 440 -33 q 411 -103 440 -74 q 341 -132 382 -132 z "},"^":{"ha":625,"x_min":56,"x_max":569,"o":"m 469 510 q 418 524 442 510 q 380 564 394 538 l 312 694 l 243 564 q 206 524 230 538 q 155 510 182 510 q 109 522 132 510 q 69 559 83 535 q 56 610 56 583 q 68 657 56 633 l 224 953 q 311 1006 256 1006 l 313 1006 q 400 953 368 1006 l 557 657 q 569 610 569 633 q 555 559 569 583 q 515 522 541 535 q 469 510 492 510 z "},"_":{"ha":928,"x_min":56,"x_max":872,"o":"m 763 -134 l 166 -134 q 88 -105 120 -134 q 56 -35 56 -76 q 87 35 56 6 q 165 64 119 64 l 764 64 q 840 35 808 64 q 872 -35 872 6 q 840 -105 872 -76 q 763 -134 808 -134 m 115 -12 q 125 -6 121 -12 q 155 22 133 16 q 163 32 163 26 q 160 38 163 35 q 153 41 157 41 l 149 41 q 121 25 132 36 q 105 2 111 14 l 104 -3 q 111 -12 104 -8 l 115 -12 z "},"`":{"ha":296,"x_min":55,"x_max":239,"o":"m 186 793 q 140 819 159 793 l 64 936 q 55 966 55 951 q 70 1003 55 987 q 109 1020 85 1020 q 155 994 138 1019 l 230 877 q 239 847 239 863 q 215 802 239 821 q 186 793 201 793 z "},"a":{"ha":660,"x_min":56,"x_max":603,"o":"m 494 0 q 425 29 456 0 q 317 0 379 0 q 207 28 258 0 q 121 103 155 56 q 72 209 87 150 q 56 335 56 267 q 89 524 56 436 q 200 668 123 612 q 323 707 252 704 l 342 705 q 393 696 368 704 q 429 679 412 690 q 496 704 460 704 q 563 675 536 702 q 593 610 590 649 q 603 312 603 473 q 593 90 603 195 q 528 5 585 29 q 494 0 511 0 m 126 492 q 131 494 129 492 q 135 498 134 496 q 203 615 156 570 q 309 660 251 660 q 316 663 313 660 q 319 669 319 665 q 316 677 319 673 q 309 681 313 681 q 190 630 241 678 q 115 505 138 581 l 115 503 q 122 493 115 496 l 126 492 m 323 199 q 352 213 339 199 q 376 248 366 228 q 395 286 387 267 q 404 303 400 296 l 402 435 q 392 461 399 444 q 371 494 385 479 q 335 509 357 509 q 278 464 300 509 q 254 334 255 419 q 275 231 254 262 q 323 199 296 199 m 98 405 q 107 412 104 405 l 118 458 l 119 461 q 116 468 119 465 q 109 471 113 471 q 103 469 105 471 q 100 464 100 467 q 87 416 92 440 l 87 414 q 89 409 87 412 q 94 406 91 406 l 98 405 m 358 160 l 363 161 q 410 206 391 178 q 437 260 430 234 l 438 262 q 435 269 438 265 q 427 272 431 272 q 418 265 420 272 q 393 218 411 244 q 353 179 375 192 q 349 170 349 176 l 350 165 q 353 161 351 163 q 358 160 355 160 z "},"b":{"ha":659,"x_min":56,"x_max":602,"o":"m 341 0 q 236 26 281 0 q 171 2 206 2 q 134 9 153 2 q 73 92 80 33 q 56 464 56 263 q 72 878 56 671 q 102 943 75 918 q 168 971 129 969 l 171 971 q 241 942 212 971 q 271 872 271 913 l 270 862 q 260 689 264 778 q 277 695 269 693 q 328 705 302 703 l 342 706 q 471 666 413 706 q 551 575 523 628 q 591 461 580 523 q 602 335 602 400 l 602 331 q 586 207 602 264 q 537 103 570 149 q 451 28 503 56 q 341 0 399 0 m 102 701 q 109 704 106 701 q 112 711 112 707 q 123 871 114 831 q 135 903 127 892 q 158 923 143 914 q 163 931 163 927 q 160 938 163 935 q 153 941 157 941 l 152 941 q 147 940 149 941 q 103 875 114 921 q 92 712 94 831 q 95 704 92 707 q 102 701 98 701 m 260 644 q 266 645 264 644 q 300 660 279 653 q 340 666 321 666 q 353 665 347 666 l 355 665 q 365 673 362 665 l 365 675 q 362 681 365 678 q 356 685 360 684 q 339 686 349 686 l 329 686 q 255 662 285 681 q 250 653 250 659 q 252 648 250 650 q 260 644 256 644 m 100 610 q 108 613 105 610 q 111 620 111 616 l 112 667 q 109 674 112 671 q 102 677 106 677 q 95 674 98 677 q 92 667 92 671 l 91 620 q 94 613 91 616 q 100 610 96 610 m 331 199 q 366 213 349 199 q 393 259 382 227 q 403 347 403 292 q 389 443 403 407 q 356 494 376 478 q 320 509 337 509 q 279 491 296 509 q 255 450 263 473 q 258 290 255 367 q 270 249 262 270 q 293 213 279 228 q 331 199 308 199 m 370 154 q 376 156 373 154 q 420 203 402 174 q 443 258 437 233 l 444 260 q 440 268 444 264 q 433 271 437 271 q 427 268 430 271 q 424 262 425 266 q 403 214 419 241 q 365 172 387 187 q 360 164 360 169 q 361 159 360 161 q 370 154 366 154 z "},"c":{"ha":642,"x_min":56,"x_max":587,"o":"m 325 0 q 216 27 267 0 q 127 101 164 54 q 56 331 56 195 l 56 335 q 72 463 56 401 q 119 578 87 524 q 211 669 154 633 q 339 707 268 705 l 345 707 q 496 651 438 704 q 570 535 553 599 q 574 509 574 522 q 554 449 574 475 q 500 412 534 422 q 474 409 487 409 q 414 429 441 409 q 378 484 387 450 q 373 493 377 487 q 362 504 370 498 q 342 509 355 509 q 312 499 325 509 q 288 472 298 490 q 264 414 274 450 q 255 334 255 378 l 255 334 q 264 264 255 292 q 284 222 273 237 q 328 199 301 199 q 356 206 344 199 q 378 223 369 214 q 391 241 387 233 q 396 248 396 248 q 434 292 409 277 q 487 307 458 307 q 528 298 508 307 q 571 261 556 286 q 587 208 587 237 q 576 165 587 186 q 567 148 576 165 q 539 107 558 131 q 489 58 519 83 q 418 17 459 34 q 325 0 378 0 m 129 492 q 138 499 136 492 q 208 615 160 570 q 313 660 255 660 q 320 663 317 660 q 323 670 323 666 q 320 677 323 674 q 313 680 317 680 q 194 629 245 678 q 119 505 142 581 l 119 503 q 126 492 119 496 l 129 492 m 98 405 q 105 407 102 405 q 109 413 109 409 q 118 448 113 430 q 121 458 119 452 l 121 461 q 119 468 121 465 q 112 471 116 471 l 111 471 q 102 464 104 471 q 98 448 100 456 q 90 417 93 432 l 90 414 q 92 408 90 411 q 97 405 94 406 l 98 405 m 433 248 q 441 252 438 248 q 475 273 454 271 q 481 276 479 273 q 484 283 484 279 q 481 290 484 287 q 474 293 478 293 l 473 293 q 445 284 457 292 q 426 264 433 275 q 424 258 424 262 q 427 250 424 254 q 433 248 430 248 z "},"d":{"ha":663,"x_min":56,"x_max":607,"o":"m 317 0 q 208 28 259 0 q 121 103 156 56 q 56 331 56 198 l 56 335 q 67 461 56 400 q 107 575 79 523 q 186 666 136 628 q 315 706 244 706 q 330 705 323 705 q 380 695 356 703 q 405 686 393 692 q 401 867 404 780 l 401 871 q 428 939 401 910 q 496 970 455 967 l 500 970 q 569 942 541 970 q 600 871 598 913 q 607 414 607 642 q 600 98 607 239 q 534 9 594 33 q 500 3 517 3 q 427 36 459 3 q 377 10 404 20 q 317 0 350 0 m 441 694 q 448 697 445 694 q 450 705 450 701 l 445 884 q 442 891 445 888 q 436 894 439 894 l 435 894 q 428 891 431 894 q 425 885 425 888 l 425 884 q 427 833 425 873 q 429 753 428 792 q 431 704 430 715 q 434 697 431 700 q 441 694 437 694 m 123 492 q 133 499 130 492 q 202 615 155 570 q 307 660 250 660 q 314 663 311 660 q 317 670 317 666 q 314 677 317 674 q 307 680 311 680 q 188 629 239 678 q 113 505 136 581 l 113 503 q 115 496 113 499 q 120 492 117 494 l 123 492 m 324 199 q 362 216 347 199 q 389 255 378 233 q 406 295 399 277 q 407 297 407 296 q 408 440 408 366 q 379 487 399 465 q 335 509 359 509 q 298 495 317 509 q 268 449 280 480 q 255 369 255 418 q 273 245 255 291 q 324 199 290 199 m 92 405 q 99 407 96 405 q 103 413 102 409 q 115 458 109 435 l 115 460 q 113 468 115 465 q 106 471 111 471 l 105 471 q 100 469 102 471 q 96 464 97 467 q 92 448 94 456 q 83 417 87 432 l 83 414 q 85 408 83 411 q 91 405 87 406 l 92 405 m 361 160 q 367 161 364 160 q 414 206 395 178 q 441 259 434 234 l 441 262 q 438 269 441 267 q 431 272 435 272 q 426 270 428 272 q 422 264 423 268 q 397 218 416 243 q 357 178 379 192 q 352 170 352 175 l 353 165 q 361 160 357 160 z "},"e":{"ha":642,"x_min":56,"x_max":586,"o":"m 372 -2 q 170 71 254 -2 q 82 201 109 126 q 56 357 56 277 q 97 537 56 458 q 206 662 138 616 q 355 708 274 708 q 427 697 391 708 q 498 663 463 687 q 560 594 534 638 q 586 496 586 551 q 567 403 586 455 q 501 308 549 351 q 296 227 429 243 q 300 222 298 224 q 302 218 301 220 q 329 201 314 208 q 365 194 343 194 q 439 210 393 194 q 473 216 456 216 q 529 198 503 216 q 566 149 555 180 q 572 116 572 132 q 554 59 572 85 q 505 22 536 33 q 372 -2 436 -2 m 135 499 q 144 505 141 499 q 219 611 171 570 q 321 651 267 651 l 334 650 q 340 653 337 650 q 343 659 342 655 q 334 670 343 669 q 321 671 328 671 l 320 671 q 206 626 258 671 q 126 513 154 582 l 125 509 q 132 500 125 503 l 135 499 m 351 395 q 393 407 374 395 q 423 436 412 418 q 439 484 439 459 q 431 515 439 500 q 428 518 430 517 q 422 520 425 520 q 415 517 418 520 q 412 510 412 514 l 414 505 q 418 484 418 496 q 407 447 418 466 q 352 415 386 415 l 350 415 q 343 412 346 415 q 340 406 340 410 q 349 395 340 397 l 351 395 m 262 423 q 309 429 279 423 q 363 449 338 435 q 387 485 387 463 q 378 502 387 495 q 355 509 368 509 q 303 489 330 509 q 262 423 276 470 m 98 414 q 104 416 102 414 q 108 422 107 418 q 119 454 113 437 q 123 466 121 460 l 124 469 q 121 476 124 473 q 114 479 118 479 q 105 473 108 479 q 89 428 96 450 l 88 425 q 90 418 88 421 q 95 415 92 416 l 98 414 m 519 162 q 526 164 523 162 q 530 172 530 168 q 528 178 530 175 q 504 196 517 191 q 477 201 490 201 l 475 201 q 469 197 471 200 q 467 191 467 195 q 469 184 467 187 q 476 181 471 182 q 512 166 498 181 q 519 162 515 162 z "},"f":{"ha":509,"x_min":56,"x_max":494,"o":"m 259 0 l 253 0 q 184 27 213 0 q 153 94 156 54 q 140 476 140 286 q 79 510 103 483 q 56 574 56 538 q 79 638 56 611 q 140 672 103 666 q 207 871 147 793 q 283 939 241 913 q 368 975 325 964 q 395 979 382 979 q 460 954 433 979 q 494 891 488 929 l 494 880 q 474 819 494 846 q 418 783 453 791 q 364 749 384 774 q 339 673 346 730 l 376 673 q 446 644 417 673 q 475 574 475 615 q 446 504 475 533 q 376 475 417 475 l 339 475 q 351 108 340 289 l 352 100 q 326 32 352 60 q 259 0 299 4 m 204 764 q 214 770 211 764 q 283 886 235 841 q 388 931 330 931 q 395 934 392 931 q 398 941 398 937 q 395 948 398 945 q 388 951 392 951 q 270 901 322 951 q 195 776 218 852 l 194 774 q 196 768 194 770 q 201 764 198 765 l 204 764 m 174 676 q 180 679 177 676 q 184 684 183 681 q 193 719 188 701 q 196 729 195 724 l 197 732 q 194 739 197 736 q 187 742 191 742 l 186 742 q 177 734 180 742 q 165 688 170 711 l 165 686 q 167 680 165 683 q 172 676 169 677 l 174 676 m 85 543 q 93 553 93 547 l 92 556 q 90 574 90 566 q 96 595 90 585 q 98 601 98 598 q 95 608 98 605 q 87 610 92 610 q 79 606 83 610 q 70 574 70 590 q 73 551 70 562 q 77 545 74 547 q 83 543 79 543 l 85 543 z "},"g":{"ha":667,"x_min":56,"x_max":612,"o":"m 351 -265 q 267 -253 304 -265 q 201 -226 229 -241 q 160 -199 174 -211 q 145 -187 145 -187 q 115 -115 115 -155 q 143 -45 115 -77 q 214 -16 176 -16 q 285 -45 253 -16 q 291 -51 285 -45 q 313 -61 298 -56 q 351 -66 328 -66 q 356 -65 352 -66 q 366 -60 360 -64 q 378 -46 372 -56 q 390 -21 385 -37 q 398 19 395 -5 q 317 0 363 0 q 208 28 259 0 q 121 103 156 56 q 56 331 56 198 l 56 335 q 67 461 56 400 q 107 575 79 523 q 186 666 136 628 q 315 706 244 706 q 330 705 323 705 q 380 695 356 703 q 427 676 405 688 q 500 708 457 707 q 567 682 539 708 q 600 616 595 656 q 612 352 612 484 q 597 12 612 181 q 512 -192 584 -118 q 351 -265 439 -265 m 123 492 q 133 499 130 492 q 202 615 155 570 q 307 660 250 660 q 314 663 311 660 q 317 670 317 666 q 314 677 317 674 q 307 680 311 680 q 188 629 239 678 q 113 505 136 581 l 113 503 q 115 496 113 499 q 120 492 117 494 l 123 492 m 324 199 q 362 215 346 199 q 389 254 378 232 q 406 294 399 276 q 408 298 407 296 l 412 309 l 412 342 l 412 421 q 411 425 412 423 q 385 481 408 453 q 335 509 363 509 q 298 495 317 509 q 268 449 280 480 q 255 369 255 418 q 273 245 255 291 q 324 199 290 199 m 92 405 q 99 407 96 405 q 103 413 102 409 q 115 458 109 435 l 115 460 q 113 468 115 465 q 106 471 111 471 l 105 471 q 100 469 102 471 q 96 464 97 467 q 92 448 94 456 q 83 417 87 432 l 83 415 q 85 409 83 412 q 91 405 87 406 l 92 405 m 361 160 q 367 161 364 160 q 414 206 395 178 q 441 259 434 234 l 441 262 q 438 269 441 267 q 431 272 435 272 q 426 270 428 272 q 422 264 423 268 q 397 218 416 243 q 357 178 379 192 q 352 170 352 175 l 353 165 q 361 160 357 160 m 174 -180 q 182 -176 179 -180 q 184 -170 184 -174 q 180 -162 184 -165 q 166 -146 173 -157 q 156 -123 159 -136 q 154 -109 154 -116 q 166 -81 154 -92 q 170 -73 170 -77 q 167 -67 170 -70 q 160 -63 164 -64 q 153 -66 156 -63 q 139 -86 143 -75 q 134 -109 134 -97 q 137 -127 134 -118 q 168 -178 145 -161 q 174 -180 171 -180 z "},"h":{"ha":654,"x_min":56,"x_max":600,"o":"m 500 0 q 429 29 458 0 q 400 100 400 58 l 400 420 q 385 478 400 452 q 348 505 370 505 q 311 488 328 505 q 282 446 294 471 q 264 396 270 421 q 257 378 260 387 q 264 170 260 274 q 268 105 267 138 l 268 99 q 241 31 268 60 q 173 0 214 3 l 169 0 q 100 28 129 0 q 69 97 71 56 q 66 168 68 133 q 59 338 62 252 q 56 520 56 424 q 69 880 56 679 q 98 945 72 919 q 164 973 125 971 l 168 973 q 239 944 210 973 q 268 873 268 914 l 268 865 q 257 669 260 760 q 306 695 280 686 q 360 705 332 705 q 487 666 433 705 q 570 564 541 627 q 600 426 600 500 l 600 100 q 570 29 600 58 q 500 0 541 0 m 94 700 q 101 703 98 700 q 104 710 104 706 q 114 869 104 830 q 126 902 119 890 q 149 922 134 913 q 154 930 154 926 q 151 937 154 935 q 144 940 149 940 l 144 940 q 138 939 140 940 q 94 873 105 920 q 83 711 85 830 q 86 703 83 706 q 94 700 90 701 m 274 636 q 281 639 277 636 q 317 660 294 650 q 361 669 341 669 l 365 669 q 372 672 369 669 q 375 679 375 675 q 372 686 375 683 q 366 689 370 689 l 360 689 q 309 679 334 689 q 268 654 283 668 q 264 646 264 650 q 267 640 264 643 q 274 636 270 636 m 92 608 q 99 611 96 608 q 102 618 102 614 l 103 665 q 100 672 103 669 q 93 675 98 675 q 86 673 89 675 q 83 666 83 670 l 82 619 q 85 612 82 614 q 92 608 87 609 m 439 179 q 446 182 443 179 q 449 189 449 185 l 449 370 q 446 376 449 374 q 439 379 444 379 l 439 379 q 432 376 435 379 q 429 370 429 374 q 429 317 429 357 q 429 238 429 278 q 429 189 429 198 q 432 182 429 185 q 439 179 435 179 z "},"i":{"ha":318,"x_min":55,"x_max":262,"o":"m 158 775 q 88 804 117 775 q 59 875 59 833 q 88 945 59 916 q 158 974 117 974 q 229 945 199 974 q 258 875 258 916 q 229 804 258 833 q 158 775 199 775 m 89 896 q 98 902 95 896 q 125 930 106 924 q 132 940 132 934 q 130 947 132 944 q 121 950 127 950 l 119 949 q 80 909 90 937 l 79 905 q 81 900 79 903 q 85 897 82 898 l 89 896 m 168 0 l 161 0 q 94 27 122 0 q 62 94 66 54 q 55 358 55 220 q 62 611 55 486 q 92 676 66 650 q 157 705 118 703 l 162 705 q 233 675 203 705 q 262 606 262 646 l 261 597 q 254 359 254 481 q 261 106 254 227 l 262 98 q 235 32 262 60 q 168 0 208 3 m 98 428 q 105 431 102 428 q 108 438 108 434 l 108 491 q 113 598 108 568 q 125 631 117 619 q 147 652 133 642 q 151 660 151 655 q 149 667 151 664 q 142 670 146 670 q 139 670 140 670 q 136 668 137 669 q 94 602 103 648 q 87 498 87 570 l 88 438 q 91 431 88 434 q 98 428 94 428 m 99 337 q 106 340 103 337 q 109 347 109 342 q 109 369 109 359 q 109 393 109 378 q 105 400 109 397 q 98 404 102 404 q 92 401 95 404 q 89 395 89 398 l 89 347 q 92 340 89 342 q 99 337 95 337 z "},"j":{"ha":321,"x_min":-231,"x_max":267,"o":"m 144 776 q 73 805 102 776 q 44 875 44 834 q 73 945 44 916 q 144 975 102 975 q 214 945 184 975 q 243 875 243 916 q 214 805 243 834 q 144 776 184 776 m 81 897 q 91 903 87 897 q 117 931 98 924 q 124 941 124 935 q 122 948 124 945 q 114 951 119 951 l 111 950 q 73 910 81 937 l 71 906 q 73 901 71 903 q 77 897 75 899 l 81 897 m 6 -265 q -79 -253 -41 -265 q -144 -226 -117 -241 q -185 -199 -171 -211 q -200 -187 -200 -187 q -231 -115 -231 -155 q -202 -45 -231 -77 q -131 -16 -170 -16 q -60 -45 -92 -16 q -55 -50 -60 -45 q -41 -58 -50 -54 q -22 -67 -33 -63 q -2 -71 -12 -71 q 20 -64 9 -71 q 41 -35 32 -56 q 54 26 50 -14 q 68 351 68 191 q 56 597 68 475 l 56 608 q 84 677 56 648 q 155 708 112 707 q 222 682 194 708 q 254 616 250 656 q 267 352 267 484 q 252 12 267 181 q 166 -192 239 -118 q 6 -265 94 -265 m 110 429 q 117 432 114 429 q 119 439 119 435 l 119 440 q 109 576 109 530 l 109 593 q 117 627 111 616 q 135 644 123 639 q 141 653 141 648 q 138 660 141 657 q 131 663 136 663 q 127 662 129 663 q 100 637 109 654 q 90 594 91 620 l 89 572 q 99 438 89 524 q 102 431 100 434 q 109 429 105 429 l 110 429 m 111 338 q 118 340 115 338 q 121 347 121 343 q 120 370 120 360 q 120 394 120 379 q 117 401 120 398 q 110 404 114 404 q 103 401 106 404 q 100 395 100 399 l 100 347 q 103 340 100 343 q 111 338 106 338 m -153 -186 q -144 -180 -148 -186 l -144 -176 q -150 -167 -144 -170 q -166 -154 -158 -163 q -180 -132 -174 -144 q -185 -110 -185 -121 q -178 -89 -185 -98 q -176 -83 -176 -86 q -179 -76 -176 -79 q -186 -73 -182 -73 q -190 -74 -188 -73 q -193 -77 -192 -75 q -205 -110 -205 -92 q -198 -140 -205 -125 q -158 -184 -184 -172 l -153 -186 z "},"k":{"ha":681,"x_min":56,"x_max":625,"o":"m 178 0 l 171 0 q 104 26 132 0 q 72 93 75 52 q 56 503 56 290 q 72 878 56 694 q 102 942 75 917 q 168 969 129 968 l 172 969 q 242 940 213 969 q 271 871 271 911 l 270 860 q 255 533 256 704 q 462 690 347 616 q 515 707 487 707 l 517 707 q 576 687 550 707 q 612 635 602 668 q 616 608 616 621 q 604 560 616 583 q 569 523 591 538 q 437 428 497 477 q 600 167 504 280 q 625 101 625 136 q 590 25 625 59 q 526 1 559 1 q 449 37 483 1 q 288 280 354 149 q 261 246 274 264 q 270 108 265 175 l 271 100 q 244 33 271 61 q 178 0 218 4 m 109 700 q 116 703 113 700 q 119 710 119 706 q 129 869 121 830 q 142 902 134 891 q 165 922 150 913 q 169 930 169 926 q 166 937 169 934 q 159 940 164 940 l 159 940 q 155 939 156 940 q 153 939 154 939 q 110 873 120 920 q 99 711 100 831 l 99 710 q 102 703 99 706 q 109 700 104 700 m 547 671 q 555 675 551 671 q 557 681 557 678 q 552 689 557 686 q 524 697 538 697 q 496 692 509 697 q 491 689 493 692 q 489 683 489 686 l 490 680 q 493 675 491 677 q 499 673 496 673 l 503 673 q 523 677 513 677 q 541 672 532 677 q 547 671 544 671 m 107 608 q 114 611 111 608 q 117 618 117 614 l 119 665 q 116 672 119 669 q 109 675 113 675 q 101 673 104 675 q 98 665 98 670 q 98 642 98 652 q 98 618 98 632 l 98 618 q 100 611 98 614 q 107 608 103 608 m 352 571 q 357 572 355 571 l 465 652 q 469 660 469 656 q 466 666 469 663 q 459 669 464 669 q 456 669 458 669 q 453 667 454 669 l 346 589 q 342 581 342 585 q 345 574 342 577 q 352 571 348 571 m 415 131 q 423 135 420 131 q 425 141 425 138 q 421 149 425 146 l 416 155 q 410 163 413 158 q 405 170 408 166 q 399 178 402 174 q 376 214 388 194 q 347 263 359 240 q 330 297 333 288 q 321 304 328 304 q 314 301 317 304 q 311 295 311 298 l 311 292 q 329 254 315 277 q 359 203 342 230 q 364 195 361 199 q 389 158 378 174 l 400 142 q 401 141 401 142 q 409 133 405 136 q 415 131 412 131 z "},"l":{"ha":346,"x_min":56,"x_max":290,"o":"m 195 -1 l 193 -1 q 116 41 146 1 q 76 125 85 83 q 62 215 66 168 q 62 220 62 218 q 56 361 56 286 l 57 440 q 70 713 62 600 q 79 882 75 798 q 109 951 79 923 q 177 979 138 979 l 180 979 q 249 949 221 979 q 277 880 277 918 l 277 874 q 269 721 274 806 q 258 506 262 616 q 255 435 256 462 q 253 385 254 410 q 252 316 252 359 q 257 234 252 274 q 275 159 261 193 q 290 91 290 123 l 290 87 q 256 19 289 45 q 195 -1 227 -1 m 113 703 q 119 706 116 703 q 121 712 121 708 q 123 781 121 751 q 123 800 123 791 q 131 875 125 850 q 146 906 136 896 q 174 922 155 916 q 180 931 179 925 q 178 938 180 935 q 171 941 175 941 l 170 941 q 168 941 169 941 q 167 941 167 941 q 113 880 125 926 q 103 800 104 850 l 102 713 q 105 706 102 709 q 112 703 108 703 l 113 703 m 106 612 q 114 614 111 612 q 117 621 117 617 l 119 669 q 117 675 119 673 q 110 679 114 678 q 103 676 106 679 q 100 669 100 673 q 98 646 98 654 q 97 621 98 635 q 100 614 97 617 q 106 612 102 612 m 254 109 q 256 110 255 109 q 259 111 258 110 q 264 119 264 113 l 263 123 q 241 180 253 142 q 230 263 230 218 l 231 274 q 229 283 231 279 q 221 287 227 287 q 214 284 217 287 q 211 277 211 281 l 210 261 q 222 174 210 214 q 246 114 235 135 q 254 109 248 109 z "},"m":{"ha":994,"x_min":56,"x_max":939,"o":"m 169 0 l 163 0 q 95 27 123 0 q 64 95 67 54 q 56 358 56 221 q 64 612 56 487 q 94 677 67 651 q 159 705 120 703 l 164 705 q 249 656 216 705 q 302 692 273 677 q 370 706 332 706 q 455 688 419 706 q 523 636 492 670 q 594 686 553 665 q 687 706 635 706 q 789 685 740 706 q 874 624 839 664 q 923 533 908 584 q 939 427 939 483 l 939 101 q 909 31 939 60 q 839 1 880 1 q 768 31 798 1 q 739 101 739 60 l 739 416 q 727 480 739 454 q 687 507 715 507 q 649 489 665 507 q 621 446 633 471 q 603 397 610 420 q 598 386 602 391 l 598 100 q 569 30 598 59 q 499 1 541 1 q 429 31 458 1 q 399 101 399 60 l 399 427 q 384 486 399 465 q 347 507 368 507 q 307 487 324 507 q 279 442 290 467 q 263 397 269 417 q 255 378 260 387 q 262 106 255 237 l 263 99 q 236 32 263 60 q 169 0 210 3 m 278 621 q 285 624 281 621 q 321 647 298 636 q 367 660 345 659 q 374 663 371 660 q 376 670 376 666 q 373 677 376 674 q 366 680 370 680 q 313 666 339 678 q 271 638 288 654 q 268 631 268 635 q 271 624 268 627 q 278 621 274 621 m 591 621 q 598 624 595 621 q 635 647 611 636 q 680 660 659 659 q 687 663 684 660 q 690 670 690 666 q 687 677 690 674 q 680 680 684 680 q 626 666 652 678 q 584 638 600 654 q 581 631 581 635 q 584 624 581 627 q 591 621 587 621 m 104 425 q 111 428 109 425 q 114 435 114 431 l 113 519 q 117 597 113 572 q 131 628 122 618 q 158 646 140 639 q 164 655 164 650 q 161 662 164 659 q 154 665 159 665 l 150 665 q 98 601 109 649 q 92 519 92 572 q 94 435 92 484 q 97 428 94 431 q 104 425 100 425 m 102 334 q 112 343 111 334 l 113 390 q 111 397 113 394 q 103 400 108 400 l 102 400 q 96 397 98 400 q 94 391 94 395 l 92 344 q 95 337 92 340 q 102 334 98 334 m 452 181 q 459 184 456 181 q 462 191 462 186 l 462 371 q 459 378 462 375 q 453 380 457 380 l 452 380 q 445 378 448 380 q 442 371 442 375 l 442 191 q 445 184 442 186 q 452 181 448 181 m 798 181 q 803 184 801 181 q 806 191 806 186 q 806 239 806 199 q 806 319 806 279 q 806 371 806 359 q 804 378 806 375 q 798 380 801 380 l 796 380 q 789 378 792 380 q 786 371 786 375 l 786 191 q 796 181 786 182 l 798 181 z "},"n":{"ha":654,"x_min":55,"x_max":597,"o":"m 168 0 l 161 0 q 94 27 122 0 q 62 95 66 54 q 55 358 55 221 q 62 612 55 487 q 92 677 66 651 q 157 705 119 703 l 163 705 q 248 656 215 705 q 301 692 271 677 q 368 706 331 706 q 460 685 421 706 q 532 624 499 664 q 582 533 567 584 q 597 427 597 483 l 597 100 q 568 30 597 59 q 498 1 539 1 q 427 31 456 1 q 398 101 398 60 l 398 427 q 382 486 398 465 q 346 507 366 507 q 306 487 323 507 q 278 442 289 467 q 262 397 267 417 q 254 378 259 387 q 261 106 254 237 l 262 99 q 235 32 262 60 q 168 0 208 3 m 273 621 q 280 624 277 621 q 317 647 293 636 q 362 660 340 659 q 369 663 366 660 q 372 670 372 666 q 369 677 372 674 q 361 680 366 680 q 308 666 334 678 q 267 638 282 654 q 263 631 263 635 q 266 624 263 627 q 273 621 269 621 m 99 425 q 106 428 103 425 q 109 435 109 431 l 108 519 q 113 597 108 572 q 126 628 117 618 q 153 646 136 639 q 159 655 159 650 q 157 662 159 659 q 149 665 154 665 l 145 665 q 93 601 104 649 q 87 519 87 572 q 89 435 87 484 q 92 428 89 431 q 99 425 95 425 m 97 334 q 107 343 106 334 l 109 390 q 106 397 109 394 q 98 400 103 400 l 98 400 q 91 397 94 400 q 88 391 89 395 q 88 366 88 376 q 87 344 88 357 q 90 337 87 340 q 97 334 93 334 m 448 181 q 454 184 452 181 q 457 191 457 186 l 457 371 q 455 378 457 375 q 448 380 452 380 l 447 380 q 440 378 443 380 q 437 371 437 375 l 437 191 q 440 184 437 186 q 447 181 443 181 l 448 181 z "},"o":{"ha":673,"x_min":56,"x_max":618,"o":"m 328 0 q 202 35 259 0 q 112 124 144 71 q 68 235 81 176 q 56 357 56 294 q 70 479 56 420 q 119 591 85 539 q 216 674 156 643 q 345 706 275 706 q 475 670 416 706 q 566 580 534 635 q 607 468 597 527 q 618 349 618 410 q 601 224 618 284 q 549 113 585 163 q 454 31 511 62 q 328 0 396 0 m 117 490 q 126 498 123 490 q 200 613 149 568 q 309 659 251 659 q 316 662 313 659 q 319 669 319 665 q 316 676 319 673 q 309 679 313 679 q 186 628 241 677 q 107 504 131 580 l 107 501 q 114 491 107 494 l 117 490 m 332 199 q 381 220 362 199 q 409 277 400 242 q 418 349 418 311 l 418 353 q 411 426 418 390 q 386 484 403 461 q 340 507 368 507 q 291 485 310 507 q 263 427 272 462 q 254 357 254 393 q 262 283 254 320 q 288 223 271 247 q 332 199 305 199 m 98 404 q 104 406 101 404 q 107 412 106 408 q 115 458 109 434 l 115 460 q 112 467 115 464 q 104 470 109 470 q 98 468 101 470 q 95 462 96 465 q 94 452 94 457 q 87 414 90 432 l 87 413 q 90 406 87 409 q 96 404 92 404 l 98 404 m 372 155 l 377 157 q 458 271 441 191 l 458 273 q 456 280 458 277 q 449 283 453 283 q 443 280 446 283 q 439 275 440 278 q 369 174 422 203 q 363 165 363 171 l 363 161 q 372 155 367 155 z "},"p":{"ha":664,"x_min":55,"x_max":606,"o":"m 170 -262 q 104 -236 132 -262 q 72 -172 77 -211 q 55 200 55 -1 q 71 614 55 407 q 101 680 75 654 q 167 707 128 705 l 171 707 q 240 679 210 707 q 281 695 260 689 q 332 705 307 703 l 347 706 q 475 666 418 706 q 556 575 527 628 q 595 461 585 523 q 606 335 606 400 l 606 331 q 541 103 606 198 q 456 28 507 56 q 346 0 404 0 q 258 18 296 0 q 269 -151 262 -74 l 270 -163 q 245 -228 270 -200 q 181 -261 220 -256 l 170 -262 m 265 644 q 271 645 268 644 q 304 660 283 653 q 345 666 326 666 q 357 665 351 666 l 359 665 q 366 667 363 665 q 369 673 368 669 l 370 675 q 367 682 370 679 q 361 685 365 684 q 344 686 352 686 l 334 686 q 260 662 289 681 q 255 653 255 658 q 256 648 255 650 q 265 644 260 644 m 95 431 q 102 433 99 431 q 105 441 105 436 q 116 602 106 562 q 131 632 121 623 q 159 649 141 642 q 165 658 165 652 q 163 665 165 662 q 155 668 160 668 q 154 668 155 668 q 152 667 153 668 q 97 607 111 654 q 85 441 86 561 l 85 439 q 89 433 85 436 q 95 431 92 431 m 336 199 q 370 213 354 199 q 397 259 387 227 q 408 347 408 292 q 394 443 408 407 q 361 494 380 478 q 324 509 342 509 q 285 492 300 509 q 260 453 269 475 q 256 314 257 385 q 261 298 259 307 q 273 255 264 277 q 296 215 281 232 q 336 199 311 199 m 89 339 q 96 342 93 339 q 100 349 99 345 l 102 397 q 100 404 102 401 q 92 406 97 406 q 85 403 88 406 q 83 397 83 400 l 79 350 q 82 343 79 346 q 89 339 85 340 m 374 154 q 380 156 378 154 q 425 203 407 174 q 448 258 442 233 l 448 260 q 445 268 448 264 q 437 271 442 271 q 432 268 435 271 q 428 262 429 266 q 407 214 423 241 q 369 172 391 187 q 364 164 364 169 q 366 159 364 161 q 374 154 370 154 z "},"q":{"ha":663,"x_min":56,"x_max":607,"o":"m 500 -260 l 494 -260 q 428 -228 454 -256 q 401 -161 401 -200 l 401 -153 q 407 24 406 -75 q 365 6 388 13 q 317 0 342 0 q 208 28 259 0 q 121 103 156 56 q 56 331 56 198 l 56 335 q 67 461 56 400 q 107 575 79 523 q 186 666 136 628 q 315 706 244 706 q 330 705 323 705 q 380 695 356 703 q 428 675 405 688 q 496 707 456 705 l 500 707 q 570 679 541 707 q 600 609 600 650 q 607 151 607 378 q 600 -165 607 -23 q 569 -233 597 -205 q 500 -260 541 -260 m 123 492 q 133 499 130 492 q 202 615 155 570 q 307 660 250 660 q 314 663 311 660 q 317 670 317 666 q 314 677 317 674 q 307 680 311 680 q 188 629 239 678 q 113 505 136 581 l 113 503 q 115 496 113 499 q 120 492 117 494 l 123 492 m 452 431 q 458 433 456 431 q 461 441 461 436 l 460 621 q 457 628 460 625 q 450 631 454 631 q 443 628 446 631 q 440 621 440 625 l 441 440 q 444 433 441 436 q 452 431 447 431 m 324 199 q 362 216 347 199 q 389 255 378 233 q 406 295 400 277 q 407 296 407 296 l 405 449 q 376 491 395 472 q 335 509 357 509 q 298 495 317 509 q 268 449 280 480 q 255 369 256 418 q 273 245 255 291 q 324 199 290 199 m 93 405 q 99 407 96 405 q 103 413 102 409 q 115 458 109 435 l 116 460 q 113 468 116 465 q 106 471 110 471 l 105 471 q 100 469 102 471 q 96 464 97 467 q 92 448 94 456 q 83 417 87 432 l 83 415 q 86 409 83 412 q 92 405 88 406 l 93 405 m 361 160 q 367 161 364 160 q 414 206 395 178 q 441 259 434 234 l 441 262 q 438 269 441 267 q 431 272 435 272 q 426 270 428 272 q 422 264 423 268 q 397 218 416 243 q 357 178 379 192 q 352 170 352 175 l 353 165 q 361 160 357 160 z "},"r":{"ha":613,"x_min":55,"x_max":570,"o":"m 166 0 l 160 0 q 92 26 120 0 q 60 94 64 53 q 55 306 55 185 q 58 471 55 388 q 68 617 61 553 q 101 682 73 656 q 167 707 129 707 q 250 663 217 707 q 299 685 272 677 q 357 694 326 694 q 480 663 428 694 q 561 576 532 632 q 570 535 570 557 q 555 481 570 507 q 513 442 541 456 q 470 433 491 433 q 419 447 442 433 q 383 486 395 461 q 367 498 378 498 q 330 479 348 498 q 299 441 312 460 q 297 438 298 439 q 255 375 271 401 l 254 299 q 259 106 254 186 l 260 98 q 233 32 260 60 q 166 0 207 3 m 308 637 l 313 638 q 370 656 340 656 q 397 651 383 656 l 401 650 q 410 656 408 650 l 411 661 q 404 669 411 667 q 376 675 391 675 l 369 675 q 335 670 351 675 q 303 656 318 664 q 298 647 298 652 l 299 642 q 308 637 303 637 m 106 430 q 117 440 116 430 q 128 601 119 561 q 143 632 134 623 q 171 648 153 642 q 178 657 178 652 q 175 664 178 661 q 168 667 172 667 q 163 667 165 667 q 109 606 122 654 q 97 440 98 560 q 100 433 97 436 q 106 430 102 430 m 100 338 q 107 341 104 338 q 111 348 111 344 q 113 366 112 358 q 115 395 113 377 q 112 402 115 399 q 104 406 109 406 q 98 402 100 405 q 94 396 95 400 q 94 388 94 392 q 93 369 93 377 q 92 349 92 360 l 92 349 q 94 342 92 345 q 100 338 97 339 z "},"s":{"ha":610,"x_min":56,"x_max":553,"o":"m 294 3 q 187 23 233 3 q 112 71 141 44 q 70 119 82 98 q 56 170 56 144 q 68 219 56 195 q 104 256 81 242 q 155 270 129 270 q 204 257 181 270 q 241 219 227 243 q 250 209 244 214 q 267 202 255 205 q 301 199 279 199 q 336 203 319 199 q 353 214 353 208 q 337 229 353 221 q 296 248 321 237 q 223 280 262 260 q 147 328 184 300 q 86 397 111 357 q 62 492 62 437 q 77 567 62 530 q 123 637 91 604 q 206 689 157 671 q 311 707 255 707 q 408 687 366 707 q 476 643 449 668 q 518 598 504 618 q 532 579 532 579 q 545 529 545 555 q 532 480 545 503 q 495 443 519 457 q 446 430 471 430 q 396 443 419 430 q 359 481 373 456 q 355 486 359 481 q 343 495 351 490 q 327 504 336 500 q 305 508 317 508 q 274 503 286 508 q 262 493 262 498 q 280 475 262 485 q 326 453 297 466 q 397 417 358 438 q 472 368 436 397 q 530 300 507 339 q 553 210 553 262 q 524 109 553 155 q 452 39 494 62 q 372 10 412 17 q 294 3 332 3 m 107 526 q 117 534 114 526 q 179 620 136 587 q 264 654 222 654 l 267 654 q 273 656 271 654 q 276 663 276 659 q 273 670 276 667 q 267 673 271 673 l 263 673 q 164 635 210 672 q 98 540 118 598 l 98 536 q 104 527 98 530 l 107 526 m 104 439 l 108 439 q 115 449 115 443 l 114 452 q 110 467 112 458 q 109 482 109 475 l 109 490 q 106 496 109 494 q 100 499 104 499 q 93 497 96 499 q 90 490 90 494 l 89 480 q 95 446 89 462 q 104 439 98 439 m 351 155 q 404 196 392 161 q 407 214 407 205 q 384 269 407 241 q 377 272 381 272 l 376 272 q 369 269 372 272 q 366 262 366 266 q 369 256 366 259 q 387 215 387 233 q 385 202 387 208 q 348 174 378 180 q 342 171 345 174 q 340 165 340 168 l 340 163 q 343 157 340 159 q 349 155 345 155 l 351 155 m 94 123 l 96 123 q 102 127 100 124 q 104 132 104 130 l 103 136 q 100 161 100 147 q 102 181 100 171 q 130 222 107 205 q 134 230 134 225 q 131 236 134 233 q 124 240 129 239 l 123 240 q 118 238 121 240 q 83 186 90 216 q 80 161 80 173 q 84 130 80 144 q 87 125 85 127 q 94 123 90 123 z "},"t":{"ha":578,"x_min":56,"x_max":528,"o":"m 404 0 l 401 0 q 332 8 366 0 q 267 38 298 17 q 219 90 237 60 q 193 149 201 119 q 179 227 182 188 q 176 307 176 265 l 176 401 q 177 488 176 441 l 154 488 q 84 517 113 488 q 56 587 56 546 q 85 658 56 629 q 155 687 114 687 l 182 687 q 191 828 184 755 q 220 893 193 867 q 286 922 246 919 l 289 922 q 360 892 331 922 q 389 823 389 863 l 389 813 q 382 696 384 753 q 381 687 381 691 l 429 687 q 499 658 470 687 q 528 587 528 629 q 499 517 528 546 q 430 488 471 488 l 376 488 q 375 401 375 441 q 377 275 375 328 q 384 204 379 223 q 385 202 385 203 q 385 200 385 201 q 385 199 385 200 q 389 199 387 199 q 401 199 393 199 l 403 199 q 473 170 444 199 q 503 99 503 140 q 474 29 503 58 q 404 0 445 0 m 212 663 q 219 666 216 663 q 222 673 222 669 q 232 832 223 793 q 245 864 237 853 q 267 885 253 876 q 272 893 272 888 q 269 900 272 897 q 262 903 267 903 q 256 901 259 903 q 212 837 223 882 q 201 673 203 793 q 204 666 201 669 q 212 663 208 663 m 106 530 l 111 532 q 117 540 117 535 l 115 545 q 106 583 106 562 l 106 589 q 125 634 107 614 q 129 642 129 637 q 126 649 129 646 q 118 652 123 652 q 117 652 117 652 q 111 648 114 651 q 86 591 87 622 l 86 587 q 98 536 86 559 q 106 530 100 530 m 472 96 q 478 99 475 96 q 481 105 481 101 l 481 110 q 474 136 481 123 q 456 158 467 149 q 450 159 453 159 q 443 156 445 159 q 440 149 440 153 q 444 141 440 144 q 450 136 446 140 q 456 126 454 132 q 462 109 462 115 l 462 106 q 464 100 462 102 q 471 96 467 97 l 472 96 z "},"u":{"ha":654,"x_min":55,"x_max":597,"o":"m 490 0 q 408 44 441 0 q 355 12 385 24 q 284 0 325 0 q 192 21 231 0 q 119 81 153 41 q 70 173 85 122 q 55 278 55 223 l 55 604 q 83 674 55 645 q 153 704 111 703 l 154 704 q 224 675 195 704 q 254 604 254 646 l 254 278 q 272 220 254 241 q 316 199 289 199 q 358 217 342 199 q 384 258 374 235 q 398 302 393 282 l 398 333 q 391 599 398 471 l 391 606 q 420 676 391 647 q 490 706 449 706 l 492 706 q 559 677 532 704 q 589 611 587 650 q 597 343 597 482 q 589 94 597 217 q 516 3 582 26 q 490 0 503 0 m 99 425 q 106 428 103 425 q 109 434 109 431 l 107 513 q 113 597 107 571 q 126 628 117 618 q 153 646 135 639 q 159 655 159 650 q 157 662 159 659 q 149 665 154 665 l 145 665 q 93 601 104 649 q 87 519 87 572 q 89 435 87 484 q 92 428 89 431 q 99 425 95 425 m 441 425 q 449 428 446 425 q 452 435 452 431 l 446 616 q 443 623 446 620 q 435 625 440 625 q 429 622 431 625 q 426 615 426 619 l 431 435 q 434 428 431 431 q 441 425 437 425 m 97 334 q 104 336 101 334 q 107 343 107 339 l 109 390 q 105 397 109 394 q 98 400 102 400 l 97 400 q 91 397 94 400 q 88 391 89 395 l 87 344 q 90 337 87 340 q 97 334 93 334 m 354 156 l 358 157 q 439 271 422 192 l 439 273 q 437 280 439 277 q 430 283 434 283 q 424 281 427 283 q 420 275 421 279 q 349 175 404 204 q 344 165 344 172 l 345 161 q 354 156 349 156 z "},"v":{"ha":611,"x_min":55,"x_max":555,"o":"m 288 -2 l 283 -2 l 282 -1 l 277 -1 l 269 0 q 195 64 215 12 q 96 337 136 182 q 55 610 55 492 l 55 611 q 83 680 55 652 q 153 710 111 709 l 155 710 q 225 681 196 710 q 254 611 254 652 l 254 610 q 266 512 254 576 q 298 376 279 448 q 339 509 323 446 q 355 610 355 572 l 355 611 q 384 680 355 652 q 454 710 412 709 l 456 710 q 526 681 497 710 q 555 611 555 652 l 555 610 q 526 417 555 517 q 458 226 498 317 q 384 66 419 135 q 347 16 373 35 q 288 -2 320 -2 m 122 422 q 128 426 125 423 q 130 432 130 429 l 130 434 q 109 588 109 544 l 109 592 q 116 626 110 614 q 134 651 121 639 q 137 658 137 654 q 134 665 137 662 q 127 668 132 668 q 120 665 123 668 q 90 593 91 640 l 90 589 q 111 431 90 539 q 114 425 111 427 q 120 422 117 422 l 122 422 m 355 385 q 364 390 361 385 q 390 483 376 418 q 406 602 404 548 l 406 604 q 403 610 406 607 q 396 612 400 612 q 389 610 392 612 q 386 603 386 607 q 370 487 384 551 q 357 432 364 456 q 347 399 351 408 l 345 394 q 351 385 345 389 l 355 385 m 144 333 q 150 336 148 334 q 152 342 152 339 l 152 345 l 141 390 q 131 398 138 398 q 124 395 127 398 q 121 388 121 392 l 121 386 q 128 360 125 370 q 133 340 130 351 q 142 333 136 333 l 144 333 z "},"w":{"ha":920,"x_min":55,"x_max":863,"o":"m 615 0 q 564 14 588 0 q 526 54 541 28 q 456 238 492 128 q 363 44 413 123 q 326 11 348 22 q 281 0 304 0 q 211 28 243 0 q 115 176 146 94 q 72 340 84 258 q 58 481 60 415 q 55 592 55 548 l 55 606 q 83 675 55 647 q 153 706 111 704 l 154 706 q 224 677 195 706 q 254 606 254 648 l 254 605 q 256 500 254 562 q 268 372 258 437 q 278 326 272 349 l 290 354 q 337 479 315 420 q 369 575 358 539 q 405 626 379 606 q 464 645 431 645 q 523 626 496 645 q 559 575 549 606 q 562 565 560 570 q 630 347 588 477 l 631 344 q 656 486 649 416 q 664 604 664 556 l 664 606 q 693 676 664 647 q 763 705 722 705 q 833 676 804 705 q 863 606 863 647 l 863 595 q 859 478 863 548 q 840 329 856 408 q 787 172 823 250 q 684 28 750 94 q 615 0 652 0 m 110 401 q 116 405 114 402 q 119 411 119 408 l 119 412 q 111 541 111 497 q 113 572 111 559 q 122 605 115 593 q 143 628 129 617 q 146 635 146 631 q 144 643 146 640 q 137 646 142 646 l 136 646 q 130 644 132 646 q 93 574 100 621 q 92 541 92 560 q 99 411 92 495 q 102 404 99 407 q 110 401 106 401 m 393 543 q 402 549 399 543 q 427 588 408 570 q 471 607 444 605 q 478 610 475 607 q 481 617 481 613 q 479 624 481 621 q 473 627 476 627 l 471 627 q 413 602 436 627 q 383 555 391 581 l 382 552 q 384 547 382 549 q 389 543 386 544 l 393 543 m 680 362 q 687 365 684 362 q 690 371 689 367 q 702 473 696 411 q 709 584 708 534 q 706 591 709 588 q 699 594 703 594 q 692 591 694 594 q 689 585 689 589 l 689 584 q 683 474 688 536 q 670 374 677 413 l 670 373 q 672 366 670 369 q 678 363 674 363 l 680 362 m 124 311 q 130 314 128 311 q 132 321 132 317 l 125 368 q 122 374 125 372 q 116 377 119 376 q 109 374 112 377 q 106 367 106 371 l 106 366 l 113 319 q 117 313 114 315 q 123 311 119 311 l 124 311 z "},"x":{"ha":631,"x_min":56,"x_max":574,"o":"m 475 1 q 424 15 448 1 q 386 56 399 29 q 315 189 354 119 q 245 57 275 119 q 208 15 232 30 q 155 0 183 0 q 112 9 133 0 q 70 47 85 23 q 56 100 56 72 q 66 144 56 122 q 200 383 121 258 q 89 544 146 469 q 67 606 67 573 q 78 650 67 629 q 115 690 92 676 q 167 705 139 705 l 170 705 q 247 665 218 703 q 317 566 283 617 l 380 661 q 461 705 410 703 l 463 705 q 514 692 490 705 q 551 653 537 678 q 563 606 563 631 q 545 549 563 576 q 446 401 492 472 q 434 382 440 391 q 564 145 507 256 q 574 100 574 123 q 560 48 574 73 q 519 11 546 24 q 475 1 497 1 m 354 549 q 362 553 359 549 q 393 597 376 573 q 423 635 411 621 q 426 642 426 638 q 423 649 426 646 q 415 652 420 652 q 408 648 411 652 q 377 609 395 633 q 345 564 359 585 q 344 559 344 562 q 348 551 344 554 q 354 549 351 549 m 185 478 q 191 480 189 478 q 195 488 195 484 q 193 494 195 491 q 186 503 190 498 q 144 564 158 539 q 132 602 132 584 q 134 613 132 608 l 134 616 q 132 623 134 620 q 124 625 129 625 q 118 623 121 625 q 115 618 115 621 q 113 602 113 610 q 126 554 113 578 q 176 483 144 524 q 177 481 177 482 q 185 478 180 478 m 394 99 q 398 100 396 99 q 404 109 404 104 l 402 113 q 392 132 397 124 q 380 155 387 141 q 376 159 378 157 q 371 160 374 160 q 363 157 366 160 q 361 150 361 154 q 362 145 361 148 q 374 123 370 132 q 385 104 379 115 q 394 99 389 99 z "},"y":{"ha":654,"x_min":55,"x_max":597,"o":"m 337 -265 q 252 -253 290 -265 q 187 -226 214 -241 q 145 -199 160 -211 q 131 -187 131 -187 q 100 -115 100 -155 q 130 -45 100 -77 q 200 -16 161 -16 q 271 -45 239 -16 q 278 -51 271 -45 q 298 -61 285 -56 q 328 -66 311 -66 q 352 -60 340 -66 q 372 -33 363 -53 q 385 26 381 -12 l 385 27 q 340 7 365 15 q 284 0 315 0 q 192 21 231 0 q 119 81 153 41 q 70 173 85 122 q 55 278 55 223 l 55 604 q 83 674 55 645 q 153 704 111 703 l 154 704 q 224 675 195 704 q 254 604 254 646 l 254 278 q 272 220 254 241 q 316 199 289 199 q 358 216 342 199 q 384 258 374 234 q 398 301 393 281 l 398 349 q 387 597 398 474 l 387 608 q 415 677 387 648 q 486 708 443 707 q 553 682 524 708 q 585 616 581 656 q 597 353 597 484 q 583 12 597 182 q 497 -192 570 -118 q 337 -265 425 -265 m 95 425 q 102 428 99 425 q 104 435 104 431 l 102 519 q 108 597 102 572 q 121 628 112 618 q 149 646 130 639 q 155 655 155 650 q 152 662 155 659 q 144 665 149 665 l 140 665 q 88 601 100 649 q 83 519 83 572 q 84 435 83 484 q 95 425 86 425 m 437 425 q 444 428 441 425 q 447 435 447 431 q 446 461 446 441 q 444 518 445 486 q 442 579 443 551 q 441 616 441 606 q 438 623 441 620 q 431 625 435 625 q 424 622 427 625 q 421 615 421 619 l 427 435 q 430 428 427 431 q 437 425 433 425 m 93 334 q 100 336 97 334 q 102 343 102 339 l 104 390 q 101 397 104 394 q 94 400 98 400 l 93 400 q 86 397 89 400 q 84 391 84 395 l 83 344 q 85 337 83 340 q 93 334 88 334 m 349 156 l 353 157 q 435 271 418 192 l 435 273 q 433 280 435 277 q 425 283 430 283 q 419 281 422 283 q 416 275 416 279 q 345 175 399 204 q 339 165 339 172 l 340 161 q 349 156 344 156 m 164 -184 q 173 -180 170 -184 q 175 -174 175 -177 q 170 -166 175 -170 q 157 -150 163 -161 q 147 -127 150 -139 q 145 -112 145 -119 q 157 -84 145 -96 q 160 -77 160 -81 q 158 -70 160 -73 q 151 -66 155 -67 q 147 -67 149 -66 q 144 -69 145 -68 q 130 -90 134 -78 q 125 -113 125 -101 q 127 -131 125 -122 q 159 -182 136 -165 q 164 -184 161 -184 z "},"z":{"ha":636,"x_min":56,"x_max":581,"o":"m 156 1 q 98 20 124 1 q 61 70 72 39 q 56 102 56 86 q 93 179 56 146 q 94 180 94 180 q 148 239 110 197 q 233 337 186 281 q 331 467 290 406 q 349 502 342 486 q 344 503 347 503 q 334 504 340 504 q 288 507 312 507 q 224 505 257 507 q 166 503 193 503 l 165 503 q 94 532 123 503 q 65 602 65 561 q 94 672 65 644 q 165 701 123 701 l 166 701 q 197 703 176 701 q 283 705 233 705 l 294 705 q 353 702 323 705 q 477 667 412 701 q 536 608 510 648 q 562 523 562 568 q 546 438 562 472 q 507 374 530 405 q 498 359 503 367 q 386 210 447 283 l 378 201 l 479 201 q 551 173 521 201 q 581 102 581 144 q 551 31 581 60 q 481 2 522 2 l 170 2 q 156 1 163 1 m 115 557 l 118 557 q 123 562 121 559 q 125 568 125 564 l 125 570 q 121 597 121 583 q 123 616 121 606 q 149 657 127 640 q 153 665 153 661 q 150 672 153 669 q 143 675 147 675 q 137 673 140 675 q 103 620 109 651 q 100 597 100 608 q 106 564 100 580 q 115 557 109 557 m 222 252 q 229 254 226 252 q 292 327 252 275 q 359 427 332 379 l 360 432 q 357 439 360 436 q 350 442 355 442 l 349 441 q 341 436 344 441 q 276 339 317 391 q 240 296 256 315 q 216 270 224 277 q 212 262 212 267 q 214 256 212 260 q 222 252 218 252 m 545 74 q 551 77 549 74 q 554 83 554 79 l 554 91 q 549 120 554 106 q 535 144 543 133 q 491 178 515 168 l 488 178 q 480 175 483 178 q 477 168 477 172 q 484 159 477 163 q 519 132 503 151 q 534 90 534 115 l 534 84 q 537 77 534 79 q 543 74 539 74 l 545 74 z "},"{":{"ha":650,"x_min":56,"x_max":593,"o":"m 494 -132 l 492 -132 q 347 -92 411 -132 q 254 7 283 -52 q 223 111 230 60 q 214 210 216 163 q 214 226 214 218 q 195 374 210 332 q 191 385 193 381 q 189 391 191 389 q 184 394 188 393 q 171 394 180 394 l 153 394 q 84 424 112 395 q 56 494 56 453 q 84 563 56 534 q 153 593 112 591 l 175 593 q 184 593 182 593 q 188 595 186 593 q 189 601 189 597 q 193 613 190 605 q 211 761 206 654 q 212 777 212 769 q 220 876 213 825 q 252 981 227 928 q 346 1079 281 1040 q 492 1119 410 1119 l 494 1119 q 564 1090 535 1119 q 593 1019 593 1061 q 565 949 593 978 q 495 920 536 920 l 492 920 q 456 919 467 920 q 441 912 446 917 q 434 901 437 908 q 431 893 433 897 q 410 751 414 855 q 408 724 409 738 q 402 634 408 681 q 377 538 396 587 q 352 495 368 516 q 379 449 370 473 q 405 350 399 398 q 412 256 411 301 q 412 235 412 245 q 433 93 418 132 q 437 85 435 89 q 444 74 439 77 q 458 68 448 70 q 492 67 469 67 l 494 67 q 564 38 535 67 q 593 -33 593 9 q 564 -103 593 -74 q 494 -132 535 -132 z "},"|":{"ha":311,"x_min":55,"x_max":254,"o":"m 155 -161 q 84 -132 113 -161 q 55 -61 55 -102 l 55 1023 q 83 1092 55 1063 q 153 1122 111 1120 l 154 1122 q 224 1093 195 1122 q 254 1023 254 1063 l 254 -61 q 224 -132 254 -102 q 155 -161 195 -161 z "},"}":{"ha":650,"x_min":56,"x_max":593,"o":"m 157 -132 l 155 -132 q 85 -103 114 -132 q 56 -33 56 -74 q 85 38 56 9 q 155 67 114 67 l 157 67 q 191 68 180 67 q 205 74 201 70 q 212 85 209 77 q 215 93 213 89 q 236 235 232 132 q 237 262 237 249 q 244 353 238 306 q 269 449 250 400 q 297 495 279 473 q 271 538 281 516 q 247 637 252 589 q 240 730 241 686 q 239 751 240 741 q 218 893 235 855 q 214 901 216 897 q 207 913 212 909 q 192 919 203 917 q 157 920 181 920 l 154 920 q 84 949 113 920 q 56 1019 56 978 q 85 1090 56 1061 q 155 1119 114 1119 l 157 1119 q 302 1079 238 1119 q 397 981 367 1040 q 429 876 422 928 q 437 777 436 825 q 438 761 437 769 q 456 613 442 654 q 460 600 459 605 q 461 595 460 597 q 465 593 462 593 q 473 593 467 593 l 495 593 q 565 563 537 591 q 593 494 593 534 q 565 424 593 453 q 495 394 537 395 l 477 394 q 465 393 469 394 q 459 391 460 393 q 457 385 458 389 q 453 374 456 381 q 435 226 439 332 q 434 213 435 220 q 427 113 433 165 q 395 7 420 61 q 302 -92 366 -52 q 157 -132 237 -132 z "},"~":{"ha":831,"x_min":56,"x_max":774,"o":"m 550 366 l 541 366 q 460 380 497 369 q 393 403 423 391 q 380 408 387 405 q 281 436 313 434 l 271 437 q 252 432 261 437 q 227 412 242 427 q 155 381 194 381 q 85 410 117 381 q 56 481 56 443 q 86 552 56 519 q 181 614 130 594 q 280 635 233 635 l 290 635 q 375 621 336 632 q 444 596 413 609 q 451 593 448 595 q 549 565 517 568 l 558 565 q 578 569 569 565 q 604 590 588 574 q 675 620 636 620 q 745 591 713 620 q 774 521 774 559 q 745 450 774 482 q 650 387 701 408 q 550 366 598 366 z "},"¡":{"ha":311,"x_min":56,"x_max":254,"o":"m 155 715 q 225 686 197 715 q 254 614 254 656 l 254 101 q 225 29 254 58 q 153 0 197 1 q 84 30 111 1 q 56 101 56 58 l 56 614 q 85 686 56 656 q 155 715 113 715 m 91 341 q 81 331 81 341 l 81 111 q 90 101 81 102 q 100 111 100 101 l 100 331 q 91 341 100 341 m 89 433 q 79 422 79 432 q 83 368 80 371 q 90 366 86 366 q 100 376 100 366 l 99 414 q 96 430 99 427 q 89 433 93 433 m 155 977 q 225 945 196 977 q 254 867 254 913 q 225 789 254 821 q 155 757 196 757 q 85 789 114 757 q 56 867 56 821 q 85 945 56 913 q 155 977 114 977 m 81 865 q 73 859 76 865 q 71 854 71 857 q 81 827 71 850 q 102 800 92 801 q 112 809 112 800 q 110 816 112 812 q 91 858 100 829 q 81 865 88 865 z "},"¢":{"ha":368,"x_min":0,"x_max":0,"o":""},"£":{"ha":746,"x_min":56,"x_max":691,"o":"m 236 -5 q 183 9 208 -5 q 145 52 158 24 q 136 94 136 73 q 149 142 136 119 q 186 180 162 165 q 202 194 196 185 q 212 222 208 203 q 219 289 219 248 q 216 342 219 313 q 216 346 216 344 q 211 391 214 368 q 183 391 192 391 q 169 391 174 391 q 161 390 165 390 q 148 390 157 390 q 123 390 140 390 q 77 409 96 390 q 56 455 58 427 l 56 456 q 76 503 56 484 q 123 523 95 523 l 192 524 q 178 688 178 606 q 193 791 178 741 q 238 881 207 840 q 319 947 271 922 q 423 972 368 972 q 528 949 484 972 q 601 899 572 927 q 644 848 630 871 q 659 826 659 826 q 669 783 669 805 q 653 730 669 755 q 611 693 638 706 q 569 684 590 684 q 516 699 541 684 q 478 742 491 714 q 475 747 478 742 q 464 758 471 751 q 447 768 457 764 q 423 773 437 773 q 377 688 377 769 q 394 527 377 623 q 417 527 410 527 q 429 528 425 528 q 436 528 432 528 q 446 528 439 528 q 467 528 453 528 q 512 509 494 528 q 532 463 531 490 l 532 461 q 513 415 532 434 q 466 395 494 395 l 412 395 q 415 358 413 376 q 418 288 418 323 q 414 223 418 256 l 418 223 q 521 216 476 223 q 592 203 566 210 q 618 196 618 196 q 671 159 652 186 q 691 100 691 133 q 687 73 691 87 q 650 20 676 39 q 591 1 623 1 q 562 5 576 1 q 518 14 562 5 q 414 22 475 22 q 342 18 379 22 q 269 0 305 13 q 236 -5 253 -5 m 159 94 q 166 97 163 94 q 170 104 170 100 q 176 126 171 115 q 182 135 179 132 q 188 140 186 139 q 193 149 193 144 q 190 156 193 153 q 183 159 188 159 q 180 158 182 159 q 178 157 179 158 q 159 135 165 150 q 150 105 151 121 q 153 98 150 101 q 159 94 155 95 m 214 633 q 221 636 218 633 q 224 644 224 640 q 226 690 224 665 l 226 692 q 223 698 226 695 q 217 701 220 701 l 216 701 q 210 698 212 701 q 206 692 207 695 q 205 675 205 684 q 204 644 204 659 q 207 636 204 640 q 214 633 210 633 m 222 724 q 228 727 225 724 q 231 733 231 729 q 285 863 241 811 q 387 928 329 915 q 393 932 391 929 q 395 938 395 935 q 393 944 395 941 q 385 948 390 947 l 383 947 q 270 876 317 932 q 212 735 222 819 l 212 734 q 220 724 212 726 l 222 724 m 621 155 q 629 161 626 155 l 630 165 q 624 174 630 171 q 551 193 595 188 l 549 193 q 542 190 545 193 q 539 183 539 187 q 542 177 539 180 q 549 174 544 174 q 616 156 589 169 l 621 155 z "},"¤":{"ha":566,"x_min":56,"x_max":509,"o":"m 455 237 q 417 253 435 237 l 361 307 q 285 285 327 285 l 267 286 q 204 307 233 290 l 148 253 q 111 237 131 237 q 71 254 90 237 q 56 291 56 271 q 73 331 56 313 l 134 389 q 120 460 120 423 q 121 479 120 470 q 134 532 123 508 l 73 591 q 56 630 56 608 q 60 649 56 640 q 109 684 75 681 q 148 668 131 684 l 202 616 q 285 640 239 640 l 300 639 q 364 616 336 634 l 417 668 q 454 684 434 684 q 485 674 471 684 q 505 650 499 665 q 509 630 509 640 q 492 591 509 608 l 433 534 q 448 463 448 500 q 446 445 448 454 q 432 389 444 414 l 492 331 q 509 292 509 313 q 494 254 509 271 q 455 237 476 237 m 283 393 q 319 410 302 393 q 340 456 336 427 l 340 464 q 326 511 340 492 q 290 532 311 529 l 285 532 q 248 514 264 531 q 228 469 231 498 l 228 460 q 242 413 228 431 q 277 393 257 395 l 283 393 z "},"¥":{"ha":765,"x_min":56,"x_max":709,"o":"m 378 -1 q 308 28 337 -1 q 279 98 279 57 l 279 128 q 257 128 264 128 q 246 127 250 127 q 240 127 243 127 q 230 127 236 127 q 211 127 224 127 q 165 146 184 127 q 145 193 146 165 l 145 194 q 164 240 145 221 q 212 260 184 260 l 280 260 l 280 303 q 260 303 267 303 q 250 302 254 302 q 243 302 247 302 q 232 302 239 302 q 212 302 225 302 q 165 320 184 302 q 145 368 146 339 l 145 369 q 164 415 145 396 q 212 435 184 435 l 254 435 q 155 605 197 512 q 60 848 87 747 q 56 876 56 863 q 84 945 56 916 q 155 975 113 975 l 158 975 q 252 900 231 969 q 282 810 260 867 q 334 692 304 753 q 382 603 357 644 q 514 900 469 734 q 549 954 523 933 q 610 975 576 975 l 615 975 q 683 943 656 972 q 709 876 709 915 q 706 848 709 863 q 510 439 642 615 q 524 439 519 439 q 531 439 528 439 q 535 439 533 439 q 542 439 538 439 q 555 439 547 439 q 601 421 582 439 q 621 374 620 402 l 621 373 q 602 327 621 346 q 555 307 583 307 l 479 306 l 479 264 q 503 264 495 264 q 515 264 511 264 q 523 264 519 264 q 534 264 526 264 q 555 264 541 264 q 601 246 582 264 q 621 199 620 227 l 621 198 q 602 152 621 171 q 555 132 583 132 l 478 131 l 478 98 q 449 28 478 57 q 378 -1 420 -1 m 158 694 l 163 695 q 167 699 165 696 q 168 704 168 701 l 168 708 q 111 858 119 818 q 109 880 109 871 q 121 920 109 903 q 123 926 123 923 q 121 932 123 929 q 114 935 118 935 l 113 935 q 104 930 107 935 q 89 879 89 909 q 92 854 89 867 q 149 701 101 810 q 158 694 152 694 m 200 612 l 205 613 q 210 623 210 617 l 210 627 l 189 668 q 180 674 185 673 q 172 671 175 674 q 169 663 169 667 l 170 659 l 191 618 q 200 612 195 612 m 464 652 q 472 656 469 652 q 513 744 489 682 q 549 859 538 806 l 549 861 q 546 868 549 865 q 538 871 543 871 q 532 868 534 871 q 529 863 530 866 q 494 751 518 812 q 472 699 483 722 q 456 668 461 677 q 454 663 454 665 q 458 654 454 657 q 464 652 461 652 z "},"¦":{"ha":311,"x_min":55,"x_max":254,"o":"m 155 561 q 84 590 113 561 q 55 661 55 619 l 55 1036 q 83 1105 55 1076 q 153 1135 111 1133 l 155 1135 q 225 1105 196 1135 q 254 1036 254 1076 l 254 661 q 224 590 254 619 q 155 561 195 561 m 155 -148 q 84 -119 113 -148 q 55 -48 55 -90 l 55 326 q 83 396 55 367 q 153 426 111 425 l 154 426 q 224 397 195 426 q 254 326 254 368 l 254 -48 q 224 -119 254 -90 q 155 -148 195 -148 z "},"§":{"ha":615,"x_min":56,"x_max":558,"o":"m 298 -68 q 203 -50 245 -68 q 133 -9 161 -33 q 90 31 104 14 q 75 49 75 49 q 60 100 60 74 q 73 149 60 126 q 110 186 86 172 q 159 200 134 200 q 209 187 185 200 q 247 149 233 174 q 248 146 247 149 q 251 142 248 144 q 258 137 253 139 q 274 133 264 134 q 298 131 283 131 q 334 134 319 131 q 356 140 349 138 l 353 142 q 271 180 331 157 q 259 185 265 182 q 148 238 206 202 q 104 276 125 252 q 70 330 83 299 q 56 396 56 361 q 72 480 56 439 q 121 556 87 521 q 83 613 98 581 q 68 684 68 646 q 82 763 68 722 q 129 838 96 803 q 317 907 203 907 q 413 887 372 907 q 482 843 454 868 q 523 799 509 818 q 536 779 536 779 q 550 729 550 755 q 537 680 550 703 q 500 642 524 656 q 451 629 476 629 q 401 643 425 629 q 363 681 378 656 q 361 685 363 681 q 353 694 358 689 q 338 703 347 699 q 317 707 329 707 q 289 705 298 707 q 275 701 279 703 q 270 697 271 699 q 270 697 270 697 q 269 694 269 696 q 268 688 268 692 q 268 688 268 688 q 269 688 269 688 q 269 688 269 688 q 271 687 270 688 q 273 686 271 687 q 355 642 296 669 q 367 637 361 640 q 476 573 419 615 q 533 505 509 547 q 558 410 558 463 q 544 334 558 370 q 506 271 530 298 q 543 212 528 245 q 558 140 558 178 q 529 39 558 85 q 458 -31 499 -7 q 377 -61 418 -54 q 298 -68 337 -68 m 85 363 q 92 367 89 364 q 94 373 94 370 l 94 380 q 100 426 94 401 q 118 470 106 450 q 119 475 119 473 q 117 482 119 479 q 110 485 114 485 l 109 485 q 104 484 106 485 q 101 480 102 482 q 81 431 87 458 q 75 380 75 404 l 75 373 q 78 366 75 369 q 85 363 81 363 m 187 161 q 195 165 192 161 q 197 171 197 168 q 193 178 197 175 q 178 186 186 184 q 175 186 176 186 q 153 190 163 190 q 146 187 149 190 q 143 180 143 184 q 146 173 143 176 q 153 170 149 170 q 161 169 157 170 q 170 168 165 169 q 178 164 174 166 q 181 163 181 163 q 187 161 184 161 m 102 675 q 108 677 105 675 q 112 683 111 680 q 117 703 114 692 q 120 716 119 709 l 121 720 q 118 726 121 724 q 111 729 115 729 q 105 727 108 729 q 101 722 102 725 q 94 696 98 709 q 92 687 94 692 l 92 684 q 94 678 92 681 q 100 675 96 675 l 102 675 m 130 749 q 136 751 133 749 q 140 756 138 753 q 197 829 153 798 q 279 858 239 858 l 290 857 q 296 860 293 857 q 299 866 298 862 l 299 867 q 297 873 299 871 q 290 877 294 876 q 277 878 283 878 q 185 846 228 876 q 120 761 136 812 l 120 758 q 122 752 120 755 q 127 749 124 749 l 130 749 m 306 380 q 332 386 320 382 q 351 395 344 390 q 357 399 355 397 q 359 402 359 401 q 359 408 359 404 l 359 410 q 359 411 359 411 q 360 411 359 411 q 360 411 360 411 l 351 418 q 319 438 340 427 q 318 437 319 437 q 317 437 317 437 q 282 432 292 437 q 266 420 271 427 q 256 404 259 412 q 257 404 257 404 q 257 404 257 404 q 306 380 272 395 m 360 97 q 391 110 380 99 q 404 135 402 121 l 404 138 q 395 162 404 151 q 372 178 387 174 q 370 179 371 179 q 368 179 370 179 q 361 176 363 179 q 358 169 358 173 q 366 159 358 163 q 379 151 374 157 q 383 138 383 144 l 383 136 q 378 124 383 130 q 359 117 372 118 q 352 114 355 117 q 349 107 349 111 l 349 106 q 352 99 349 102 q 359 97 355 97 l 360 97 z "},"¨":{"ha":439,"x_min":56,"x_max":383,"o":"m 130 963 q 183 941 161 963 q 205 888 205 919 q 183 836 205 857 q 130 814 161 814 q 77 836 99 814 q 56 888 56 857 q 77 941 56 919 q 130 963 99 963 m 309 963 q 361 941 340 963 q 383 888 383 919 q 361 836 383 857 q 309 814 340 814 q 256 836 278 814 q 234 888 234 857 q 256 941 234 919 q 309 963 278 963 z "},"©":{"ha":857,"x_min":56,"x_max":800,"o":"m 428 0 q 241 65 326 0 q 106 240 156 130 q 56 486 56 351 q 106 732 56 622 q 241 907 156 842 q 428 972 326 972 q 578 932 509 972 q 696 824 647 892 q 800 486 798 686 q 750 240 800 351 q 615 65 700 130 q 428 0 531 0 m 428 108 q 559 158 498 108 q 656 294 619 208 q 692 486 692 380 q 656 679 692 593 q 559 815 619 765 q 428 865 498 865 q 297 815 357 865 q 200 679 237 765 q 163 486 163 593 q 200 294 163 380 q 297 158 237 208 q 428 108 357 108 m 434 174 q 381 187 406 174 q 340 218 356 199 q 302 301 310 258 q 292 380 294 341 q 290 450 290 419 l 290 462 q 294 574 290 520 q 310 674 298 628 q 351 757 321 721 q 391 787 368 775 q 441 798 414 798 q 518 770 486 798 q 554 715 547 743 q 564 671 562 690 q 566 649 566 652 l 566 648 q 550 610 566 625 q 513 595 534 595 l 511 595 q 474 611 490 595 q 458 649 458 627 l 458 650 q 458 654 458 650 q 457 665 458 659 q 453 677 456 671 q 447 689 450 688 q 446 690 446 690 q 446 690 446 690 q 445 690 446 690 q 444 690 445 690 q 441 690 443 690 l 438 690 q 436 690 437 690 q 435 690 436 690 q 434 688 435 690 q 432 686 433 688 q 414 646 424 677 q 401 566 405 614 q 397 462 397 517 q 399 393 397 431 q 407 326 401 356 q 422 287 414 297 q 424 286 423 286 q 426 283 425 284 q 428 282 427 283 q 430 282 429 282 l 437 282 l 438 284 q 449 309 443 290 q 453 338 452 324 q 454 358 454 352 l 454 363 q 469 400 454 385 q 506 416 484 415 l 509 416 q 545 401 530 416 q 562 364 561 387 l 562 357 q 561 327 562 347 q 553 281 559 307 q 520 214 546 248 q 483 186 506 197 q 434 174 460 174 z "},"ª":{"ha":439,"x_min":0,"x_max":0,"o":""},"«":{"ha":668,"x_min":56,"x_max":611,"o":"m 334 264 q 307 273 321 264 l 56 435 l 56 518 l 307 680 q 334 688 319 688 l 335 688 q 382 653 368 688 q 384 639 384 646 q 361 597 384 614 l 174 477 l 361 356 q 385 315 385 339 q 376 287 385 300 q 334 264 359 264 m 561 264 q 534 273 547 264 l 283 435 l 283 518 l 534 680 q 561 688 547 688 l 562 688 q 609 653 595 688 q 611 639 611 646 q 588 597 611 614 l 401 477 l 588 356 q 611 315 611 339 q 603 288 611 301 q 561 264 585 264 z "},"¬":{"ha":446,"x_min":0,"x_max":0,"o":""},"®":{"ha":557,"x_min":56,"x_max":500,"o":"m 243 602 q 217 613 227 602 q 207 640 207 624 l 212 869 l 211 874 q 219 898 211 887 l 220 898 l 221 899 l 221 900 q 247 912 232 911 q 277 915 257 914 q 300 913 288 915 q 351 891 326 911 q 378 827 378 865 q 334 738 378 770 l 375 671 q 380 651 380 661 q 363 619 380 630 q 345 614 354 614 q 312 632 323 614 l 282 680 l 281 638 q 270 612 281 623 q 243 602 259 602 m 285 795 q 299 804 294 798 q 304 827 304 809 q 302 835 304 835 l 302 835 q 285 840 298 838 l 284 794 l 285 795 m 278 505 q 165 539 215 505 q 85 632 115 574 q 56 758 56 689 q 85 883 56 825 q 165 976 115 941 q 278 1010 215 1010 q 391 976 341 1010 q 471 883 441 941 q 500 758 500 825 q 471 632 500 689 q 391 539 441 574 q 278 505 341 505 m 278 579 q 351 603 317 579 q 405 666 385 626 q 426 758 426 707 q 405 849 426 808 q 351 912 385 889 q 278 936 317 936 q 205 912 239 936 q 151 849 172 889 q 130 758 130 808 q 151 666 130 707 q 205 603 172 626 q 278 579 239 579 z "},"¯":{"ha":631,"x_min":56,"x_max":574,"o":"m 474 764 l 155 764 q 85 793 114 764 q 56 863 56 822 q 84 933 56 905 q 154 962 113 962 l 475 962 q 545 933 516 962 q 574 863 574 905 q 545 793 574 822 q 474 764 515 764 m 530 868 q 535 871 533 869 q 537 878 537 874 l 536 881 q 500 926 528 910 q 450 943 475 943 l 447 943 q 437 933 438 943 q 440 926 437 929 q 447 924 443 924 q 490 910 467 924 q 517 876 511 896 q 521 870 518 872 q 527 868 524 868 l 530 868 z "},"°":{"ha":503,"x_min":56,"x_max":447,"o":"m 248 475 l 242 475 q 150 503 191 477 q 87 568 109 528 q 62 636 69 601 q 56 709 56 672 l 56 733 q 65 816 57 775 q 95 895 73 857 q 160 954 118 932 q 254 977 203 977 q 261 976 257 977 q 357 948 315 974 q 420 882 399 922 q 441 816 436 850 q 447 748 447 783 l 447 718 q 436 634 446 675 q 404 556 427 593 q 338 497 380 519 q 248 475 297 475 m 100 803 q 104 805 102 803 q 106 808 106 806 q 111 831 108 819 l 111 833 q 109 838 111 836 q 104 840 107 840 q 98 834 100 840 q 93 810 95 823 l 93 809 q 95 805 93 807 q 99 803 96 804 l 100 803 m 110 847 q 114 848 112 847 q 117 852 116 850 q 149 910 125 887 q 206 937 173 934 q 211 939 209 937 q 212 944 212 941 q 210 949 212 947 q 205 951 208 951 l 205 951 q 140 920 167 947 q 103 855 113 894 l 103 853 q 104 849 103 851 q 109 847 106 848 l 110 847 m 252 609 q 289 628 276 609 q 307 674 301 648 q 313 726 312 701 l 313 732 q 299 804 313 768 q 251 842 285 840 l 250 842 q 214 824 227 842 q 196 779 201 805 q 191 726 191 752 l 190 719 q 203 647 190 682 q 251 609 217 612 l 252 609 m 294 583 q 298 584 296 583 q 338 663 329 614 l 338 665 q 336 670 338 668 q 331 671 334 671 q 327 670 328 671 q 324 666 325 669 q 290 594 315 619 q 288 589 288 592 q 289 585 288 587 q 294 583 291 583 z "},"±":{"ha":733,"x_min":56,"x_max":677,"o":"m 366 226 q 296 255 326 226 q 267 323 267 283 l 267 437 l 154 437 q 84 466 113 437 q 56 536 56 495 q 85 607 56 578 q 155 636 114 636 l 267 636 l 267 748 q 295 817 267 789 q 365 848 323 846 l 366 848 q 437 818 408 848 q 466 748 466 789 l 466 636 l 578 636 q 648 607 619 636 q 677 536 677 578 q 649 466 677 495 q 579 437 620 437 l 466 437 l 466 325 q 437 255 466 284 q 366 226 408 226 m 303 771 q 308 773 306 771 q 312 777 311 774 q 338 806 319 799 q 346 815 346 809 q 343 822 346 819 q 336 825 341 825 l 333 825 q 308 809 317 820 q 294 785 298 798 l 293 781 q 299 772 293 775 l 303 771 m 96 564 q 105 570 102 564 q 132 597 113 590 q 139 607 139 601 q 137 614 139 611 q 130 617 134 617 l 129 617 q 127 617 128 617 q 126 616 127 617 q 101 601 111 612 q 87 577 92 590 l 86 573 q 92 564 86 568 l 96 564 m 578 -7 l 155 -7 q 85 22 114 -7 q 56 92 56 52 q 85 163 56 134 q 155 192 114 192 l 578 192 q 648 163 619 192 q 677 92 677 134 q 648 22 677 52 q 578 -7 619 -7 z "},"²":{"ha":359,"x_min":56,"x_max":304,"o":"m 250 556 l 109 556 q 71 573 85 556 q 56 610 56 589 q 66 642 56 627 q 86 671 66 642 q 131 744 106 700 q 174 834 156 789 q 192 898 192 880 l 189 908 q 170 904 172 907 q 170 903 170 903 q 169 903 169 903 q 168 900 168 902 q 168 895 168 899 l 168 894 q 152 856 168 872 q 114 840 136 840 q 75 857 91 840 q 60 895 60 873 q 100 986 60 948 q 141 1009 119 1002 q 185 1016 163 1016 q 250 996 224 1016 q 288 949 275 977 q 300 898 300 922 q 288 825 300 861 q 260 755 277 789 q 224 690 243 722 l 208 664 l 250 664 q 288 648 272 664 q 304 610 304 633 q 288 572 304 588 q 250 556 272 556 z "},"³":{"ha":370,"x_min":56,"x_max":313,"o":"m 186 556 q 122 573 149 556 q 82 610 96 591 q 68 634 73 623 q 61 653 63 646 q 58 661 58 661 q 56 675 56 668 q 67 707 56 692 q 97 726 79 721 q 111 728 104 728 q 143 717 129 728 q 163 687 157 706 q 163 685 163 687 q 165 680 164 683 q 170 673 167 677 q 170 673 170 673 q 176 666 173 668 q 186 664 178 664 l 187 664 q 189 664 189 664 q 192 666 190 665 q 195 672 193 668 q 206 716 206 688 q 204 722 205 720 q 199 727 203 724 q 189 732 195 730 q 182 734 184 734 l 176 734 l 171 736 q 167 736 168 736 q 165 737 166 737 l 156 741 q 147 748 151 744 q 137 760 141 753 q 134 765 135 762 l 130 775 l 129 785 l 129 791 q 130 794 129 793 q 131 802 130 798 q 137 817 133 810 l 140 821 q 144 825 142 823 q 147 829 146 827 q 150 831 149 829 q 161 838 155 835 q 166 839 163 839 l 172 841 l 176 842 l 182 842 q 190 843 185 842 q 196 847 194 844 q 199 850 197 848 q 202 857 201 852 q 203 868 203 861 l 203 872 q 200 891 203 884 q 195 903 197 899 q 193 905 194 904 q 193 906 193 905 q 193 906 193 906 q 192 906 193 906 l 190 906 q 182 905 184 906 q 178 901 180 904 q 177 899 178 900 q 172 890 174 894 q 171 887 171 887 q 151 858 165 869 q 118 846 136 846 q 104 848 111 846 q 75 868 86 854 q 64 900 64 883 q 67 916 64 908 q 72 930 67 916 q 90 963 77 945 q 129 998 104 981 q 190 1014 155 1014 q 241 1001 217 1014 q 281 968 266 988 q 311 874 311 926 l 311 871 q 288 789 311 825 q 306 758 299 775 q 313 719 313 740 l 313 711 q 286 613 313 657 q 244 573 270 589 q 186 556 218 556 z "},"´":{"ha":296,"x_min":56,"x_max":240,"o":"m 111 787 q 81 795 95 787 q 56 840 56 814 q 65 870 56 856 l 141 987 q 184 1013 156 1010 l 186 1013 q 225 996 210 1013 q 240 959 240 979 q 231 929 240 944 l 155 812 q 111 787 137 787 z "},"µ":{"ha":800,"x_min":0,"x_max":0,"o":""},"¶":{"ha":446,"x_min":0,"x_max":0,"o":""},"·":{"ha":311,"x_min":56,"x_max":254,"o":"m 155 594 q 225 562 196 594 q 254 484 254 529 q 225 405 254 437 q 155 373 196 373 q 85 405 114 373 q 56 484 56 437 q 85 562 56 529 q 155 594 114 594 z "},"∙":{"ha":311,"x_min":56,"x_max":254,"o":"m 155 594 q 225 562 196 594 q 254 484 254 529 q 225 405 254 437 q 155 373 196 373 q 85 405 114 373 q 56 484 56 437 q 85 562 56 529 q 155 594 114 594 z "},"¸":{"ha":301,"x_min":55,"x_max":245,"o":"m 113 -66 q 85 -56 98 -66 q 69 -29 73 -45 l 68 -20 q 78 8 68 -4 q 104 25 88 21 q 137 36 126 30 q 151 47 149 43 l 155 51 l 154 51 l 154 52 q 153 53 153 52 q 150 55 152 54 q 146 55 149 55 q 123 47 139 55 q 101 41 112 41 q 69 54 83 41 q 55 86 55 67 q 57 99 55 92 l 80 182 q 95 205 84 196 q 122 216 106 215 l 124 216 q 156 202 143 216 q 170 170 170 189 q 168 157 170 164 l 163 141 q 241 79 221 131 q 245 52 245 66 q 221 -12 245 18 q 123 -64 189 -50 l 113 -66 z "},"¹":{"ha":298,"x_min":56,"x_max":242,"o":"m 188 556 l 109 556 q 74 569 89 556 q 56 604 58 583 l 56 610 q 67 643 56 629 q 97 663 78 658 l 97 869 q 68 889 79 875 q 58 921 58 904 q 74 958 58 941 l 112 997 q 149 1013 127 1013 l 151 1013 q 189 998 173 1013 q 204 960 204 982 l 204 662 q 232 642 221 656 q 242 610 242 627 l 241 602 q 223 569 238 582 q 188 556 208 556 z "},"º":{"ha":511,"x_min":56,"x_max":456,"o":"m 256 1011 q 358 980 313 1011 q 429 897 403 949 q 456 784 456 845 q 429 670 456 722 q 358 587 403 618 q 256 556 313 556 q 154 587 199 556 q 82 670 109 618 q 56 784 56 722 q 82 897 56 845 q 154 980 109 949 q 256 1011 199 1011 m 256 623 q 349 669 309 623 q 389 784 389 715 q 349 898 389 852 q 256 944 309 944 q 163 898 203 944 q 123 784 123 852 q 163 669 123 715 q 256 623 203 623 z "},"»":{"ha":668,"x_min":56,"x_max":612,"o":"m 334 264 q 291 286 309 264 q 283 313 283 300 q 307 355 283 338 l 494 476 l 307 596 q 283 640 283 613 q 285 652 283 646 q 303 678 290 668 q 332 688 316 688 l 335 688 q 361 680 349 688 l 612 517 l 612 434 l 361 272 q 334 264 348 264 m 106 264 q 64 286 82 264 q 56 313 56 300 q 80 355 56 338 l 267 476 l 80 596 q 56 638 56 613 q 58 652 56 645 q 76 678 63 668 q 105 688 89 688 l 108 688 q 134 680 121 688 l 385 517 l 385 434 l 134 272 q 106 264 120 264 z "},"¼":{"ha":828,"x_min":56,"x_max":772,"o":"m 188 534 l 109 534 q 74 548 89 534 q 56 582 58 561 l 56 589 q 66 622 56 607 q 96 641 77 636 l 96 847 q 68 868 78 853 q 58 899 58 882 q 74 937 58 920 l 111 975 q 149 991 128 991 l 151 991 q 189 976 173 991 q 204 938 204 960 l 204 640 q 232 620 221 634 q 242 589 242 606 l 241 581 q 222 547 237 560 q 188 534 208 534 m 718 6 q 680 22 696 6 q 665 60 665 37 l 665 112 q 623 111 636 111 q 603 111 610 111 q 590 110 597 111 q 572 110 584 110 q 536 110 560 110 q 498 126 513 110 q 482 163 482 142 q 485 179 482 172 l 557 424 q 576 452 562 441 q 608 463 590 463 l 608 463 q 647 447 632 463 q 663 410 663 431 q 661 393 663 401 l 609 218 l 665 220 l 665 412 q 680 450 665 434 q 718 466 694 465 l 718 466 q 756 450 741 466 q 772 412 772 435 l 772 60 q 756 22 772 37 q 718 6 741 6 m 210 0 q 178 7 193 0 q 146 36 157 18 q 135 75 135 54 q 143 108 135 92 l 544 936 q 612 979 569 979 l 614 979 q 666 955 646 977 q 686 905 686 933 q 678 871 686 888 l 277 43 q 249 11 267 22 q 210 0 231 0 z "},"½":{"ha":842,"x_min":56,"x_max":786,"o":"m 732 1 l 591 1 q 552 17 568 1 q 537 54 537 33 q 548 85 537 70 l 568 115 q 656 278 625 200 q 674 342 674 323 l 670 352 l 665 351 q 651 348 653 349 q 650 345 650 346 q 634 300 650 315 q 596 285 618 285 q 557 301 573 285 q 542 339 542 317 q 583 431 542 393 q 668 460 618 460 q 720 447 696 460 q 757 416 743 434 q 782 342 782 379 q 770 266 782 302 q 741 197 758 230 q 707 136 724 165 l 690 109 l 732 109 q 770 93 754 109 q 786 54 786 77 q 770 16 786 32 q 732 1 754 1 m 209 0 q 157 22 179 0 q 135 75 135 44 q 143 109 135 92 l 544 937 q 612 980 569 980 q 666 956 646 978 q 686 905 686 934 q 678 871 686 888 l 277 43 q 249 11 267 22 q 209 0 230 0 m 188 535 l 109 535 q 71 550 85 535 q 56 589 57 565 q 67 622 56 608 q 97 642 78 636 l 97 848 q 68 868 79 854 q 58 900 58 883 q 74 937 58 920 l 112 976 q 149 992 127 992 q 189 976 173 992 q 204 939 204 960 l 204 641 q 232 621 221 635 q 242 589 242 606 q 188 535 235 535 z "},"¾":{"ha":836,"x_min":56,"x_max":781,"o":"m 190 884 q 182 883 184 884 q 178 879 180 882 q 177 877 178 878 q 173 869 174 872 q 172 867 172 867 q 171 866 172 866 l 171 865 q 151 836 165 847 q 118 825 136 825 q 104 827 111 825 q 76 847 86 832 q 65 878 65 861 q 67 894 65 886 l 67 895 l 68 895 q 73 909 68 898 q 91 941 78 923 q 129 976 104 960 q 190 992 155 992 q 242 979 218 992 q 281 946 266 966 q 311 852 311 905 l 311 849 q 288 768 311 803 q 306 736 299 753 q 313 697 313 718 l 313 690 q 286 591 313 635 q 244 551 270 568 q 186 534 218 534 q 123 552 149 534 q 82 589 96 569 q 68 612 73 601 q 61 631 63 624 q 59 636 60 634 l 59 637 q 58 639 58 638 q 56 653 56 646 q 67 685 56 671 q 97 705 79 699 q 111 707 104 707 q 143 695 129 707 q 162 665 157 684 l 162 665 q 163 664 163 665 l 164 661 q 170 652 165 657 q 171 650 170 651 q 176 644 173 646 q 186 642 178 642 l 187 642 q 190 643 189 642 q 192 645 191 643 q 195 650 193 646 q 206 694 206 666 q 205 700 206 698 q 199 705 203 703 q 190 711 195 709 q 182 713 184 713 l 176 713 l 171 714 q 167 715 168 714 q 165 715 166 715 l 156 720 q 147 726 151 722 q 137 739 141 732 q 134 743 135 741 q 131 753 132 749 q 130 759 130 756 l 129 764 l 129 769 q 130 772 129 771 q 131 780 130 777 q 137 795 133 788 l 140 799 q 146 805 142 802 l 148 807 q 161 816 154 812 l 172 819 l 177 820 l 182 820 q 190 821 185 820 q 196 825 194 823 q 200 829 198 827 q 202 836 201 831 q 203 850 203 841 q 195 881 201 874 q 194 883 194 882 q 193 884 193 884 l 190 884 m 219 0 q 186 7 203 0 q 155 36 166 18 q 144 75 144 54 q 152 108 144 92 l 553 936 q 621 979 578 979 l 623 979 q 675 955 655 977 q 695 905 695 933 q 687 871 695 888 l 286 43 q 258 11 276 22 q 219 0 240 0 m 727 6 q 689 22 705 6 q 673 60 673 37 l 673 112 q 632 111 645 111 q 612 111 618 111 q 600 110 606 111 q 581 110 593 110 q 545 110 569 110 q 507 126 522 110 q 492 163 492 142 q 494 179 492 171 l 566 424 q 616 463 579 460 l 618 463 q 656 447 641 463 q 672 410 672 431 q 669 393 672 401 l 618 218 l 673 220 l 673 412 q 689 449 673 434 q 726 466 704 465 l 728 466 q 766 450 750 466 q 781 411 781 433 l 781 61 q 766 22 781 38 q 727 6 750 6 z "},"¿":{"ha":604,"x_min":56,"x_max":547,"o":"m 354 710 q 425 681 396 710 q 454 609 453 652 q 433 493 454 545 q 384 401 413 441 q 328 332 355 361 q 272 264 290 289 q 254 222 254 239 q 266 203 254 211 q 298 195 278 195 q 338 201 325 195 l 349 208 q 341 246 341 228 q 349 285 341 266 q 404 338 365 321 q 441 345 423 345 q 481 336 462 345 q 534 281 517 320 q 547 209 547 243 q 534 144 547 175 q 444 40 508 80 q 298 0 380 0 q 172 34 227 0 q 86 119 117 67 q 56 227 56 172 q 115 389 56 316 q 180 465 135 416 q 236 534 216 503 q 255 609 255 566 q 284 681 256 652 q 354 710 313 710 m 495 148 q 486 142 488 148 q 352 41 441 64 q 344 32 344 39 q 353 22 344 23 l 356 22 q 503 133 454 46 q 505 138 505 136 l 505 140 q 495 148 502 148 m 517 235 q 507 224 507 235 l 507 213 q 503 178 507 195 l 502 174 q 511 165 502 165 q 521 172 518 165 q 528 215 528 195 q 524 232 528 229 q 517 235 521 235 m 374 467 q 368 463 370 466 q 251 313 326 391 q 231 288 231 292 q 241 278 231 278 q 249 281 245 278 q 266 299 257 290 q 385 452 343 382 q 387 457 387 455 q 376 467 387 467 l 374 467 m 357 975 q 427 942 398 975 q 456 864 456 910 q 427 786 456 819 q 357 754 398 754 q 287 786 316 754 q 258 864 258 819 q 287 942 258 910 q 357 975 316 975 m 433 862 q 423 854 426 862 q 404 812 414 826 q 402 806 402 809 q 412 796 402 798 q 434 825 422 798 q 443 852 443 848 q 441 857 443 854 q 437 861 440 860 q 433 862 435 862 z "},"À":{"ha":737,"x_min":56,"x_max":681,"o":"m 582 0 q 518 24 546 0 q 483 86 490 47 l 452 264 l 292 261 q 282 217 287 239 q 252 81 267 151 q 218 23 245 45 q 155 1 190 1 q 134 3 145 1 q 77 38 99 11 q 56 98 56 64 l 58 121 q 281 899 153 587 q 307 943 289 924 l 313 947 q 379 973 342 973 q 420 965 400 973 q 461 940 446 954 q 497 893 486 916 q 537 791 520 847 q 606 515 574 670 q 659 238 638 360 q 679 117 679 117 l 681 99 q 658 36 681 63 q 597 1 635 9 l 582 0 m 250 736 q 256 738 253 736 q 260 743 258 740 q 267 770 263 756 q 297 861 280 818 q 358 936 321 919 q 366 946 366 940 q 363 952 366 949 q 357 956 361 956 l 351 956 q 309 922 326 945 q 279 869 292 899 q 248 774 260 822 q 240 749 243 761 l 240 746 q 247 736 240 741 l 250 736 m 225 648 q 235 655 232 648 l 247 700 l 248 703 q 245 710 248 707 q 237 713 242 713 q 231 711 234 713 q 228 705 229 709 l 215 661 l 215 658 q 222 648 215 651 l 225 648 m 343 461 l 414 463 q 384 597 399 532 l 343 461 m 443 488 q 450 497 450 490 l 431 589 q 420 597 427 597 q 411 587 412 597 l 431 496 q 434 489 431 492 q 441 487 437 487 l 443 488 m 375 1017 q 329 1042 348 1017 l 253 1160 q 244 1190 244 1175 q 259 1227 244 1211 q 298 1244 275 1244 q 344 1218 328 1242 l 419 1101 q 429 1071 429 1086 q 404 1025 429 1045 q 375 1017 390 1017 z "},"Á":{"ha":737,"x_min":56,"x_max":681,"o":"m 582 0 q 518 24 546 0 q 483 86 490 47 l 452 264 l 292 261 q 282 217 287 239 q 252 81 267 151 q 218 23 245 45 q 155 1 190 1 q 134 3 145 1 q 77 38 99 11 q 56 98 56 64 l 58 121 q 281 899 153 587 q 307 943 289 924 l 313 947 q 379 973 342 973 q 420 965 400 973 q 461 940 446 954 q 497 893 486 916 q 537 791 520 847 q 606 515 574 670 q 659 238 638 360 q 679 117 679 117 l 681 99 q 658 36 681 63 q 597 1 635 9 l 582 0 m 250 736 q 256 738 253 736 q 260 743 258 740 q 267 770 263 756 q 297 861 280 818 q 358 936 321 919 q 366 946 366 940 q 363 952 366 949 q 357 956 361 956 l 351 956 q 309 922 326 945 q 279 869 292 899 q 248 774 260 822 q 240 749 243 761 l 240 746 q 247 736 240 741 l 250 736 m 225 648 q 235 655 232 648 l 247 700 l 248 703 q 245 710 248 707 q 237 713 242 713 q 231 711 234 713 q 228 705 229 709 l 215 661 l 215 658 q 222 648 215 651 l 225 648 m 343 461 l 414 463 q 384 597 399 532 l 343 461 m 443 488 q 450 497 450 490 l 431 589 q 420 597 427 597 q 411 587 412 597 l 431 496 q 434 489 431 492 q 441 487 437 487 l 443 488 m 361 1017 q 332 1026 346 1017 q 307 1071 307 1044 q 316 1101 307 1086 l 392 1218 q 435 1243 407 1241 l 437 1243 q 476 1226 461 1243 q 491 1190 491 1210 q 482 1160 491 1175 l 406 1042 q 361 1017 388 1017 z "},"Â":{"ha":737,"x_min":56,"x_max":681,"o":"m 582 0 q 518 24 546 0 q 483 86 490 47 l 452 264 l 292 261 q 282 217 287 239 q 252 81 267 151 q 218 23 245 45 q 155 1 190 1 q 134 3 145 1 q 77 38 99 11 q 56 98 56 64 l 58 121 q 281 899 153 587 q 307 943 289 924 l 313 947 q 379 973 342 973 q 420 965 400 973 q 461 940 446 954 q 497 893 486 916 q 537 791 520 847 q 606 515 574 670 q 659 238 638 360 q 679 117 679 117 l 681 99 q 658 36 681 63 q 597 1 635 9 l 582 0 m 250 736 q 256 738 253 736 q 260 743 258 740 q 267 770 263 756 q 297 861 280 818 q 358 936 321 919 q 366 946 366 940 q 363 952 366 949 q 357 956 361 956 l 351 956 q 309 922 326 945 q 279 869 292 899 q 248 774 260 822 q 240 749 243 761 l 240 746 q 247 736 240 741 l 250 736 m 225 648 q 235 655 232 648 l 247 700 l 248 703 q 245 710 248 707 q 237 713 242 713 q 231 711 234 713 q 228 705 229 709 l 215 661 l 215 658 q 222 648 215 651 l 225 648 m 343 461 l 414 463 q 384 597 399 532 l 343 461 m 443 488 q 450 497 450 490 l 431 589 q 420 597 427 597 q 411 587 412 597 l 431 496 q 434 489 431 492 q 441 487 437 487 l 443 488 m 463 1017 q 418 1042 437 1017 l 378 1101 l 338 1042 q 292 1017 319 1017 q 262 1027 277 1017 q 239 1072 239 1046 q 248 1102 239 1087 l 333 1227 q 376 1251 350 1251 l 378 1251 q 422 1227 405 1251 l 507 1102 q 517 1071 517 1087 q 493 1027 517 1045 q 463 1017 478 1017 z "},"Ã":{"ha":737,"x_min":56,"x_max":681,"o":"m 582 0 q 518 24 546 0 q 483 86 490 47 l 452 264 l 292 261 q 282 217 287 239 q 252 81 267 151 q 218 23 245 45 q 155 1 190 1 q 134 3 145 1 q 77 38 99 11 q 56 98 56 64 l 58 121 q 281 899 153 587 q 307 943 289 924 l 313 947 q 379 973 342 973 q 420 965 400 973 q 461 940 446 954 q 497 893 486 916 q 537 791 520 847 q 606 515 574 670 q 659 238 638 360 q 679 117 679 117 l 681 99 q 658 36 681 63 q 597 1 635 9 l 582 0 m 250 736 q 256 738 253 736 q 260 743 258 740 q 267 770 263 756 q 297 861 280 818 q 358 936 321 919 q 366 946 366 940 q 363 952 366 949 q 357 956 361 956 l 351 956 q 309 922 326 945 q 279 869 292 899 q 248 774 260 822 q 240 749 243 761 l 240 746 q 247 736 240 741 l 250 736 m 225 648 q 235 655 232 648 l 247 700 l 248 703 q 245 710 248 707 q 237 713 242 713 q 231 711 234 713 q 228 705 229 709 l 215 661 l 215 658 q 222 648 215 651 l 225 648 m 343 461 l 414 463 q 384 597 399 532 l 343 461 m 443 488 q 450 497 450 490 l 431 589 q 420 597 427 597 q 411 587 412 597 l 431 496 q 434 489 431 492 q 441 487 437 487 l 443 488 m 317 1017 l 313 1017 q 259 1042 283 1019 q 229 1095 238 1063 q 227 1109 227 1103 q 240 1141 227 1127 q 273 1154 253 1154 l 274 1154 q 301 1145 289 1154 q 317 1122 313 1137 q 319 1116 318 1118 q 320 1113 319 1114 q 321 1111 321 1112 q 322 1111 322 1111 q 349 1123 327 1112 q 360 1130 355 1126 q 421 1152 382 1146 l 429 1153 q 453 1149 441 1153 q 476 1137 466 1145 q 508 1086 500 1116 q 510 1074 510 1080 q 479 1030 510 1045 q 465 1028 472 1028 q 439 1036 451 1028 q 422 1057 427 1044 q 418 1056 420 1057 q 393 1043 411 1053 q 386 1040 390 1041 q 356 1024 373 1031 q 317 1017 340 1017 z "},"Ä":{"ha":737,"x_min":56,"x_max":681,"o":"m 582 0 q 518 24 546 0 q 483 86 490 47 l 452 264 l 292 261 q 282 217 287 239 q 252 81 267 151 q 218 23 245 45 q 155 1 190 1 q 134 3 145 1 q 77 38 99 11 q 56 98 56 64 l 58 121 q 281 899 153 587 q 307 943 289 924 l 313 947 q 379 973 342 973 q 420 965 400 973 q 461 940 446 954 q 497 893 486 916 q 537 791 520 847 q 606 515 574 670 q 659 238 638 360 q 679 117 679 117 l 681 99 q 658 36 681 63 q 597 1 635 9 l 582 0 m 250 736 q 256 738 253 736 q 260 743 258 740 q 267 770 263 756 q 297 861 280 818 q 358 936 321 919 q 366 946 366 940 q 363 952 366 949 q 357 956 361 956 l 351 956 q 309 922 326 945 q 279 869 292 899 q 248 774 260 822 q 240 749 243 761 l 240 746 q 247 736 240 741 l 250 736 m 225 648 q 235 655 232 648 l 247 700 l 248 703 q 245 710 248 707 q 237 713 242 713 q 231 711 234 713 q 228 705 229 709 l 215 661 l 215 658 q 222 648 215 651 l 225 648 m 343 461 l 414 463 q 384 597 399 532 l 343 461 m 443 488 q 450 497 450 490 l 431 589 q 420 597 427 597 q 411 587 412 597 l 431 496 q 434 489 431 492 q 441 487 437 487 l 443 488 m 290 1166 q 343 1144 321 1166 q 365 1092 365 1122 q 343 1039 365 1061 q 290 1017 321 1017 q 237 1039 259 1017 q 216 1092 216 1061 q 237 1144 216 1122 q 290 1166 259 1166 m 469 1166 q 522 1144 500 1166 q 543 1092 543 1122 q 522 1039 543 1061 q 469 1017 500 1017 q 416 1039 438 1017 q 394 1092 394 1061 q 416 1144 394 1122 q 469 1166 438 1166 z "},"Å":{"ha":737,"x_min":56,"x_max":681,"o":"m 582 0 q 518 24 546 0 q 483 86 490 47 l 452 264 l 292 261 q 282 217 287 239 q 252 81 267 151 q 218 23 245 45 q 155 1 190 1 q 134 3 145 1 q 77 38 99 11 q 56 98 56 64 l 58 121 q 281 899 153 587 q 307 943 289 924 l 313 947 q 379 973 342 973 q 420 965 400 973 q 461 940 446 954 q 497 893 486 916 q 537 791 520 847 q 606 515 574 670 q 659 238 638 360 q 679 117 679 117 l 681 99 q 658 36 681 63 q 597 1 635 9 l 582 0 m 250 736 q 256 738 253 736 q 260 743 258 740 q 267 770 263 756 q 297 861 280 818 q 358 936 321 919 q 366 946 366 940 q 363 952 366 949 q 357 956 361 956 l 351 956 q 309 922 326 945 q 279 869 292 899 q 248 774 260 822 q 240 749 243 761 l 240 746 q 247 736 240 741 l 250 736 m 225 648 q 235 655 232 648 l 247 700 l 248 703 q 245 710 248 707 q 237 713 242 713 q 231 711 234 713 q 228 705 229 709 l 215 661 l 215 658 q 222 648 215 651 l 225 648 m 343 461 l 414 463 q 384 597 399 532 l 343 461 m 443 488 q 450 497 450 490 l 431 589 q 420 597 427 597 q 411 587 412 597 l 431 496 q 434 489 431 492 q 441 487 437 487 l 443 488 m 454 1207 q 473 1171 468 1190 q 479 1131 479 1151 q 473 1090 479 1109 q 454 1053 467 1070 q 375 1017 422 1017 q 296 1053 328 1017 q 277 1090 283 1070 q 271 1131 271 1109 q 277 1171 271 1151 q 296 1207 283 1190 q 375 1243 328 1243 q 454 1207 423 1243 m 396 1100 q 404 1131 404 1109 q 396 1160 404 1152 q 389 1167 393 1164 q 375 1169 385 1169 q 361 1167 366 1169 q 354 1160 357 1164 q 346 1131 346 1152 q 354 1100 346 1109 q 361 1094 357 1096 q 375 1092 366 1092 q 389 1094 385 1092 q 396 1100 393 1096 z "},"Æ":{"ha":1105,"x_min":56,"x_max":1050,"o":"m 837 519 l 894 520 q 911 521 902 521 q 921 531 920 521 q 911 541 921 541 l 836 539 q 829 536 832 539 q 826 529 826 533 q 837 519 827 519 m 1015 103 q 1023 113 1023 104 q 987 161 1019 142 q 932 178 960 178 q 923 168 923 178 q 933 159 923 159 q 976 145 954 159 q 1004 111 998 132 q 1015 103 1006 103 m 454 727 q 464 733 460 727 q 471 745 467 739 q 536 839 500 794 q 612 890 572 884 q 621 901 621 891 q 610 910 619 910 q 524 855 562 902 q 454 755 485 808 l 446 743 q 444 737 444 740 q 448 730 444 733 q 454 727 451 727 m 599 452 q 608 461 608 452 l 608 555 q 605 562 608 559 q 597 565 602 565 q 587 555 587 564 l 589 463 q 599 452 589 452 m 557 457 q 559 614 557 537 q 458 458 508 541 l 532 460 q 557 457 545 460 m 406 650 q 414 654 411 650 q 441 699 441 696 q 431 709 441 709 q 422 705 426 709 l 397 665 q 396 660 396 663 q 399 653 396 656 q 406 650 402 650 m 155 -3 q 85 26 115 -3 q 56 96 56 55 q 179 369 56 136 l 213 431 q 555 934 373 724 q 631 969 587 969 q 669 962 650 969 q 732 968 702 968 q 826 967 785 968 q 947 966 878 966 q 1018 937 989 966 q 1047 867 1047 908 q 1018 796 1047 825 q 947 767 989 767 l 766 769 q 759 556 761 683 l 920 559 q 989 531 960 559 q 1019 460 1018 503 q 990 390 1019 419 q 920 360 962 360 l 758 357 q 762 197 759 267 q 844 199 795 197 q 951 201 896 200 q 1021 172 991 201 q 1050 102 1050 142 q 1021 31 1050 60 q 950 2 991 2 q 852 0 902 2 q 759 -1 802 -1 q 677 3 716 -1 l 673 4 q 594 51 627 9 q 570 105 575 73 q 559 264 563 170 q 345 258 548 261 q 245 56 294 160 q 208 12 233 27 q 155 -3 183 -3 z "},"Œ":{"ha":985,"x_min":56,"x_max":929,"o":"m 341 -2 l 330 -2 q 185 57 245 4 q 96 182 124 110 q 64 308 73 241 q 56 446 56 375 l 56 494 q 68 654 58 577 q 107 801 79 732 q 201 922 136 872 q 345 966 267 966 l 361 965 q 483 926 429 961 l 488 931 q 541 960 519 956 q 612 968 579 969 q 617 968 614 968 l 637 968 q 709 967 670 968 q 825 966 760 966 l 828 966 q 897 937 869 966 q 926 867 926 908 q 897 796 926 825 q 827 767 868 767 l 825 767 q 705 768 753 767 q 645 769 671 769 q 638 556 641 683 l 800 559 q 868 531 840 559 q 899 461 897 503 l 899 460 q 869 390 899 419 q 799 360 840 360 l 637 357 q 641 197 638 267 q 720 199 675 197 q 828 201 772 201 l 829 201 q 900 172 871 201 q 929 102 929 142 q 900 31 929 60 q 829 2 871 2 l 828 2 q 730 0 781 2 q 638 -1 682 -1 q 557 3 595 -1 q 553 4 555 4 q 508 19 535 6 q 479 43 495 26 q 341 -2 418 -2 m 715 519 q 747 520 734 519 q 772 520 760 520 q 789 521 781 521 q 800 531 799 521 q 797 538 800 535 q 789 541 793 541 l 715 539 q 708 536 711 539 q 705 529 705 533 q 708 522 705 525 q 714 519 710 519 l 715 519 m 114 634 q 121 636 118 634 q 124 643 123 639 q 132 689 127 665 l 132 691 q 130 698 132 695 q 122 701 127 701 q 116 699 119 701 q 113 693 113 696 q 104 646 108 669 l 104 644 q 107 637 104 640 q 113 634 109 635 l 114 634 m 133 724 q 139 726 136 724 q 142 731 141 728 q 200 851 157 803 q 302 906 243 899 q 309 910 306 907 q 311 917 311 913 q 308 924 311 921 q 301 926 305 926 q 301 926 301 926 q 300 926 300 926 q 300 926 300 926 q 300 926 300 926 q 300 926 300 926 q 186 865 233 918 q 122 735 139 812 l 122 734 q 130 724 122 726 l 133 724 m 345 197 q 390 219 372 197 q 416 278 407 241 q 430 356 426 314 q 435 439 435 398 l 435 513 q 432 598 435 554 q 420 680 429 642 q 394 742 412 718 q 345 766 376 766 q 294 738 312 766 q 267 665 275 709 q 257 571 258 621 q 255 481 255 522 q 258 392 255 441 q 269 298 260 342 q 296 225 278 254 q 345 197 315 197 m 416 184 q 424 187 420 184 q 460 262 448 218 q 475 355 473 307 l 475 355 q 473 362 475 359 q 466 365 470 365 l 465 365 q 458 362 461 365 q 456 356 456 359 q 441 267 453 309 q 409 200 429 225 q 406 193 406 197 q 410 186 406 189 q 416 184 413 184 m 895 103 q 900 106 898 104 q 902 113 902 109 l 901 116 q 865 161 892 145 q 814 178 840 178 l 812 178 q 802 168 803 178 q 805 161 802 164 q 812 159 808 159 q 854 145 831 159 q 882 111 876 131 q 886 105 883 107 q 892 103 889 103 l 895 103 z "},"Ç":{"ha":644,"x_min":56,"x_max":589,"o":"m 119 733 q 125 735 123 733 q 129 741 128 737 q 199 862 149 817 q 309 913 250 907 q 315 917 313 914 q 318 922 318 919 l 318 924 q 315 930 318 928 q 308 933 312 933 l 307 933 q 186 877 240 926 q 110 745 132 827 l 109 743 q 117 733 109 736 l 119 733 m 416 314 q 422 316 419 314 q 425 321 425 318 q 448 353 430 342 q 454 362 454 357 q 451 369 454 366 q 444 372 449 372 q 442 372 443 372 q 439 371 441 372 q 417 351 425 363 q 406 326 410 339 l 406 323 q 413 314 406 317 l 416 314 m 100 644 q 107 647 104 644 q 110 652 110 649 q 116 686 113 669 q 118 699 117 692 l 118 701 q 115 708 118 705 q 109 711 113 711 q 102 708 105 711 q 99 703 100 706 q 90 655 94 679 l 90 654 q 93 648 90 650 q 99 644 95 645 l 100 644 m 263 14 q 220 33 240 22 q 121 127 159 66 q 72 267 86 189 q 56 447 58 345 l 56 499 q 66 662 56 587 q 103 800 77 736 q 202 921 135 873 q 351 969 269 969 q 440 949 400 969 q 509 902 481 930 q 552 845 537 873 q 580 770 573 802 l 580 768 q 581 766 580 767 l 581 764 l 581 763 l 581 760 l 582 760 q 586 739 585 743 l 586 738 l 587 726 q 562 660 587 688 q 498 627 536 632 l 488 626 q 421 651 449 626 q 388 717 393 677 q 369 759 384 747 q 341 770 355 770 q 312 760 325 770 q 286 722 298 750 q 255 451 255 644 q 268 305 255 361 q 293 229 280 250 q 314 200 303 210 q 340 191 325 191 q 366 203 355 191 q 382 228 377 214 q 388 262 387 245 q 389 287 389 279 l 389 302 q 413 368 389 340 q 481 400 437 396 l 489 400 q 557 373 530 400 q 588 307 585 347 l 589 284 q 586 235 589 265 q 572 171 583 205 q 549 115 564 144 q 507 59 534 85 q 355 0 444 0 l 353 0 q 351 -10 352 -5 l 346 -26 q 424 -89 404 -37 q 428 -116 428 -102 q 404 -180 428 -149 q 307 -232 372 -218 l 296 -233 q 268 -223 281 -233 q 252 -197 256 -213 l 251 -187 q 261 -159 251 -172 q 288 -142 271 -146 q 320 -131 309 -138 q 334 -121 332 -125 l 338 -117 l 337 -117 l 337 -116 q 336 -114 336 -115 q 333 -113 335 -113 q 330 -113 332 -113 q 306 -121 322 -113 q 284 -126 295 -126 q 252 -113 266 -126 q 238 -81 238 -100 q 240 -68 238 -75 l 263 14 z "},"È":{"ha":606,"x_min":56,"x_max":550,"o":"m 259 -1 q 178 4 215 -1 q 174 5 176 5 q 129 20 156 7 q 93 51 113 28 q 69 106 74 73 l 70 105 q 56 448 56 250 q 61 681 56 568 q 73 860 65 793 l 73 858 q 84 898 75 878 q 109 932 94 918 q 161 960 140 957 q 201 967 183 966 q 238 968 218 968 q 258 969 247 969 q 330 968 291 969 q 446 966 380 966 l 448 966 q 518 938 489 966 q 547 867 547 909 q 518 797 547 826 q 448 768 489 768 l 446 768 q 326 769 374 768 q 266 770 292 770 q 259 557 261 684 l 420 559 q 489 532 460 559 q 519 462 517 504 l 519 460 q 490 390 519 420 q 420 361 461 361 l 258 358 q 262 198 258 270 q 341 199 296 198 q 449 201 394 201 l 450 201 q 521 172 492 201 q 550 102 550 143 q 521 32 550 61 q 450 3 492 3 l 449 3 q 351 1 401 3 q 259 -1 302 -1 m 117 732 q 124 735 121 732 q 127 742 127 738 q 127 762 127 752 q 142 874 127 830 q 224 928 157 918 q 230 932 228 929 q 233 939 233 935 q 229 946 232 943 q 222 948 227 948 l 220 948 q 125 883 143 935 q 107 752 106 830 q 107 743 107 747 q 110 736 107 739 q 117 732 113 733 m 113 644 q 119 646 117 644 q 122 653 122 649 l 125 701 q 122 707 125 704 q 116 710 119 710 l 115 710 q 109 707 111 710 q 106 701 106 705 q 104 672 104 684 q 102 654 103 664 q 105 647 102 650 q 112 644 108 644 l 113 644 m 345 526 l 420 528 q 427 530 424 528 q 429 536 429 533 l 429 538 q 427 545 429 542 q 420 547 424 547 l 345 546 q 338 543 341 546 q 335 536 335 541 q 338 529 335 532 q 345 526 341 526 m 522 110 l 524 111 q 530 114 528 111 q 532 120 532 117 l 532 123 q 496 169 522 151 q 441 186 469 186 q 434 183 437 186 q 431 176 431 180 q 442 165 433 165 l 444 165 q 485 152 463 165 q 512 117 506 138 q 516 112 513 114 q 522 110 519 110 m 310 1017 q 264 1042 283 1017 l 188 1160 q 179 1190 179 1175 q 194 1227 179 1211 q 233 1244 210 1244 q 279 1218 262 1242 l 354 1101 q 363 1071 363 1086 q 339 1025 363 1045 q 310 1017 325 1017 z "},"É":{"ha":606,"x_min":56,"x_max":550,"o":"m 259 -1 q 178 4 215 -1 q 174 5 176 5 q 129 20 156 7 q 93 51 113 28 q 69 106 74 73 l 70 105 q 56 448 56 250 q 61 681 56 568 q 73 860 65 793 l 73 858 q 84 898 75 878 q 109 932 94 918 q 161 960 140 957 q 201 967 183 966 q 238 968 218 968 q 258 969 247 969 q 330 968 291 969 q 446 966 380 966 l 448 966 q 518 938 489 966 q 547 867 547 909 q 518 797 547 826 q 448 768 489 768 l 446 768 q 326 769 374 768 q 266 770 292 770 q 259 557 261 684 l 420 559 q 489 532 460 559 q 519 462 517 504 l 519 460 q 490 390 519 420 q 420 361 461 361 l 258 358 q 262 198 258 270 q 341 199 296 198 q 449 201 394 201 l 450 201 q 521 172 492 201 q 550 102 550 143 q 521 32 550 61 q 450 3 492 3 l 449 3 q 351 1 401 3 q 259 -1 302 -1 m 117 732 q 124 735 121 732 q 127 742 127 738 q 127 762 127 752 q 142 874 127 830 q 224 928 157 918 q 230 932 228 929 q 233 939 233 935 q 229 946 232 943 q 222 948 227 948 l 220 948 q 125 883 143 935 q 107 752 106 830 q 107 743 107 747 q 110 736 107 739 q 117 732 113 733 m 113 644 q 119 646 117 644 q 122 653 122 649 l 125 701 q 122 707 125 704 q 116 710 119 710 l 115 710 q 109 707 111 710 q 106 701 106 705 q 104 672 104 684 q 102 654 103 664 q 105 647 102 650 q 112 644 108 644 l 113 644 m 345 526 l 420 528 q 427 530 424 528 q 429 536 429 533 l 429 538 q 427 545 429 542 q 420 547 424 547 l 345 546 q 338 543 341 546 q 335 536 335 541 q 338 529 335 532 q 345 526 341 526 m 522 110 l 524 111 q 530 114 528 111 q 532 120 532 117 l 532 123 q 496 169 522 151 q 441 186 469 186 q 434 183 437 186 q 431 176 431 180 q 442 165 433 165 l 444 165 q 485 152 463 165 q 512 117 506 138 q 516 112 513 114 q 522 110 519 110 m 296 1017 q 267 1026 281 1017 q 242 1071 242 1044 q 251 1101 242 1086 l 327 1218 q 370 1243 342 1241 l 372 1243 q 411 1226 396 1243 q 426 1190 426 1210 q 417 1160 426 1175 l 341 1042 q 296 1017 323 1017 z "},"Ê":{"ha":606,"x_min":56,"x_max":550,"o":"m 259 -1 q 178 4 215 -1 q 174 5 176 5 q 129 20 156 7 q 93 51 113 28 q 69 106 74 73 l 70 105 q 56 448 56 250 q 61 681 56 568 q 73 860 65 793 l 73 858 q 84 898 75 878 q 109 932 94 918 q 161 960 140 957 q 201 967 183 966 q 238 968 218 968 q 258 969 247 969 q 330 968 291 969 q 446 966 380 966 l 448 966 q 518 938 489 966 q 547 867 547 909 q 518 797 547 826 q 448 768 489 768 l 446 768 q 326 769 374 768 q 266 770 292 770 q 259 557 261 684 l 420 559 q 489 532 460 559 q 519 462 517 504 l 519 460 q 490 390 519 420 q 420 361 461 361 l 258 358 q 262 198 258 270 q 341 199 296 198 q 449 201 394 201 l 450 201 q 521 172 492 201 q 550 102 550 143 q 521 32 550 61 q 450 3 492 3 l 449 3 q 351 1 401 3 q 259 -1 302 -1 m 117 732 q 124 735 121 732 q 127 742 127 738 q 127 762 127 752 q 142 874 127 830 q 224 928 157 918 q 230 932 228 929 q 233 939 233 935 q 229 946 232 943 q 222 948 227 948 l 220 948 q 125 883 143 935 q 107 752 106 830 q 107 743 107 747 q 110 736 107 739 q 117 732 113 733 m 113 644 q 119 646 117 644 q 122 653 122 649 l 125 701 q 122 707 125 704 q 116 710 119 710 l 115 710 q 109 707 111 710 q 106 701 106 705 q 104 672 104 684 q 102 654 103 664 q 105 647 102 650 q 112 644 108 644 l 113 644 m 345 526 l 420 528 q 427 530 424 528 q 429 536 429 533 l 429 538 q 427 545 429 542 q 420 547 424 547 l 345 546 q 338 543 341 546 q 335 536 335 541 q 338 529 335 532 q 345 526 341 526 m 522 110 l 524 111 q 530 114 528 111 q 532 120 532 117 l 532 123 q 496 169 522 151 q 441 186 469 186 q 434 183 437 186 q 431 176 431 180 q 442 165 433 165 l 444 165 q 485 152 463 165 q 512 117 506 138 q 516 112 513 114 q 522 110 519 110 m 389 1017 q 343 1042 362 1017 l 303 1101 l 263 1042 q 218 1017 244 1017 q 188 1027 202 1017 q 164 1072 164 1046 q 174 1102 164 1087 l 258 1227 q 302 1251 275 1251 l 304 1251 q 348 1227 330 1251 l 432 1102 q 442 1071 442 1087 q 418 1027 442 1045 q 389 1017 404 1017 z "},"Ë":{"ha":606,"x_min":56,"x_max":550,"o":"m 259 -1 q 178 4 215 -1 q 174 5 176 5 q 129 20 156 7 q 93 51 113 28 q 69 106 74 73 l 70 105 q 56 448 56 250 q 61 681 56 568 q 73 860 65 793 l 73 858 q 84 898 75 878 q 109 932 94 918 q 161 960 140 957 q 201 967 183 966 q 238 968 218 968 q 258 969 247 969 q 330 968 291 969 q 446 966 380 966 l 448 966 q 518 938 489 966 q 547 867 547 909 q 518 797 547 826 q 448 768 489 768 l 446 768 q 326 769 374 768 q 266 770 292 770 q 259 557 261 684 l 420 559 q 489 532 460 559 q 519 462 517 504 l 519 460 q 490 390 519 420 q 420 361 461 361 l 258 358 q 262 198 258 270 q 341 199 296 198 q 449 201 394 201 l 450 201 q 521 172 492 201 q 550 102 550 143 q 521 32 550 61 q 450 3 492 3 l 449 3 q 351 1 401 3 q 259 -1 302 -1 m 117 732 q 124 735 121 732 q 127 742 127 738 q 127 762 127 752 q 142 874 127 830 q 224 928 157 918 q 230 932 228 929 q 233 939 233 935 q 229 946 232 943 q 222 948 227 948 l 220 948 q 125 883 143 935 q 107 752 106 830 q 107 743 107 747 q 110 736 107 739 q 117 732 113 733 m 113 644 q 119 646 117 644 q 122 653 122 649 l 125 701 q 122 707 125 704 q 116 710 119 710 l 115 710 q 109 707 111 710 q 106 701 106 705 q 104 672 104 684 q 102 654 103 664 q 105 647 102 650 q 112 644 108 644 l 113 644 m 345 526 l 420 528 q 427 530 424 528 q 429 536 429 533 l 429 538 q 427 545 429 542 q 420 547 424 547 l 345 546 q 338 543 341 546 q 335 536 335 541 q 338 529 335 532 q 345 526 341 526 m 522 110 l 524 111 q 530 114 528 111 q 532 120 532 117 l 532 123 q 496 169 522 151 q 441 186 469 186 q 434 183 437 186 q 431 176 431 180 q 442 165 433 165 l 444 165 q 485 152 463 165 q 512 117 506 138 q 516 112 513 114 q 522 110 519 110 m 213 1166 q 266 1144 243 1166 q 288 1092 288 1122 q 266 1039 288 1061 q 213 1017 243 1017 q 160 1039 182 1017 q 138 1092 138 1061 q 160 1144 138 1122 q 213 1166 182 1166 m 391 1166 q 444 1144 422 1166 q 466 1092 466 1122 q 444 1039 466 1061 q 391 1017 422 1017 q 339 1039 361 1017 q 317 1092 317 1061 q 339 1144 317 1122 q 391 1166 361 1166 z "},"Ì":{"ha":323,"x_min":51,"x_max":265,"o":"m 167 -1 l 161 -1 q 92 26 121 -1 q 61 94 64 53 q 55 375 55 212 q 66 875 55 629 q 98 943 69 916 q 166 970 126 970 l 170 970 q 238 939 211 968 q 265 871 265 911 l 265 865 q 254 376 254 623 q 260 106 254 214 l 260 98 q 234 31 260 60 q 167 -1 208 3 m 98 707 q 105 710 102 707 q 109 718 109 713 q 115 878 109 842 q 127 910 119 899 q 150 930 136 921 q 154 939 154 934 q 152 946 154 943 q 144 949 149 949 q 138 947 141 949 q 96 882 106 928 q 88 718 88 842 q 91 710 88 713 q 98 707 94 707 m 99 616 q 106 618 103 616 q 109 625 109 621 l 109 674 q 106 680 109 677 q 100 683 104 683 l 99 683 q 92 680 95 683 q 89 673 89 677 l 89 627 q 92 619 89 622 q 99 616 94 616 m 182 1017 q 136 1042 155 1017 l 60 1160 q 51 1190 51 1175 q 66 1227 51 1211 q 105 1244 81 1244 q 151 1218 134 1242 l 226 1101 q 235 1071 235 1086 q 211 1025 235 1045 q 182 1017 197 1017 z "},"Í":{"ha":323,"x_min":55,"x_max":284,"o":"m 167 -1 l 161 -1 q 92 26 121 -1 q 61 94 64 53 q 55 375 55 212 q 66 875 55 629 q 98 943 69 916 q 166 970 126 970 l 170 970 q 238 939 211 968 q 265 871 265 911 l 265 865 q 254 376 254 623 q 260 106 254 214 l 260 98 q 234 31 260 60 q 167 -1 208 3 m 98 707 q 105 710 102 707 q 109 718 109 713 q 115 878 109 842 q 127 910 119 899 q 150 930 136 921 q 154 939 154 934 q 152 946 154 943 q 144 949 149 949 q 138 947 141 949 q 96 882 106 928 q 88 718 88 842 q 91 710 88 713 q 98 707 94 707 m 99 616 q 106 618 103 616 q 109 625 109 621 l 109 674 q 106 680 109 677 q 100 683 104 683 l 99 683 q 92 680 95 683 q 89 673 89 677 l 89 627 q 92 619 89 622 q 99 616 94 616 m 155 1017 q 125 1026 139 1017 q 100 1071 100 1044 q 109 1101 100 1086 l 185 1218 q 228 1243 200 1241 l 231 1243 q 269 1226 254 1243 q 284 1190 284 1210 q 275 1160 284 1175 l 199 1042 q 155 1017 181 1017 z "},"Î":{"ha":323,"x_min":22,"x_max":300,"o":"m 167 -1 l 161 -1 q 92 26 121 -1 q 61 94 64 53 q 55 375 55 212 q 66 875 55 629 q 98 943 69 916 q 166 970 126 970 l 170 970 q 238 939 211 968 q 265 871 265 911 l 265 865 q 254 376 254 623 q 260 106 254 214 l 260 98 q 234 31 260 60 q 167 -1 208 3 m 98 707 q 105 710 102 707 q 109 718 109 713 q 115 878 109 842 q 127 910 119 899 q 150 930 136 921 q 154 939 154 934 q 152 946 154 943 q 144 949 149 949 q 138 947 141 949 q 96 882 106 928 q 88 718 88 842 q 91 710 88 713 q 98 707 94 707 m 99 616 q 106 618 103 616 q 109 625 109 621 l 109 674 q 106 680 109 677 q 100 683 104 683 l 99 683 q 92 680 95 683 q 89 673 89 677 l 89 627 q 92 619 89 622 q 99 616 94 616 m 247 1017 q 201 1042 220 1017 l 161 1101 l 121 1042 q 76 1017 102 1017 q 46 1027 60 1017 q 22 1072 22 1046 q 32 1102 22 1087 l 117 1227 q 160 1251 134 1251 l 162 1251 q 206 1227 189 1251 l 290 1102 q 300 1071 300 1087 q 277 1027 300 1045 q 247 1017 262 1017 z "},"Ï":{"ha":323,"x_min":-3,"x_max":325,"o":"m 167 -1 l 161 -1 q 92 26 121 -1 q 61 94 64 53 q 55 375 55 212 q 66 875 55 629 q 98 943 69 916 q 166 970 126 970 l 170 970 q 238 939 211 968 q 265 871 265 911 l 265 865 q 254 376 254 623 q 260 106 254 214 l 260 98 q 234 31 260 60 q 167 -1 208 3 m 98 707 q 105 710 102 707 q 109 718 109 713 q 115 878 109 842 q 127 910 119 899 q 150 930 136 921 q 154 939 154 934 q 152 946 154 943 q 144 949 149 949 q 138 947 141 949 q 96 882 106 928 q 88 718 88 842 q 91 710 88 713 q 98 707 94 707 m 99 616 q 106 618 103 616 q 109 625 109 621 l 109 674 q 106 680 109 677 q 100 683 104 683 l 99 683 q 92 680 95 683 q 89 673 89 677 l 89 627 q 92 619 89 622 q 99 616 94 616 m 72 1166 q 124 1144 102 1166 q 146 1092 146 1122 q 124 1039 146 1061 q 72 1017 102 1017 q 19 1039 41 1017 q -3 1092 -3 1061 q 19 1144 -3 1122 q 72 1166 41 1166 m 250 1166 q 303 1144 281 1166 q 325 1092 325 1122 q 303 1039 325 1061 q 250 1017 281 1017 q 198 1039 220 1017 q 176 1092 176 1061 q 198 1144 176 1122 q 250 1166 220 1166 z "},"Ð":{"ha":643,"x_min":-75,"x_max":586,"o":"m 102 736 q 109 739 106 736 q 112 771 112 742 q 127 878 112 836 q 208 932 142 921 q 217 942 217 933 q 206 951 216 951 q 110 887 128 938 q 92 764 92 837 l 92 746 q 102 736 92 736 m -40 482 q -33 487 -35 482 q -13 508 -27 503 q -7 515 -7 511 q -14 522 -7 522 q -35 510 -25 522 q -47 490 -43 502 q -40 482 -47 484 m 329 220 q 336 223 332 220 q 385 290 365 248 q 416 381 403 328 q 405 391 416 391 q 397 383 398 391 q 323 238 373 287 q 319 231 319 235 q 329 220 319 220 m 97 647 q 107 656 106 647 l 110 704 q 100 713 110 713 q 93 711 96 713 q 87 657 90 708 q 97 647 87 647 m 262 221 q 319 264 291 234 q 368 352 348 294 q 387 510 387 410 q 376 647 387 596 q 348 724 364 698 q 319 759 332 750 q 264 773 296 773 q 254 539 256 669 l 288 539 q 340 517 319 539 q 362 465 362 496 q 340 413 362 435 q 288 391 318 391 l 256 391 q 262 221 257 303 m 174 0 q 103 30 134 0 q 73 105 73 59 q 56 391 60 210 l -1 391 q -53 413 -31 391 q -75 465 -75 435 q -53 517 -75 496 q -1 539 -32 539 l 56 539 q 74 861 57 764 q 105 927 76 903 q 272 972 159 972 l 281 972 q 434 921 358 970 q 586 510 586 813 q 483 155 586 290 q 275 15 398 43 q 174 0 212 0 z "},"Ñ":{"ha":704,"x_min":56,"x_max":648,"o":"m 537 0 q 484 16 509 0 q 446 58 459 31 q 255 477 351 274 l 255 450 q 269 111 255 269 l 270 100 q 245 34 270 62 q 180 1 220 5 l 170 1 q 103 26 132 1 q 71 91 75 52 q 56 458 56 266 q 73 877 56 686 q 153 964 84 947 q 172 966 163 966 q 223 953 199 966 q 260 914 246 939 q 449 534 355 737 q 440 863 449 741 l 439 874 q 468 943 439 914 q 538 972 497 972 l 540 972 q 606 947 578 972 q 638 881 634 921 q 648 545 648 747 q 636 93 648 313 q 611 33 633 58 q 555 1 589 8 q 537 0 546 0 m 98 696 q 104 699 102 696 q 108 705 107 702 q 123 864 113 825 q 136 896 127 886 q 159 916 144 907 q 164 924 164 920 q 162 931 164 928 q 155 934 159 934 l 154 934 l 149 932 q 103 869 115 914 q 87 706 92 825 q 90 699 87 702 q 97 696 93 696 l 98 696 m 497 682 q 504 685 501 682 q 507 692 507 688 l 507 692 q 505 742 507 701 q 503 821 504 782 q 501 873 502 861 q 498 880 501 877 q 491 882 495 882 q 484 879 487 882 q 481 872 481 876 l 487 692 q 490 685 487 688 q 497 682 493 682 m 93 604 q 100 607 97 604 q 103 614 103 610 q 104 638 104 627 q 106 661 105 647 q 103 668 106 665 q 96 671 100 671 l 96 671 q 89 668 92 671 q 86 661 86 665 q 85 653 86 657 q 84 634 85 643 q 83 614 84 625 q 86 607 83 610 q 93 604 89 604 m 302 1017 l 297 1017 q 243 1042 267 1019 q 214 1095 222 1063 q 212 1109 212 1103 q 224 1141 212 1127 q 257 1154 237 1154 l 258 1154 q 285 1145 273 1154 q 301 1122 297 1137 q 303 1116 302 1118 q 304 1113 304 1114 q 306 1111 305 1112 q 307 1111 307 1111 q 333 1123 311 1112 q 345 1130 339 1126 q 406 1152 367 1146 l 414 1153 q 438 1149 425 1153 q 460 1137 450 1145 q 492 1086 485 1116 q 494 1074 494 1080 q 463 1030 494 1045 q 449 1028 456 1028 q 424 1036 435 1028 q 406 1057 412 1044 q 403 1056 405 1057 q 377 1043 395 1053 q 370 1040 374 1041 q 341 1024 357 1031 q 302 1017 324 1017 z "},"Ò":{"ha":692,"x_min":56,"x_max":635,"o":"m 341 0 l 330 0 q 185 59 245 7 q 96 184 124 112 q 64 310 73 243 q 56 449 56 377 l 56 496 q 68 657 58 580 q 107 803 79 734 q 201 924 136 874 q 345 968 264 967 q 361 967 353 968 q 510 908 448 961 q 600 782 573 854 q 628 659 621 723 q 635 527 635 595 l 635 471 q 620 309 633 387 q 578 163 608 231 q 523 82 557 119 q 441 23 488 45 q 341 0 395 0 m 125 734 q 132 736 129 734 q 135 742 134 739 q 194 863 151 814 q 295 917 237 911 q 302 920 299 918 q 304 927 304 923 q 301 934 304 931 q 294 937 298 937 l 294 937 q 179 876 227 929 q 116 746 132 823 l 116 744 q 118 738 116 741 q 123 734 120 735 l 125 734 m 340 199 q 371 210 357 199 q 397 245 385 220 q 436 477 431 321 l 437 515 q 413 713 437 642 q 386 761 401 749 q 351 772 371 772 q 315 761 330 772 q 290 724 301 749 q 255 491 260 650 l 254 460 q 281 256 254 331 q 310 209 296 220 q 340 199 323 199 m 108 645 q 114 648 111 645 q 117 654 117 650 q 125 700 121 676 l 125 703 q 123 709 125 706 q 115 712 120 712 q 110 710 112 712 q 106 704 107 707 q 98 656 101 680 l 98 655 q 100 649 98 652 q 106 645 102 646 l 108 645 m 410 195 q 417 198 414 195 q 454 273 441 229 q 469 365 466 317 l 469 366 q 466 373 469 370 q 460 376 463 376 l 458 376 q 452 373 454 376 q 449 366 449 370 q 434 278 446 320 q 402 211 422 237 q 399 204 399 208 q 403 197 399 200 q 410 195 406 195 m 353 1017 q 307 1042 326 1017 l 231 1160 q 222 1190 222 1175 q 237 1227 222 1211 q 276 1244 252 1244 q 321 1218 305 1242 l 397 1101 q 406 1071 406 1086 q 382 1025 406 1045 q 353 1017 368 1017 z "},"Ó":{"ha":692,"x_min":56,"x_max":635,"o":"m 341 0 l 330 0 q 185 59 245 7 q 96 184 124 112 q 64 310 73 243 q 56 449 56 377 l 56 496 q 68 657 58 580 q 107 803 79 734 q 201 924 136 874 q 345 968 264 967 q 361 967 353 968 q 510 908 448 961 q 600 782 573 854 q 628 659 621 723 q 635 527 635 595 l 635 471 q 620 309 633 387 q 578 163 608 231 q 523 82 557 119 q 441 23 488 45 q 341 0 395 0 m 125 734 q 132 736 129 734 q 135 742 134 739 q 194 863 151 814 q 295 917 237 911 q 302 920 299 918 q 304 927 304 923 q 301 934 304 931 q 294 937 298 937 l 294 937 q 179 876 227 929 q 116 746 132 823 l 116 744 q 118 738 116 741 q 123 734 120 735 l 125 734 m 340 199 q 371 210 357 199 q 397 245 385 220 q 436 477 431 321 l 437 515 q 413 713 437 642 q 386 761 401 749 q 351 772 371 772 q 315 761 330 772 q 290 724 301 749 q 255 491 260 650 l 254 460 q 281 256 254 331 q 310 209 296 220 q 340 199 323 199 m 108 645 q 114 648 111 645 q 117 654 117 650 q 125 700 121 676 l 125 703 q 123 709 125 706 q 115 712 120 712 q 110 710 112 712 q 106 704 107 707 q 98 656 101 680 l 98 655 q 100 649 98 652 q 106 645 102 646 l 108 645 m 410 195 q 417 198 414 195 q 454 273 441 229 q 469 365 466 317 l 469 366 q 466 373 469 370 q 460 376 463 376 l 458 376 q 452 373 454 376 q 449 366 449 370 q 434 278 446 320 q 402 211 422 237 q 399 204 399 208 q 403 197 399 200 q 410 195 406 195 m 339 1017 q 309 1026 323 1017 q 285 1071 285 1044 q 294 1101 285 1086 l 370 1218 q 412 1243 385 1241 l 415 1243 q 454 1226 439 1243 q 469 1190 469 1210 q 460 1160 469 1175 l 384 1042 q 339 1017 366 1017 z "},"Ô":{"ha":692,"x_min":56,"x_max":635,"o":"m 341 0 l 330 0 q 185 59 245 7 q 96 184 124 112 q 64 310 73 243 q 56 449 56 377 l 56 496 q 68 657 58 580 q 107 803 79 734 q 201 924 136 874 q 345 968 264 967 q 361 967 353 968 q 510 908 448 961 q 600 782 573 854 q 628 659 621 723 q 635 527 635 595 l 635 471 q 620 309 633 387 q 578 163 608 231 q 523 82 557 119 q 441 23 488 45 q 341 0 395 0 m 125 734 q 132 736 129 734 q 135 742 134 739 q 194 863 151 814 q 295 917 237 911 q 302 920 299 918 q 304 927 304 923 q 301 934 304 931 q 294 937 298 937 l 294 937 q 179 876 227 929 q 116 746 132 823 l 116 744 q 118 738 116 741 q 123 734 120 735 l 125 734 m 340 199 q 371 210 357 199 q 397 245 385 220 q 436 477 431 321 l 437 515 q 413 713 437 642 q 386 761 401 749 q 351 772 371 772 q 315 761 330 772 q 290 724 301 749 q 255 491 260 650 l 254 460 q 281 256 254 331 q 310 209 296 220 q 340 199 323 199 m 108 645 q 114 648 111 645 q 117 654 117 650 q 125 700 121 676 l 125 703 q 123 709 125 706 q 115 712 120 712 q 110 710 112 712 q 106 704 107 707 q 98 656 101 680 l 98 655 q 100 649 98 652 q 106 645 102 646 l 108 645 m 410 195 q 417 198 414 195 q 454 273 441 229 q 469 365 466 317 l 469 366 q 466 373 469 370 q 460 376 463 376 l 458 376 q 452 373 454 376 q 449 366 449 370 q 434 278 446 320 q 402 211 422 237 q 399 204 399 208 q 403 197 399 200 q 410 195 406 195 m 432 1017 q 387 1042 406 1017 l 347 1101 l 307 1042 q 261 1017 288 1017 q 231 1027 245 1017 q 208 1072 208 1046 q 217 1102 208 1087 l 302 1227 q 345 1251 319 1251 l 347 1251 q 391 1227 374 1251 l 475 1102 q 486 1071 486 1087 q 462 1027 486 1045 q 432 1017 447 1017 z "},"Õ":{"ha":692,"x_min":56,"x_max":635,"o":"m 341 0 l 330 0 q 185 59 245 7 q 96 184 124 112 q 64 310 73 243 q 56 449 56 377 l 56 496 q 68 657 58 580 q 107 803 79 734 q 201 924 136 874 q 345 968 264 967 q 361 967 353 968 q 510 908 448 961 q 600 782 573 854 q 628 659 621 723 q 635 527 635 595 l 635 471 q 620 309 633 387 q 578 163 608 231 q 523 82 557 119 q 441 23 488 45 q 341 0 395 0 m 125 734 q 132 736 129 734 q 135 742 134 739 q 194 863 151 814 q 295 917 237 911 q 302 920 299 918 q 304 927 304 923 q 301 934 304 931 q 294 937 298 937 l 294 937 q 179 876 227 929 q 116 746 132 823 l 116 744 q 118 738 116 741 q 123 734 120 735 l 125 734 m 340 199 q 371 210 357 199 q 397 245 385 220 q 436 477 431 321 l 437 515 q 413 713 437 642 q 386 761 401 749 q 351 772 371 772 q 315 761 330 772 q 290 724 301 749 q 255 491 260 650 l 254 460 q 281 256 254 331 q 310 209 296 220 q 340 199 323 199 m 108 645 q 114 648 111 645 q 117 654 117 650 q 125 700 121 676 l 125 703 q 123 709 125 706 q 115 712 120 712 q 110 710 112 712 q 106 704 107 707 q 98 656 101 680 l 98 655 q 100 649 98 652 q 106 645 102 646 l 108 645 m 410 195 q 417 198 414 195 q 454 273 441 229 q 469 365 466 317 l 469 366 q 466 373 469 370 q 460 376 463 376 l 458 376 q 452 373 454 376 q 449 366 449 370 q 434 278 446 320 q 402 211 422 237 q 399 204 399 208 q 403 197 399 200 q 410 195 406 195 m 295 1017 l 290 1017 q 237 1042 260 1019 q 207 1095 216 1063 q 205 1109 205 1103 q 218 1141 205 1127 q 250 1154 231 1154 l 252 1154 q 278 1145 267 1154 q 294 1122 290 1137 q 296 1116 296 1118 q 298 1113 297 1114 q 299 1111 298 1112 q 300 1111 300 1111 q 326 1123 304 1112 q 338 1130 332 1126 q 399 1152 360 1146 l 407 1153 q 431 1149 418 1153 q 454 1137 444 1145 q 486 1086 478 1116 q 488 1074 488 1080 q 456 1030 488 1045 q 442 1028 450 1028 q 417 1036 429 1028 q 399 1057 405 1044 q 396 1056 398 1057 q 370 1043 389 1053 q 363 1040 368 1041 q 334 1024 351 1031 q 295 1017 317 1017 z "},"Ö":{"ha":692,"x_min":56,"x_max":635,"o":"m 341 0 l 330 0 q 185 59 245 7 q 96 184 124 112 q 64 310 73 243 q 56 449 56 377 l 56 496 q 68 657 58 580 q 107 803 79 734 q 201 924 136 874 q 345 968 264 967 q 361 967 353 968 q 510 908 448 961 q 600 782 573 854 q 628 659 621 723 q 635 527 635 595 l 635 471 q 620 309 633 387 q 578 163 608 231 q 523 82 557 119 q 441 23 488 45 q 341 0 395 0 m 125 734 q 132 736 129 734 q 135 742 134 739 q 194 863 151 814 q 295 917 237 911 q 302 920 299 918 q 304 927 304 923 q 301 934 304 931 q 294 937 298 937 l 294 937 q 179 876 227 929 q 116 746 132 823 l 116 744 q 118 738 116 741 q 123 734 120 735 l 125 734 m 340 199 q 371 210 357 199 q 397 245 385 220 q 436 477 431 321 l 437 515 q 413 713 437 642 q 386 761 401 749 q 351 772 371 772 q 315 761 330 772 q 290 724 301 749 q 255 491 260 650 l 254 460 q 281 256 254 331 q 310 209 296 220 q 340 199 323 199 m 108 645 q 114 648 111 645 q 117 654 117 650 q 125 700 121 676 l 125 703 q 123 709 125 706 q 115 712 120 712 q 110 710 112 712 q 106 704 107 707 q 98 656 101 680 l 98 655 q 100 649 98 652 q 106 645 102 646 l 108 645 m 410 195 q 417 198 414 195 q 454 273 441 229 q 469 365 466 317 l 469 366 q 466 373 469 370 q 460 376 463 376 l 458 376 q 452 373 454 376 q 449 366 449 370 q 434 278 446 320 q 402 211 422 237 q 399 204 399 208 q 403 197 399 200 q 410 195 406 195 m 256 1166 q 309 1144 287 1166 q 331 1092 331 1122 q 309 1039 331 1061 q 256 1017 287 1017 q 203 1039 225 1017 q 182 1092 182 1061 q 203 1144 182 1122 q 256 1166 225 1166 m 435 1166 q 488 1144 466 1166 q 509 1092 509 1122 q 488 1039 509 1061 q 435 1017 466 1017 q 382 1039 404 1017 q 360 1092 360 1061 q 382 1144 360 1122 q 435 1166 404 1166 z "},"×":{"ha":610,"x_min":56,"x_max":554,"o":"m 455 224 q 384 255 416 224 l 305 333 l 227 255 q 156 224 195 224 q 85 254 118 224 q 56 323 56 286 q 87 395 56 362 l 165 474 l 87 552 q 56 623 56 584 q 64 661 56 642 q 100 706 75 689 q 156 723 125 723 q 227 692 195 723 l 305 614 l 384 692 q 452 723 412 721 l 455 723 q 510 706 485 723 q 547 662 534 690 q 554 623 554 643 q 524 552 554 584 l 446 474 l 524 395 q 554 324 554 363 q 525 254 554 286 q 455 224 493 224 m 86 595 q 94 606 94 599 l 94 608 q 91 626 91 617 q 97 647 91 637 q 99 652 99 650 q 96 660 99 656 q 89 663 94 663 q 81 659 83 663 q 71 626 71 642 q 74 603 71 614 q 77 597 75 599 q 83 595 80 595 l 86 595 z "},"Ø":{"ha":692,"x_min":-22,"x_max":713,"o":"m 125 734 q 132 736 129 734 q 135 742 134 739 q 194 863 151 814 q 295 917 237 911 q 302 920 299 918 q 304 927 304 923 q 301 934 304 931 q 294 937 298 937 l 294 937 q 179 876 227 929 q 116 746 132 823 l 116 744 q 118 738 116 741 q 123 734 120 735 l 125 734 m 410 195 q 417 198 414 195 q 454 273 441 229 q 469 365 466 317 l 469 366 q 466 373 469 370 q 460 376 463 376 l 458 376 q 452 373 454 376 q 449 366 449 370 q 434 278 446 320 q 402 211 422 237 q 399 204 399 208 q 403 197 399 200 q 410 195 406 195 m 108 645 q 114 648 111 645 q 117 654 117 650 q 125 700 121 676 l 125 703 q 123 709 125 706 q 115 712 120 712 q 110 710 112 712 q 106 704 107 707 q 98 656 101 680 l 98 655 q 100 649 98 652 q 106 645 102 646 l 108 645 m 304 215 q 310 210 307 212 q 340 199 323 199 q 371 210 357 199 q 397 245 385 220 q 433 425 425 309 l 304 215 m 256 515 l 398 747 q 386 761 392 755 q 351 772 371 772 q 315 761 330 772 q 290 724 301 749 q 256 515 262 656 m 617 724 q 629 659 625 692 q 635 527 635 595 l 635 471 q 620 309 633 387 q 578 163 608 231 q 523 82 557 119 q 441 23 488 45 q 341 0 395 0 l 330 0 q 200 47 256 6 l 163 -14 q 125 -50 148 -37 q 77 -62 102 -62 q 26 -47 51 -62 q -9 -11 3 -33 q -22 37 -22 12 q -6 90 -22 64 l 81 231 q 64 311 70 269 q 56 449 56 377 l 56 496 q 68 657 58 580 q 107 803 79 734 q 201 924 136 874 q 345 968 264 967 q 361 967 353 968 q 502 915 441 962 l 529 959 q 614 1007 561 1007 l 618 1007 q 702 954 674 1003 q 713 908 713 932 q 698 854 713 880 l 617 724 z "},"Ù":{"ha":694,"x_min":56,"x_max":638,"o":"m 347 0 q 225 30 286 0 q 126 115 165 59 q 72 245 88 172 q 56 412 56 319 q 62 762 56 642 q 68 882 68 882 q 98 947 71 921 q 163 975 124 972 l 169 975 q 239 944 211 973 q 267 875 267 916 l 267 867 q 260 752 267 867 q 254 412 254 637 q 266 291 254 336 q 291 227 277 245 q 347 199 310 199 q 404 226 385 199 q 428 289 416 244 q 439 412 439 334 q 434 756 439 652 q 428 861 428 861 l 427 871 q 453 937 427 909 q 517 969 478 965 l 527 970 q 594 944 566 970 q 626 878 622 918 q 632 767 626 878 q 638 412 638 656 q 622 243 638 317 q 568 114 606 170 q 468 29 528 58 q 347 0 408 0 m 95 716 q 101 719 98 716 q 104 726 104 722 q 118 884 109 846 q 132 916 123 905 q 155 936 140 927 q 160 945 160 939 q 157 951 160 948 q 150 955 155 955 q 144 953 147 955 q 99 890 111 935 q 84 726 88 846 q 87 719 84 722 q 94 716 90 716 l 95 716 m 469 671 q 476 673 473 671 q 479 680 479 676 l 473 861 q 470 868 473 865 q 463 871 467 871 q 456 868 459 871 q 454 862 454 865 l 454 861 q 455 810 454 850 q 457 730 456 769 q 459 680 458 691 q 462 673 459 676 q 469 671 465 671 m 91 625 q 97 627 94 625 q 100 634 100 630 q 101 658 100 647 q 102 681 102 667 q 100 688 102 685 q 93 691 97 691 l 92 691 q 85 688 87 691 q 82 682 83 686 l 80 635 q 83 628 80 631 q 90 625 85 625 l 91 625 m 359 158 q 414 178 391 158 q 447 222 437 198 l 448 227 q 445 234 448 231 q 437 237 442 237 q 429 230 431 237 q 401 193 420 210 q 359 178 385 178 l 353 178 q 347 176 350 178 q 344 169 345 173 q 347 162 344 165 q 354 158 349 159 l 359 158 m 354 1017 q 308 1042 327 1017 l 232 1160 q 223 1190 223 1175 q 238 1227 223 1211 q 277 1244 254 1244 q 323 1218 307 1242 l 398 1101 q 408 1071 408 1086 q 383 1025 408 1045 q 354 1017 369 1017 z "},"Ú":{"ha":694,"x_min":56,"x_max":638,"o":"m 347 0 q 225 30 286 0 q 126 115 165 59 q 72 245 88 172 q 56 412 56 319 q 62 762 56 642 q 68 882 68 882 q 98 947 71 921 q 163 975 124 972 l 169 975 q 239 944 211 973 q 267 875 267 916 l 267 867 q 260 752 267 867 q 254 412 254 637 q 266 291 254 336 q 291 227 277 245 q 347 199 310 199 q 404 226 385 199 q 428 289 416 244 q 439 412 439 334 q 434 756 439 652 q 428 861 428 861 l 427 871 q 453 937 427 909 q 517 969 478 965 l 527 970 q 594 944 566 970 q 626 878 622 918 q 632 767 626 878 q 638 412 638 656 q 622 243 638 317 q 568 114 606 170 q 468 29 528 58 q 347 0 408 0 m 95 716 q 101 719 98 716 q 104 726 104 722 q 118 884 109 846 q 132 916 123 905 q 155 936 140 927 q 160 945 160 939 q 157 951 160 948 q 150 955 155 955 q 144 953 147 955 q 99 890 111 935 q 84 726 88 846 q 87 719 84 722 q 94 716 90 716 l 95 716 m 469 671 q 476 673 473 671 q 479 680 479 676 l 473 861 q 470 868 473 865 q 463 871 467 871 q 456 868 459 871 q 454 862 454 865 l 454 861 q 455 810 454 850 q 457 730 456 769 q 459 680 458 691 q 462 673 459 676 q 469 671 465 671 m 91 625 q 97 627 94 625 q 100 634 100 630 q 101 658 100 647 q 102 681 102 667 q 100 688 102 685 q 93 691 97 691 l 92 691 q 85 688 87 691 q 82 682 83 686 l 80 635 q 83 628 80 631 q 90 625 85 625 l 91 625 m 359 158 q 414 178 391 158 q 447 222 437 198 l 448 227 q 445 234 448 231 q 437 237 442 237 q 429 230 431 237 q 401 193 420 210 q 359 178 385 178 l 353 178 q 347 176 350 178 q 344 169 345 173 q 347 162 344 165 q 354 158 349 159 l 359 158 m 340 1017 q 311 1026 325 1017 q 286 1071 286 1044 q 295 1101 286 1086 l 371 1218 q 414 1243 386 1241 l 416 1243 q 455 1226 440 1243 q 470 1190 470 1210 q 461 1160 470 1175 l 385 1042 q 340 1017 367 1017 z "},"Û":{"ha":694,"x_min":56,"x_max":638,"o":"m 347 0 q 225 30 286 0 q 126 115 165 59 q 72 245 88 172 q 56 412 56 319 q 62 762 56 642 q 68 882 68 882 q 98 947 71 921 q 163 975 124 972 l 169 975 q 239 944 211 973 q 267 875 267 916 l 267 867 q 260 752 267 867 q 254 412 254 637 q 266 291 254 336 q 291 227 277 245 q 347 199 310 199 q 404 226 385 199 q 428 289 416 244 q 439 412 439 334 q 434 756 439 652 q 428 861 428 861 l 427 871 q 453 937 427 909 q 517 969 478 965 l 527 970 q 594 944 566 970 q 626 878 622 918 q 632 767 626 878 q 638 412 638 656 q 622 243 638 317 q 568 114 606 170 q 468 29 528 58 q 347 0 408 0 m 95 716 q 101 719 98 716 q 104 726 104 722 q 118 884 109 846 q 132 916 123 905 q 155 936 140 927 q 160 945 160 939 q 157 951 160 948 q 150 955 155 955 q 144 953 147 955 q 99 890 111 935 q 84 726 88 846 q 87 719 84 722 q 94 716 90 716 l 95 716 m 469 671 q 476 673 473 671 q 479 680 479 676 l 473 861 q 470 868 473 865 q 463 871 467 871 q 456 868 459 871 q 454 862 454 865 l 454 861 q 455 810 454 850 q 457 730 456 769 q 459 680 458 691 q 462 673 459 676 q 469 671 465 671 m 91 625 q 97 627 94 625 q 100 634 100 630 q 101 658 100 647 q 102 681 102 667 q 100 688 102 685 q 93 691 97 691 l 92 691 q 85 688 87 691 q 82 682 83 686 l 80 635 q 83 628 80 631 q 90 625 85 625 l 91 625 m 359 158 q 414 178 391 158 q 447 222 437 198 l 448 227 q 445 234 448 231 q 437 237 442 237 q 429 230 431 237 q 401 193 420 210 q 359 178 385 178 l 353 178 q 347 176 350 178 q 344 169 345 173 q 347 162 344 165 q 354 158 349 159 l 359 158 m 433 1017 q 388 1042 407 1017 l 348 1101 l 308 1042 q 262 1017 289 1017 q 233 1027 247 1017 q 209 1072 209 1046 q 218 1102 209 1087 l 303 1227 q 347 1251 320 1251 l 349 1251 q 393 1227 375 1251 l 477 1102 q 487 1071 487 1087 q 463 1027 487 1045 q 433 1017 448 1017 z "},"Ü":{"ha":694,"x_min":56,"x_max":638,"o":"m 347 0 q 225 30 286 0 q 126 115 165 59 q 72 245 88 172 q 56 412 56 319 q 62 762 56 642 q 68 882 68 882 q 98 947 71 921 q 163 975 124 972 l 169 975 q 239 944 211 973 q 267 875 267 916 l 267 867 q 260 752 267 867 q 254 412 254 637 q 266 291 254 336 q 291 227 277 245 q 347 199 310 199 q 404 226 385 199 q 428 289 416 244 q 439 412 439 334 q 434 756 439 652 q 428 861 428 861 l 427 871 q 453 937 427 909 q 517 969 478 965 l 527 970 q 594 944 566 970 q 626 878 622 918 q 632 767 626 878 q 638 412 638 656 q 622 243 638 317 q 568 114 606 170 q 468 29 528 58 q 347 0 408 0 m 95 716 q 101 719 98 716 q 104 726 104 722 q 118 884 109 846 q 132 916 123 905 q 155 936 140 927 q 160 945 160 939 q 157 951 160 948 q 150 955 155 955 q 144 953 147 955 q 99 890 111 935 q 84 726 88 846 q 87 719 84 722 q 94 716 90 716 l 95 716 m 469 671 q 476 673 473 671 q 479 680 479 676 l 473 861 q 470 868 473 865 q 463 871 467 871 q 456 868 459 871 q 454 862 454 865 l 454 861 q 455 810 454 850 q 457 730 456 769 q 459 680 458 691 q 462 673 459 676 q 469 671 465 671 m 91 625 q 97 627 94 625 q 100 634 100 630 q 101 658 100 647 q 102 681 102 667 q 100 688 102 685 q 93 691 97 691 l 92 691 q 85 688 87 691 q 82 682 83 686 l 80 635 q 83 628 80 631 q 90 625 85 625 l 91 625 m 359 158 q 414 178 391 158 q 447 222 437 198 l 448 227 q 445 234 448 231 q 437 237 442 237 q 429 230 431 237 q 401 193 420 210 q 359 178 385 178 l 353 178 q 347 176 350 178 q 344 169 345 173 q 347 162 344 165 q 354 158 349 159 l 359 158 m 258 1166 q 310 1144 288 1166 q 332 1092 332 1122 q 310 1039 332 1061 q 258 1017 288 1017 q 205 1039 227 1017 q 183 1092 183 1061 q 205 1144 183 1122 q 258 1166 227 1166 m 436 1166 q 489 1144 467 1166 q 511 1092 511 1122 q 489 1039 511 1061 q 436 1017 467 1017 q 384 1039 406 1017 q 361 1092 361 1061 q 384 1144 361 1122 q 436 1166 406 1166 z "},"Ý":{"ha":765,"x_min":56,"x_max":709,"o":"m 379 -1 l 378 -1 q 308 27 336 -1 q 279 97 279 56 l 280 401 q 155 604 206 489 q 60 848 87 746 q 56 876 56 862 q 84 944 56 915 q 155 974 113 974 l 157 974 q 252 899 230 968 q 282 809 260 866 q 334 690 304 752 q 382 602 357 644 q 513 899 468 733 q 550 953 523 932 q 610 974 576 974 l 614 974 q 683 942 656 971 q 709 874 709 913 q 706 848 709 861 q 479 398 632 587 l 477 97 q 449 27 477 56 q 379 -1 420 -1 m 158 693 l 162 694 q 168 703 168 697 l 167 707 q 111 857 119 817 q 108 880 108 869 q 121 919 108 902 q 122 924 122 922 q 119 931 122 928 q 113 935 117 934 q 104 930 107 935 q 88 878 88 907 q 91 852 88 866 q 149 699 100 809 q 158 693 152 693 m 463 651 q 471 656 468 651 q 512 743 488 682 q 548 858 536 804 l 548 860 q 545 867 548 864 q 538 869 543 869 l 538 869 q 531 867 534 869 q 528 861 529 865 q 494 750 518 811 q 471 698 482 721 q 455 667 460 675 q 453 661 453 664 q 458 653 453 657 q 463 651 460 651 m 199 611 l 204 612 q 210 621 210 615 l 209 626 q 198 646 203 637 q 188 667 194 654 q 179 673 184 673 q 171 670 174 673 q 168 663 168 667 l 170 659 l 191 616 q 199 611 194 611 m 376 1017 q 347 1026 361 1017 q 322 1071 322 1044 q 331 1101 322 1086 l 407 1218 q 450 1243 422 1241 l 452 1243 q 491 1226 476 1243 q 506 1190 506 1210 q 497 1160 506 1175 l 421 1042 q 376 1017 403 1017 z "},"Ÿ":{"ha":765,"x_min":56,"x_max":709,"o":"m 379 -1 l 378 -1 q 308 27 336 -1 q 279 97 279 56 l 280 401 q 155 604 206 489 q 60 848 87 746 q 56 876 56 862 q 84 944 56 915 q 155 974 113 974 l 157 974 q 252 899 230 968 q 282 809 260 866 q 334 690 304 752 q 382 602 357 644 q 513 899 468 733 q 550 953 523 932 q 610 974 576 974 l 614 974 q 683 942 656 971 q 709 874 709 913 q 706 848 709 861 q 479 398 632 587 l 477 97 q 449 27 477 56 q 379 -1 420 -1 m 158 693 l 162 694 q 168 703 168 697 l 167 707 q 111 857 119 817 q 108 880 108 869 q 121 919 108 902 q 122 924 122 922 q 119 931 122 928 q 113 935 117 934 q 104 930 107 935 q 88 878 88 907 q 91 852 88 866 q 149 699 100 809 q 158 693 152 693 m 463 651 q 471 656 468 651 q 512 743 488 682 q 548 858 536 804 l 548 860 q 545 867 548 864 q 538 869 543 869 l 538 869 q 531 867 534 869 q 528 861 529 865 q 494 750 518 811 q 471 698 482 721 q 455 667 460 675 q 453 661 453 664 q 458 653 453 657 q 463 651 460 651 m 199 611 l 204 612 q 210 621 210 615 l 209 626 q 198 646 203 637 q 188 667 194 654 q 179 673 184 673 q 171 670 174 673 q 168 663 168 667 l 170 659 l 191 616 q 199 611 194 611 m 294 1166 q 346 1144 324 1166 q 368 1092 368 1122 q 346 1039 368 1061 q 294 1017 324 1017 q 241 1039 262 1017 q 219 1092 219 1061 q 241 1144 219 1122 q 294 1166 262 1166 m 472 1166 q 525 1144 503 1166 q 547 1092 547 1122 q 525 1039 547 1061 q 472 1017 503 1017 q 419 1039 441 1017 q 397 1092 397 1061 q 419 1144 397 1122 q 472 1166 441 1166 z "},"Þ":{"ha":664,"x_min":56,"x_max":608,"o":"m 171 -5 l 168 -5 q 98 23 127 -5 q 68 92 70 50 q 64 197 66 144 q 58 343 60 267 q 56 505 56 418 q 68 859 56 657 q 98 924 71 898 q 163 952 124 949 l 168 952 q 238 923 209 952 q 267 853 267 894 l 267 845 l 262 778 l 286 778 q 349 774 315 778 q 432 757 389 770 q 516 713 475 743 q 583 629 557 682 q 608 516 608 577 q 587 401 608 454 q 532 309 566 348 q 459 247 498 271 q 381 209 420 223 q 264 177 317 185 l 267 95 q 239 26 267 55 q 171 -5 212 -2 m 96 620 q 102 623 100 620 q 105 629 105 625 q 106 653 106 642 q 108 675 107 662 l 108 677 q 105 684 108 681 q 99 686 103 686 l 98 686 q 92 684 94 686 q 88 677 89 681 l 85 631 l 85 629 q 88 623 85 625 q 95 620 91 620 l 96 620 m 101 709 q 107 711 104 709 q 110 718 110 714 q 111 728 110 723 q 121 852 111 802 q 140 890 127 876 q 178 905 153 903 q 184 908 182 905 q 187 915 187 911 q 184 922 187 919 q 178 924 182 924 l 177 924 q 126 904 144 923 q 101 857 109 886 q 91 744 91 808 q 90 719 90 732 q 93 712 90 715 q 100 709 96 709 l 101 709 m 402 714 q 410 719 407 714 q 412 724 412 721 q 407 732 412 728 q 332 752 378 749 l 319 752 q 303 751 311 752 q 296 748 299 751 q 294 742 294 745 l 294 741 q 297 734 294 736 q 304 732 300 732 l 318 732 q 363 727 341 732 q 397 715 386 722 q 402 714 399 714 m 256 378 q 310 394 283 385 q 383 441 357 413 q 402 470 395 454 q 409 516 409 487 q 391 556 409 542 q 345 575 373 570 q 285 581 316 581 q 255 579 270 581 l 254 498 q 256 378 254 435 m 374 366 l 378 368 q 427 408 404 381 q 457 473 450 434 l 457 474 q 454 481 457 478 q 448 484 452 484 q 437 475 439 484 q 412 420 432 443 q 368 385 391 397 q 363 376 363 382 l 364 372 q 374 366 368 366 z "},"ß":{"ha":726,"x_min":56,"x_max":671,"o":"m 161 2 l 159 2 q 90 31 119 2 q 60 100 60 60 l 56 642 q 74 763 56 705 q 131 867 93 821 q 227 940 170 913 q 349 967 283 967 q 486 929 425 967 q 582 831 547 892 q 616 701 616 770 q 607 611 616 657 q 576 519 598 565 q 645 431 618 486 q 671 311 671 376 q 655 206 671 259 q 602 107 639 153 q 506 32 565 60 q 376 3 447 3 l 375 3 q 304 32 334 3 q 275 102 275 61 q 304 173 275 144 q 375 202 334 202 l 376 202 q 472 300 472 202 q 374 380 472 380 l 372 380 q 302 410 330 382 q 274 479 274 439 q 302 549 274 520 q 372 579 330 578 l 373 579 q 380 580 378 579 q 386 586 383 581 q 395 603 389 591 q 412 650 406 622 q 418 701 418 677 q 401 747 418 726 q 349 768 385 768 q 310 761 324 768 q 283 740 295 754 q 263 701 271 725 q 254 643 254 677 l 259 102 q 231 32 259 61 q 161 2 203 3 m 108 561 q 114 564 111 561 q 117 570 117 566 l 120 618 q 117 625 120 622 q 111 627 115 627 l 110 627 q 103 625 106 627 q 100 618 100 622 l 97 572 q 106 561 97 563 l 108 561 m 113 650 q 119 652 116 650 q 121 659 121 655 q 127 713 122 682 q 146 779 133 745 q 186 839 161 812 q 252 880 212 866 q 260 889 260 883 q 257 896 260 892 q 250 899 254 899 q 248 899 249 899 q 246 899 248 899 q 172 853 201 883 q 128 787 144 823 q 108 717 114 751 q 102 660 102 684 q 104 653 102 656 q 111 650 107 650 l 113 650 m 397 556 l 401 557 q 445 602 431 570 q 458 654 458 628 l 458 663 q 455 669 458 667 q 448 672 452 672 q 441 669 444 672 q 438 663 438 666 l 438 655 q 427 610 438 634 q 393 576 414 585 q 387 566 387 572 l 388 562 q 397 556 391 556 m 425 172 q 481 199 457 174 q 514 252 506 222 l 514 254 q 511 261 514 258 q 505 264 509 264 q 494 257 498 264 q 467 213 488 233 q 424 191 446 193 q 416 188 419 191 q 414 181 414 185 q 417 174 414 177 q 423 172 420 172 l 425 172 z "},"à":{"ha":660,"x_min":56,"x_max":603,"o":"m 494 0 q 425 29 456 0 q 317 0 379 0 q 207 28 258 0 q 121 103 155 56 q 72 209 87 150 q 56 335 56 267 q 89 524 56 436 q 200 668 123 612 q 323 707 252 704 l 342 705 q 393 696 368 704 q 429 679 412 690 q 496 704 460 704 q 563 675 536 702 q 593 610 590 649 q 603 312 603 473 q 593 90 603 195 q 528 5 585 29 q 494 0 511 0 m 126 492 q 131 494 129 492 q 135 498 134 496 q 203 615 156 570 q 309 660 251 660 q 316 663 313 660 q 319 669 319 665 q 316 677 319 673 q 309 681 313 681 q 190 630 241 678 q 115 505 138 581 l 115 503 q 122 493 115 496 l 126 492 m 323 199 q 352 213 339 199 q 376 248 366 228 q 395 286 387 267 q 404 303 400 296 l 402 435 q 392 461 399 444 q 371 494 385 479 q 335 509 357 509 q 278 464 300 509 q 254 334 255 419 q 275 231 254 262 q 323 199 296 199 m 98 405 q 107 412 104 405 l 118 458 l 119 461 q 116 468 119 465 q 109 471 113 471 q 103 469 105 471 q 100 464 100 467 q 87 416 92 440 l 87 414 q 89 409 87 412 q 94 406 91 406 l 98 405 m 358 160 l 363 161 q 410 206 391 178 q 437 260 430 234 l 438 262 q 435 269 438 265 q 427 272 431 272 q 418 265 420 272 q 393 218 411 244 q 353 179 375 192 q 349 170 349 176 l 350 165 q 353 161 351 163 q 358 160 355 160 m 357 780 q 311 805 330 780 l 235 922 q 226 952 226 937 q 241 990 226 973 q 280 1006 256 1006 q 326 981 309 1005 l 401 863 q 410 833 410 849 q 386 788 410 808 q 357 780 372 780 z "},"á":{"ha":660,"x_min":56,"x_max":603,"o":"m 494 0 q 425 29 456 0 q 317 0 379 0 q 207 28 258 0 q 121 103 155 56 q 72 209 87 150 q 56 335 56 267 q 89 524 56 436 q 200 668 123 612 q 323 707 252 704 l 342 705 q 393 696 368 704 q 429 679 412 690 q 496 704 460 704 q 563 675 536 702 q 593 610 590 649 q 603 312 603 473 q 593 90 603 195 q 528 5 585 29 q 494 0 511 0 m 126 492 q 131 494 129 492 q 135 498 134 496 q 203 615 156 570 q 309 660 251 660 q 316 663 313 660 q 319 669 319 665 q 316 677 319 673 q 309 681 313 681 q 190 630 241 678 q 115 505 138 581 l 115 503 q 122 493 115 496 l 126 492 m 323 199 q 352 213 339 199 q 376 248 366 228 q 395 286 387 267 q 404 303 400 296 l 402 435 q 392 461 399 444 q 371 494 385 479 q 335 509 357 509 q 278 464 300 509 q 254 334 255 419 q 275 231 254 262 q 323 199 296 199 m 98 405 q 107 412 104 405 l 118 458 l 119 461 q 116 468 119 465 q 109 471 113 471 q 103 469 105 471 q 100 464 100 467 q 87 416 92 440 l 87 414 q 89 409 87 412 q 94 406 91 406 l 98 405 m 358 160 l 363 161 q 410 206 391 178 q 437 260 430 234 l 438 262 q 435 269 438 265 q 427 272 431 272 q 418 265 420 272 q 393 218 411 244 q 353 179 375 192 q 349 170 349 176 l 350 165 q 353 161 351 163 q 358 160 355 160 m 323 780 q 293 789 307 780 q 269 833 269 807 q 277 863 269 849 l 353 981 q 396 1006 368 1004 l 399 1006 q 437 989 422 1006 q 452 952 452 972 q 444 922 452 937 l 368 805 q 323 780 349 780 z "},"â":{"ha":660,"x_min":56,"x_max":603,"o":"m 494 0 q 425 29 456 0 q 317 0 379 0 q 207 28 258 0 q 121 103 155 56 q 72 209 87 150 q 56 335 56 267 q 89 524 56 436 q 200 668 123 612 q 323 707 252 704 l 342 705 q 393 696 368 704 q 429 679 412 690 q 496 704 460 704 q 563 675 536 702 q 593 610 590 649 q 603 312 603 473 q 593 90 603 195 q 528 5 585 29 q 494 0 511 0 m 126 492 q 131 494 129 492 q 135 498 134 496 q 203 615 156 570 q 309 660 251 660 q 316 663 313 660 q 319 669 319 665 q 316 677 319 673 q 309 681 313 681 q 190 630 241 678 q 115 505 138 581 l 115 503 q 122 493 115 496 l 126 492 m 323 199 q 352 213 339 199 q 376 248 366 228 q 395 286 387 267 q 404 303 400 296 l 402 435 q 392 461 399 444 q 371 494 385 479 q 335 509 357 509 q 278 464 300 509 q 254 334 255 419 q 275 231 254 262 q 323 199 296 199 m 98 405 q 107 412 104 405 l 118 458 l 119 461 q 116 468 119 465 q 109 471 113 471 q 103 469 105 471 q 100 464 100 467 q 87 416 92 440 l 87 414 q 89 409 87 412 q 94 406 91 406 l 98 405 m 358 160 l 363 161 q 410 206 391 178 q 437 260 430 234 l 438 262 q 435 269 438 265 q 427 272 431 272 q 418 265 420 272 q 393 218 411 244 q 353 179 375 192 q 349 170 349 176 l 350 165 q 353 161 351 163 q 358 160 355 160 m 442 780 q 397 804 416 780 l 357 863 l 317 804 q 271 780 298 780 q 241 789 256 780 q 218 834 218 808 q 227 865 218 850 l 312 990 q 355 1013 329 1013 l 357 1013 q 401 990 384 1013 l 486 865 q 496 833 496 850 q 472 789 496 808 q 442 780 457 780 z "},"ã":{"ha":660,"x_min":56,"x_max":603,"o":"m 494 0 q 425 29 456 0 q 317 0 379 0 q 207 28 258 0 q 121 103 155 56 q 72 209 87 150 q 56 335 56 267 q 89 524 56 436 q 200 668 123 612 q 323 707 252 704 l 342 705 q 393 696 368 704 q 429 679 412 690 q 496 704 460 704 q 563 675 536 702 q 593 610 590 649 q 603 312 603 473 q 593 90 603 195 q 528 5 585 29 q 494 0 511 0 m 126 492 q 131 494 129 492 q 135 498 134 496 q 203 615 156 570 q 309 660 251 660 q 316 663 313 660 q 319 669 319 665 q 316 677 319 673 q 309 681 313 681 q 190 630 241 678 q 115 505 138 581 l 115 503 q 122 493 115 496 l 126 492 m 323 199 q 352 213 339 199 q 376 248 366 228 q 395 286 387 267 q 404 303 400 296 l 402 435 q 392 461 399 444 q 371 494 385 479 q 335 509 357 509 q 278 464 300 509 q 254 334 255 419 q 275 231 254 262 q 323 199 296 199 m 98 405 q 107 412 104 405 l 118 458 l 119 461 q 116 468 119 465 q 109 471 113 471 q 103 469 105 471 q 100 464 100 467 q 87 416 92 440 l 87 414 q 89 409 87 412 q 94 406 91 406 l 98 405 m 358 160 l 363 161 q 410 206 391 178 q 437 260 430 234 l 438 262 q 435 269 438 265 q 427 272 431 272 q 418 265 420 272 q 393 218 411 244 q 353 179 375 192 q 349 170 349 176 l 350 165 q 353 161 351 163 q 358 160 355 160 m 306 780 l 301 780 q 248 804 271 782 q 218 858 227 826 q 216 872 216 865 q 229 903 216 890 q 261 917 241 917 l 262 917 q 289 908 277 917 q 305 884 301 899 q 307 878 307 880 q 309 875 308 876 q 310 873 309 874 q 311 873 311 873 q 337 886 315 874 q 349 892 343 889 q 410 915 371 909 l 418 916 q 442 912 429 916 q 465 899 454 908 q 496 849 489 879 q 498 836 498 843 q 467 793 498 808 q 453 791 460 791 q 428 799 439 791 q 410 820 416 806 q 407 819 409 819 q 381 806 399 816 q 374 802 378 804 q 345 787 361 794 q 306 780 328 780 z "}}}
